<svg width="41" height="40" viewBox="0 0 41 40" version="1.1" xmlns="http://www.w3.org/2000/svg" xmlns:xlink="http://www.w3.org/1999/xlink">
<title>logoKMM</title>
<desc>Created using Figma</desc>
<g id="Canvas" transform="translate(-3173 1131)">
<g id="logoKMM">
<g id="Group">
<g id="Vector">
<use xlink:href="#path0_fill" transform="translate(3173.13 -1131)" fill="#FFFFFF"/>
</g>
<g id="Vector">
<use xlink:href="#path1_fill" transform="translate(3173 -1131)" fill="#979797"/>
</g>
</g>
</g>
</g>
<defs>
<path id="path0_fill" d="M 12.2851 22.9963C 12.2851 22.9963 20.6301 16.2132 21.1133 15.5147C 21.801 14.5404 21.9869 13.0699 19.0503 11.6176C 13.995 9.11765 0 0 0 0L 34.6623 11.5993C 34.6623 11.5993 34.6623 11.5993 34.6809 11.5993C 38.2865 12.9596 38.6954 14.2279 38.1006 15.1838C 38.0449 15.2757 37.7289 15.6801 37.5431 15.8088C 36.7067 16.5257 33.6401 17.8676 32.3205 18.5294C 30.0159 19.6875 27.1537 21.1765 25.2208 22.2794C 22.879 23.6397 20.6115 24.9449 20.0168 25.3676C 18.6786 26.2868 18.0281 26.8382 17.7679 28.1434C 17.7493 28.1985 17.7493 28.4743 17.7865 28.7316C 17.8051 28.8419 17.898 29.0809 17.9538 29.1728C 18.0281 29.2831 18.121 29.4118 18.1954 29.4853C 19.2733 30.6618 21.7638 31.7463 21.7638 31.7463L 40.8699 40C 40.8699 40 25.9084 37.7022 14.0879 34.7978C 12.8427 34.5037 9.62738 33.511 8.15911 32.9228C 7.80598 32.7757 7.21124 32.3713 7.09973 32.261C 3.99592 28.9706 12.2851 22.9963 12.2851 22.9963Z"/>
<path id="path1_fill" d="M 28.5848 22.9963C 28.5848 22.9963 20.2398 16.2132 19.7566 15.5147C 19.0689 14.5404 18.883 13.0699 21.8196 11.6176C 26.8563 9.11765 40.8513 0 40.8513 0L 6.18903 11.5993C 6.18903 11.5993 6.18903 11.5993 6.17044 11.5993C 2.56482 12.9596 2.15594 14.2279 2.75068 15.1838C 2.80644 15.2757 3.12239 15.6801 3.30825 15.8088C 4.14461 16.5257 7.21124 17.8676 8.53083 18.5294C 10.8354 19.6875 13.6976 21.1765 15.6306 22.2794C 17.9723 23.6397 20.2212 24.9449 20.8345 25.3676C 22.1727 26.2868 22.8232 26.8382 23.0834 28.1434C 23.102 28.1985 23.102 28.4743 23.0648 28.7316C 23.0462 28.8419 22.9533 29.0809 22.8976 29.1728C 22.8232 29.2831 22.7303 29.4118 22.6559 29.4853C 21.578 30.6618 19.0875 31.7463 19.0875 31.7463L 0 39.9816C 0 39.9816 14.9615 37.6838 26.782 34.7794C 28.0272 34.4853 31.2425 33.4926 32.7108 32.9044C 33.0639 32.7574 33.6587 32.3529 33.7702 32.2426C 36.8554 28.9706 28.5848 22.9963 28.5848 22.9963Z"/>
</defs>
</svg>
