<?xml version="1.0" standalone="no"?>
<!DOCTYPE svg PUBLIC "-//W3C//DTD SVG 1.1//EN" "http://www.w3.org/Graphics/SVG/1.1/DTD/svg11.dtd">
<svg xmlns="http://www.w3.org/2000/svg">
<metadata>Generated by Fontastic.me</metadata>
<defs>
<font id="filetypes" horiz-adv-x="512">
<font-face font-family="filetypes" units-per-em="512" ascent="480" descent="-32"/>
<missing-glyph horiz-adv-x="512" />

<glyph glyph-name="3dm" unicode="&#97;" d="M491 339l-72 0 0 62-118 111-280 0 0-512 398 0 0 79 72 0 0 260z m-43-217l-299 0 0 174 299 0z m-238 60c-3-2-7-3-12-3-5 0-9 0-12 2-3 1-6 4-8 6l-10-12c4-4 8-7 13-9 5-2 11-3 17-3 5 0 10 1 14 2 4 1 8 3 10 5 3 2 5 5 7 8 2 4 2 7 2 11 0 6-1 11-5 15-3 4-7 7-12 8 2 0 4 1 6 2 2 2 4 3 5 5 2 2 3 4 4 7 1 2 1 4 1 7 0 3-1 6-2 9-2 3-4 5-6 7-3 2-6 4-10 5-3 1-7 1-11 1-4 0-7 0-10-1-3 0-6-1-9-2-3-1-5-3-7-4-2-2-4-4-5-6l10-12c2 4 5 6 8 8 3 2 7 3 11 3 3 0 7-1 9-3 2-2 4-4 4-8 0-3-2-6-5-9-3-2-7-3-12-3l-4 0 0-13 4 0c6 0 11-1 14-4 3-2 5-5 5-10 0-4-2-7-4-9z m87-15c6 2 10 5 14 9 4 4 7 9 9 15 3 5 4 11 4 18 0 7-1 12-3 18-2 5-5 10-9 14-3 4-8 8-14 10-5 2-12 4-19 4l-33 0 0-91 33 0c7 0 13 1 18 3z m-34 72l16 0c4 0 8-1 11-2 4-1 6-4 9-6 2-3 4-6 5-10 1-3 2-7 2-12 0-4-1-8-2-12-1-3-3-6-5-9-2-3-5-5-9-6-3-2-7-3-11-3l-16 0z m92-15l23-45 10 0 24 45 0-60 17 0 0 91-19 0-27-52-27 52-19 0 0-91 18 0z"/>
<glyph glyph-name="3ds" unicode="&#98;" d="M491 335l-71 0 0 66-118 111-281 0 0-512 399 0 0 75 71 0z m-43-218l-299 0 0 175 299 0z m-225 60c-3-2-7-3-12-3-5 0-9 1-12 2-3 2-6 4-8 7l-9-12c3-4 7-7 12-10 5-2 11-3 17-3 5 0 10 1 14 2 4 1 8 3 11 5 2 3 5 5 6 9 2 3 3 7 3 11 0 6-2 11-5 15-4 4-8 6-13 7 2 1 4 2 6 3 2 1 4 3 6 5 1 2 2 4 3 6 1 2 1 5 1 7 0 4-1 7-2 9-2 3-4 6-6 8-3 2-6 3-9 4-4 1-8 2-12 2-4 0-7 0-10-1-3-1-6-2-9-3-3-1-5-2-7-4-2-1-4-3-5-5l11-12c2 3 4 6 7 7 3 2 7 3 11 3 4 0 7-1 9-3 2-1 4-4 4-7 0-4-2-7-5-9-3-3-7-4-12-4l-4 0 0-13 4 0c6 0 11-1 14-3 3-3 5-6 5-11 0-4-2-7-4-9z m87-15c6 3 11 6 15 10 3 4 6 8 9 14 2 6 3 12 3 19 0 6-1 12-3 17-2 6-5 11-9 15-3 4-8 7-14 9-5 3-12 4-19 4l-33 0 0-91 33 0c7 0 13 1 18 3z m-33 73l15 0c4 0 8-1 11-3 4-1 7-3 9-6 2-2 4-6 5-9 1-4 2-8 2-12 0-5-1-9-2-12-1-4-3-7-5-10-2-2-5-5-9-6-3-2-7-2-11-2l-15 0z m105-61c-3 0-7 1-10 1-3 1-6 2-9 4-3 1-5 2-7 3-2 2-4 3-4 3l-8-15c5-4 11-7 18-9 6-2 13-3 20-3 4 0 9 1 13 2 4 1 7 2 10 4 4 3 6 5 8 9 2 3 3 7 3 12 0 4-1 8-2 11-2 3-4 5-6 7-3 2-6 4-9 5-4 2-8 3-13 4-3 1-6 2-9 3-2 0-4 1-6 2-2 1-3 2-4 3-1 2-1 3-1 5 0 3 1 6 3 8 3 1 6 2 11 2 3 0 6 0 8-1 3 0 5-1 8-2 2-1 4-2 5-3 2-1 3-2 4-3l7 15c-4 2-8 5-14 7-5 2-11 3-17 3-5 0-9-1-13-2-4-1-8-3-11-5-3-3-5-6-7-9-2-4-2-8-2-13 0-3 0-6 1-9 1-2 3-4 5-6 2-2 5-4 8-5 3-2 7-3 11-4 4-1 7-2 10-3 3-1 5-2 7-3 2-1 4-2 5-3 1-2 2-4 2-5 0-7-5-10-15-10z"/>
<glyph glyph-name="3g2" unicode="&#99;" d="M492 335l-74 0 0 66-118 111-280 0 0-512 398 0 0 75 74 0z m-43-217l-298 0 0 175 298 0z m-231 58c-3-2-7-3-13-3-5 0-9 1-12 3-3 1-6 4-8 6l-10-12c3-4 8-8 13-10 5-2 11-3 18-3 5 0 10 1 14 2 4 1 8 3 11 5 3 3 5 6 7 9 2 3 3 7 3 11 0 7-2 12-6 16-3 5-8 7-13 8 2 1 5 1 7 3 2 1 4 3 5 5 2 2 3 4 4 6 1 3 1 5 1 8 0 4-1 7-2 10-2 3-4 5-7 7-2 2-6 4-9 5-4 1-8 2-13 2-3 0-7-1-10-1-3-1-6-2-9-3-3-1-5-3-8-4-2-2-4-4-5-6l11-13c2 4 5 6 8 8 4 2 7 3 11 3 4 0 8-1 10-3 3-1 4-4 4-8 0-4-2-7-5-9-3-3-7-4-13-4l-4 0 0-13 4 0c7 0 12-1 15-4 3-2 5-6 5-11 0-4-1-7-4-10z m45-5c4-4 9-8 14-10 6-3 12-4 18-4 10 0 19 4 26 12l0-11 16 0 0 49-35 0 0-14 19 0 0-7c-7-8-15-13-24-13-4 0-8 1-12 3-3 2-6 4-9 7-2 3-4 6-5 10-2 4-3 8-3 12 0 5 1 9 2 12 2 4 4 8 6 11 2 3 5 5 8 7 4 1 7 2 11 2 6 0 10-1 15-4 4-2 7-6 10-10l13 10c-3 6-8 11-14 15-6 4-14 5-23 5-6 0-13-1-18-3-6-3-11-6-15-11-4-4-7-9-10-15-2-6-3-12-3-18 0-7 1-13 3-19 3-6 6-11 10-16z m131 40c-3-1-6-3-9-4-3-2-7-4-11-7-5-2-10-5-13-8-3-3-6-6-7-9-2-4-4-7-4-11-1-4-1-8-1-13l76 0 0 19-48 0c1 2 3 4 5 5 2 2 4 4 6 6 3 1 5 3 8 4 2 1 4 3 6 4 2 1 5 2 7 4 3 2 5 4 7 6 2 2 4 5 6 8 1 2 2 6 2 9 0 4-1 8-3 11-1 4-3 7-6 9-3 2-7 4-11 6-4 1-9 2-15 2-4 0-9-1-13-2-4-1-8-2-12-4-3-1-6-3-9-5-2-1-4-3-5-5l13-15c2 1 3 3 4 4 2 2 4 3 6 4 1 1 3 2 6 3 2 1 4 1 7 1 4 0 8-1 11-4 2-2 3-5 3-8 0-2 0-4-1-5-2-2-3-3-5-5z"/>
<glyph glyph-name="3gp" unicode="&#100;" d="M491 335l-72 0 0 66-118 111-280 0 0-512 398 0 0 75 72 0z m-42-217l-299 0 0 174 299 0z m-229 59c-3-2-7-3-12-3-5 0-9 0-12 2-3 1-6 4-8 7l-10-13c3-4 8-7 13-9 5-2 11-3 17-3 6 0 10 0 14 1 5 2 8 3 11 6 3 2 5 5 7 8 2 4 2 7 2 11 0 6-1 12-5 16-3 4-7 7-13 8 3 0 5 1 7 2 2 2 4 3 5 5 2 2 3 4 4 7 0 2 1 4 1 7 0 3-1 7-2 9-2 3-4 6-7 8-2 2-5 3-9 4-4 2-8 2-12 2-4 0-7 0-10-1-3 0-6-1-9-3-3-1-5-2-7-4-3-1-4-3-6-5l11-13c2 4 5 6 8 8 3 2 7 3 11 3 4 0 7-1 9-3 3-1 4-4 4-8 0-3-1-6-4-9-3-2-8-3-13-3l-4 0 0-14 4 0c6 0 11-1 14-3 4-3 5-6 5-11 0-4-1-7-4-9z m44-6c4-4 9-7 14-10 6-2 12-3 18-3 9 0 18 3 26 11l0-11 14 0 0 48-33 0 0-13 19 0 0-7c-8-8-16-12-25-12-4 0-7 1-11 2-3 2-6 4-8 7-3 3-5 6-6 10-2 3-2 7-2 12 0 4 0 8 2 12 1 3 3 7 5 10 2 3 5 5 8 6 4 2 7 3 11 3 5 0 10-1 14-4 4-2 7-6 10-10l13 10c-3 6-8 11-14 14-6 4-13 6-22 6-7 0-13-1-18-4-6-2-10-6-14-10-5-4-8-9-10-15-2-5-3-11-3-18 0-6 1-13 3-18 2-6 5-11 9-16z m106 19l22 0c4 0 8 0 12 2 3 2 6 4 9 7 2 3 4 6 6 10 1 4 2 7 2 11 0 4-1 8-2 12-2 3-4 7-7 10-2 2-5 5-9 7-4 1-7 2-12 2l-39 0 0-93 18 0z m0 45l20 0c2 0 3 0 5-1 1 0 3-1 4-2 1-2 2-3 2-5 1-2 2-4 2-7 0-4-2-8-4-11-2-2-5-4-8-4l-21 0z"/>
<glyph glyph-name="7z" unicode="&#101;" d="M492 330l-74 0 0 71-118 111-280 0 0-512 398 0 0 70 74 0z m-43-218l-298 0 0 175 298 0z m-229 39l21 0 48 97-73 0 0-17 44 0z m164 17l-53 0 53 66 0 14-75 0 0-16 53 0-55-67 0-14 77 0z"/>
<glyph glyph-name="aif" unicode="&#102;" d="M491 335l-72 0 0 66-118 111-280 0 0-512 398 0 0 75 72 0 0 260z m-43-217l-299 0 0 174 299 0z m-220 69l32 0 9-23 18 0-35 93-16 0-35-93 18 0z m16 50l13-37-26 0z m54 20l18 0 0-93-18 0z m55-54l37 0 0 14-37 0 0 24 44 0 0 16-62 0 0-93 18 0z"/>
<glyph glyph-name="apk" unicode="&#103;" d="M491 338l-72 0 0 63-118 111-280 0 0-512 398 0 0 78 72 0z m-43-217l-298 0 0 174 298 0z m-248 70l32 0 8-23 18 0-34 91-16 0-35-91 18 0z m16 48l12-36-25 0z m70-40l21 0c4 0 8 0 12 2 3 2 6 4 9 7 2 3 4 6 6 10 1 3 2 7 2 11 0 3-1 7-3 11-1 3-3 7-6 9-2 3-5 6-9 7-3 2-7 3-11 3l-39 0 0-91 18 0z m0 44l19 0c2 0 4 0 5 0 2-1 3-2 4-3 1-2 2-3 3-5 0-2 1-4 1-6 0-5-1-8-4-11-2-3-5-4-8-4l-20 0z m80-48l11 12 28-39 20 0-37 51 35 40-19 0-38-43 0 43-18 0 0-91 18 0z"/>
<glyph glyph-name="ai" unicode="&#104;" d="M489 331l-68 0 0 70-118 111-280 0 0-512 398 0 0 71 68 0z m-42-217l-299 0 0 174 299 0z m-186 68l34 0 9-24 19 0-37 97-16 0-37-97 19 0z m17 52l13-38-27 0z m56 21l19 0 0-97-19 0z"/>
<glyph glyph-name="aac" unicode="&#105;" d="M491 335l-72 0 0 66-118 111-280 0 0-512 398 0 0 75 72 0z m-43-217l-298 0 0 174 298 0z m-250 70l32 0 8-23 18 0-34 91-16 0-35-91 19 0z m16 48l12-36-25 0z m70-48l32 0 8-23 18 0-34 91-16 0-35-91 19 0z m16 48l12-36-25 0z m56-57c4-5 8-8 14-11 5-3 11-4 17-4 4 0 8 1 12 1 4 1 7 3 11 5 3 1 6 4 9 6 2 3 4 6 6 9l-15 9c-1-3-2-5-4-7-1-2-3-3-5-4-2-1-4-2-7-3-2 0-4 0-6 0-4 0-8 1-11 2-3 2-6 4-8 7-3 3-4 6-6 10-1 4-2 7-2 11 0 4 1 8 2 11 1 4 3 7 5 10 2 3 5 5 8 7 3 2 7 3 12 3 2 0 4-1 6-1 2-1 4-1 6-2 2-1 4-3 6-4 1-2 3-4 4-7l14 9c-3 6-8 11-14 15-6 3-13 5-22 5-7 0-13-1-19-4-5-2-10-6-14-10-4-4-7-9-9-15-2-5-3-11-3-16 0-6 2-12 4-17 2-6 5-11 9-15z"/>
<glyph glyph-name="app" unicode="&#106;" d="M491 335l-72 0 0 66-118 111-280 0 0-512 398 0 0 75 72 0z m-42-217l-299 0 0 175 299 0z m-246 70l33 0 8-24 19 0-36 93-15 0-36-93 19 0z m17 49l12-37-26 0z m71-41l22 0c4 0 8 0 12 2 3 2 6 4 9 7 3 3 4 6 6 10 1 4 2 8 2 11 0 4-1 8-2 12-2 3-4 7-6 10-3 2-6 5-10 7-3 1-7 2-12 2l-39 0 0-93 18 0z m0 45l20 0c2 0 3 0 5-1 1 0 3-1 4-2 1-2 2-3 3-5 0-2 1-4 1-7 0-4-1-8-4-11-2-2-5-4-8-4l-21 0z m82-45l22 0c4 0 8 0 11 2 4 2 7 4 10 7 2 3 4 6 5 10 2 4 2 8 2 11 0 4 0 8-2 12-1 3-3 7-6 10-2 2-6 5-9 7-4 1-8 2-12 2l-39 0 0-93 18 0z m0 45l20 0c1 0 3 0 4-1 2 0 3-1 4-2 2-2 2-3 3-5 1-2 1-4 1-7 0-4-1-8-3-11-2-2-5-4-8-4l-21 0z"/>
<glyph glyph-name="asf" unicode="&#107;" d="M490 336l-70 0 0 65-118 111-280 0 0-512 398 0 0 76 70 0z m-43-217l-298 0 0 175 298 0z m-245 69l34 0 9-24 20 0-37 96-17 0-37-96 19 0z m17 51l14-38-28 0z m89-60c-4 0-8 1-11 2-4 1-7 2-10 3-3 1-6 3-8 4-2 1-3 2-4 3l-8-16c5-4 12-7 19-9 7-2 14-4 21-4 5 0 10 1 14 2 4 1 8 3 11 5 4 2 6 5 8 9 2 4 3 8 3 13 0 5-1 8-2 12-1 3-4 5-6 7-3 3-6 4-10 6-4 1-8 3-13 4-4 1-7 2-10 3-2 0-5 1-6 2-2 1-4 2-5 4-1 1-1 3-1 5 0 3 1 6 4 8 2 2 6 3 11 3 3 0 6-1 9-1 3-1 5-2 8-3 2-1 4-2 6-3 2-1 3-2 3-3l9 15c-5 3-10 6-15 8-6 2-12 3-19 3-5 0-10-1-14-2-4-1-8-3-11-6-3-2-6-5-8-9-2-4-2-8-2-13 0-4 0-7 1-10 1-3 3-5 5-7 3-2 5-4 9-5 3-2 7-3 12-5 4-1 7-2 10-3 3 0 6-1 8-3 2-1 4-2 5-3 2-2 2-4 2-6 0-6-5-10-15-10z m68 25l39 0 0 15-39 0 0 25 46 0 0 16-65 0 0-96 19 0z"/>
<glyph glyph-name="asp" unicode="&#108;" d="M491 335l-72 0 0 66-118 111-280 0 0-512 398 0 0 75 72 0 0 260z m-43-217l-298 0 0 175 298 0z m-244 70l33 0 8-24 19 0-35 93-16 0-36-93 19 0z m17 49l12-37-26 0z m84-57c-4 0-7 0-10 1-4 1-7 2-10 3-2 1-5 3-7 4-2 1-3 2-4 3l-8-16c5-3 11-6 18-8 7-3 14-4 21-4 4 0 9 1 13 2 4 1 8 2 11 5 3 2 6 5 7 8 2 4 3 8 3 13 0 4 0 8-2 11-1 3-3 5-6 7-2 2-6 4-9 6-4 1-8 2-13 3-3 1-6 2-9 3-3 1-5 2-6 3-2 1-4 2-4 3-1 1-2 3-2 5 0 3 1 6 4 7 2 2 6 3 11 3 3 0 6 0 8-1 3-1 5-1 8-2 2-1 4-2 6-4 1-1 2-1 3-2l8 15c-4 2-9 5-14 7-6 2-12 3-19 3-4 0-9-1-13-2-4-1-7-3-11-5-3-3-5-6-7-10-2-3-2-8-2-12 0-4 0-7 1-9 1-3 3-5 5-7 2-2 5-4 8-5 4-2 7-3 12-4 4-1 7-2 10-3 3-1 5-2 7-3 3-1 4-2 5-4 1-1 2-3 2-5 0-6-5-9-15-9z m66 16l22 0c4 0 8 0 12 2 3 2 6 4 9 7 2 3 4 6 6 10 1 4 2 8 2 11 0 4-1 8-2 12-2 3-4 7-7 10-2 2-5 5-9 7-4 1-8 2-12 2l-39 0 0-93 18 0z m0 45l20 0c2 0 3 0 5-1 1 0 3-1 4-2 1-2 2-3 2-5 1-2 1-4 1-7 0-4-1-8-3-11-2-2-5-4-8-4l-21 0z"/>
<glyph glyph-name="aspx" unicode="&#109;" d="M491 332l-72 0 0 69-118 111-280 0 0-512 398 0 0 72 72 0z m-42-217l-299 0 0 174 299 0 0-174z m-264 72l27 0 7-19 16 0-30 77-13 0-29-77 15 0z m14 41l10-30-21 0z m70-47c-3 0-6 0-9 1-3 0-5 1-8 2-2 1-4 2-6 3-1 1-3 2-3 3l-7-13c5-3 10-6 15-7 6-2 12-3 17-3 4 0 8 1 11 1 4 1 7 2 9 4 3 2 5 4 7 7 1 3 2 7 2 11 0 3-1 6-2 9-1 2-3 4-5 6-2 2-5 3-8 4-3 2-6 3-10 4-3 0-5 1-7 2-3 0-4 1-6 2-1 1-2 2-3 3-1 1-1 2-1 4 0 2 1 4 3 6 2 1 5 2 9 2 2 0 4 0 7-1 2 0 4-1 6-2 2-1 3-1 5-2 1-1 2-2 3-2l6 12c-3 2-7 4-12 6-4 1-9 2-15 2-4 0-7 0-11-1-3-1-6-3-8-5-3-2-5-4-6-7-2-3-3-7-3-11 0-3 1-5 2-7 1-3 2-4 4-6 2-2 4-3 7-4 2-1 5-3 9-4 3 0 6-1 8-2 3-1 5-1 7-2 1-1 3-2 4-3 1-2 1-3 1-5 0-5-4-7-12-7z m54 13l18 0c4 0 7 0 10 2 3 1 5 3 7 6 3 2 4 5 5 8 1 3 2 6 2 9 0 3-1 6-2 9-1 4-3 6-5 9-2 2-5 4-8 5-3 2-6 3-9 3l-33 0 0-77 15 0z m0 38l17 0c1 0 2-1 4-1 1-1 2-2 3-3 1-1 1-2 2-4 1-1 1-3 1-5 0-4-1-7-3-9-2-2-4-3-7-3l-17 0z m44-64l16 0 18 27 18-27 16 0-26 38 27 39-16 0-19-29-19 29-16 0 27-39z"/>
<glyph glyph-name="cgi" unicode="&#110;" d="M491 336l-72 0 0 65-118 111-280 0 0-512 398 0 0 76 72 0z m-43-218l-299 0 0 175 299 0z m-245 60c4-4 9-8 14-11 6-3 12-4 19-4 4 0 8 0 12 1 4 1 7 3 11 5 4 2 7 4 9 7 3 2 5 5 7 9l-15 9c-1-3-3-5-4-7-2-2-4-3-6-4-2-2-5-2-7-3-2 0-4-1-7-1-4 0-7 1-11 3-3 2-6 4-9 7-2 3-4 6-5 10-2 4-2 8-2 12 0 4 0 8 1 12 2 3 3 7 6 10 2 3 5 5 8 7 4 2 8 3 12 3 2 0 5 0 7-1 2 0 4-1 6-2 2-1 4-3 6-5 2-1 3-4 4-6l15 9c-3 7-8 12-15 15-6 4-14 6-22 6-8 0-14-1-20-4-6-3-11-6-15-11-4-4-7-9-9-15-2-6-3-11-3-17 0-6 1-12 3-18 3-6 6-11 10-16z m91-1c4-4 9-8 14-10 6-3 12-4 18-4 10 0 19 4 26 11l0-10 16 0 0 49-35 0 0-14 19 0 0-7c-7-8-15-13-24-13-5 0-8 1-12 3-3 2-6 4-9 7-2 2-4 6-5 10-2 4-3 8-3 12 0 4 1 9 2 12 2 4 3 8 6 11 2 2 5 5 8 6 4 2 7 3 11 3 6 0 10-1 15-4 4-2 7-6 10-11l13 11c-3 6-8 11-14 15-6 3-14 5-23 5-6 0-13-1-18-3-6-3-11-6-15-11-4-4-7-9-10-15-2-6-3-12-3-18 0-7 1-14 3-19 3-6 6-12 10-16z m89 82l19 0 0-95-19 0z"/>
<glyph glyph-name="cfm" unicode="&#111;" d="M491 338l-72 0 0 63-118 111-280 0 0-512 398 0 0 78 72 0z m-42-217l-299 0 0 174 299 0z m-267 62c4-5 9-8 14-11 5-2 11-4 17-4 4 0 7 1 11 2 4 1 7 2 11 4 3 1 6 4 9 6 2 3 4 6 6 9l-14 8c-1-2-3-4-4-6-2-2-4-3-6-4-2-1-4-2-6-3-2 0-4 0-6 0-4 0-8 0-11 2-3 2-6 4-8 7-2 2-4 6-5 9-2 4-2 8-2 12 0 3 0 7 1 10 1 4 3 7 5 10 2 2 5 5 8 6 3 2 7 3 11 3 2 0 5 0 7-1 2 0 4-1 6-2 2-1 3-2 5-4 2-2 3-4 4-6l14 9c-3 6-8 10-14 14-6 4-13 5-21 5-7 0-13-1-19-4-5-2-10-5-13-10-4-4-7-9-9-14-2-5-3-11-3-16 0-6 1-11 3-17 2-5 5-10 9-14z m97 23l35 0 0 14-35 0 0 23 42 0 0 15-60 0 0-89 18 0z m71 22l23-44 10 0 23 44 0-59 17 0 0 89-18 0-27-51-26 51-19 0 0-89 17 0z"/>
<glyph glyph-name="cfg" unicode="&#112;" d="M491 335l-72 0 0 66-118 111-280 0 0-512 398 0 0 75 72 0z m-43-217l-298 0 0 175 298 0z m-261 61c4-5 9-8 14-11 6-3 12-4 18-4 4 0 8 0 12 1 4 1 7 2 11 4 3 2 6 4 9 7 3 3 5 6 6 9l-14 9c-1-3-3-5-4-7-2-2-4-3-6-4-2-1-4-2-7-3-2 0-4 0-6 0-4 0-8 0-11 2-4 2-7 4-9 7-2 3-4 6-5 10-2 4-2 8-2 12 0 4 0 7 1 11 1 4 3 7 5 10 3 3 5 5 9 7 3 2 7 3 12 3 2 0 4 0 6-1 2 0 4-1 6-2 2-1 4-3 6-4 2-2 3-4 4-7l14 10c-3 6-8 10-14 14-6 4-13 6-22 6-7 0-14-2-19-4-6-3-11-6-15-11-4-4-7-9-9-15-2-5-3-11-3-16 0-6 1-12 4-18 2-6 5-11 9-15z m101 24l37 0 0 15-37 0 0 23 44 0 0 16-62 0 0-93 18 0z m62-26c4-4 9-7 14-10 5-2 11-3 17-3 10 0 19 3 26 11l0-11 15 0 0 48-34 0 0-13 19 0 0-7c-7-8-15-12-24-12-4 0-8 1-11 2-3 2-6 4-9 7-2 3-4 6-6 10-1 3-2 7-2 12 0 4 1 8 2 12 2 4 3 7 6 10 2 3 5 5 8 7 3 1 7 2 11 2 5 0 9-1 14-4 4-2 7-6 9-10l14 10c-3 6-8 11-14 14-6 4-14 6-23 6-6 0-12-1-17-4-6-2-11-6-15-10-4-4-7-9-9-15-3-5-4-11-4-18 0-6 1-13 4-18 2-6 5-11 9-16z"/>
<glyph glyph-name="cer" unicode="&#113;" d="M491 334l-71 0 0 67-119 111-280 0 0-512 399 0 0 75 71 0z m-43-217l-299 0 0 175 299 0z m-256 62c4-4 9-8 14-10 5-3 11-4 17-4 4 0 8 0 11 1 4 1 8 2 11 4 3 2 6 4 9 6 3 3 5 6 6 9l-14 8c-1-2-2-4-4-6-2-2-4-3-6-4-2-1-4-2-6-2-2-1-4-1-6-1-4 0-7 1-11 2-3 2-6 4-8 7-2 3-4 6-5 10-1 3-2 7-2 11 0 3 0 7 2 10 1 4 2 7 4 10 2 3 5 5 8 7 4 2 7 2 12 2 2 0 4 0 6 0 2-1 4-1 6-2 2-1 4-3 5-5 2-1 3-3 4-6l14 9c-3 6-8 11-14 14-6 4-13 6-21 6-7 0-13-2-18-4-6-3-10-6-14-10-4-5-7-9-9-15-2-5-3-10-3-16 0-5 1-11 4-16 2-6 5-11 8-15z m141 1l-44 0 0 24 37 0 0 14-37 0 0 21 43 0 0 15-60 0 0-89 61 0z m31 15l17 0 18-30 20 0-21 34c5 2 9 5 12 10 3 5 4 10 4 16 0 3 0 7-2 10-1 4-3 7-6 10-2 3-5 5-9 7-3 1-7 2-11 2l-39 0 0-89 17 0z m0 44l21 0c2 0 3 0 4-1 2-1 3-2 4-3 1-1 2-3 3-5 1-1 1-3 1-5 0-2 0-4-1-6 0-2-1-3-2-5-1-1-2-2-4-3-1 0-3-1-4-1l-22 0z"/>
<glyph glyph-name="cdr" unicode="&#114;" d="M491 331l-72 0 0 70-118 111-280 0 0-512 398 0 0 71 72 0z m-42-218l-299 0 0 175 299 0z m-266 62c4-5 9-8 14-11 6-3 12-4 18-4 4 0 8 0 11 1 4 1 8 2 11 4 4 2 7 4 9 7 3 2 5 5 7 9l-15 8c-1-2-2-4-4-6-2-2-4-3-6-4-2-2-4-2-6-3-2 0-4-1-6-1-4 0-8 1-11 3-3 2-6 4-9 7-2 3-4 6-5 10-1 3-2 7-2 11 0 4 1 7 2 11 1 4 2 7 5 10 2 3 5 5 8 7 3 1 7 2 11 2 2 0 5 0 7 0 2-1 4-2 6-3 2-1 4-2 5-4 2-2 3-4 5-6l13 9c-3 6-7 11-13 14-6 4-14 6-22 6-7 0-13-1-19-4-6-3-10-6-14-10-4-5-7-10-9-15-2-5-3-11-3-16 0-6 1-12 3-17 3-6 6-11 9-15z m133-11c5 2 10 5 14 9 4 4 7 9 9 14 2 6 3 12 3 19 0 6-1 12-3 18-1 5-4 10-8 14-4 4-8 7-14 10-6 2-12 3-20 3l-33 0 0-90 33 0c7 0 13 1 19 3z m-34 72l15 0c5 0 9-1 12-2 3-2 6-4 8-6 3-3 4-6 6-10 1-4 1-8 1-12 0-4 0-8-1-12-2-3-3-7-6-9-2-3-5-5-8-7-3-1-7-2-12-2l-15 0 0 60z m92-45l17 0 19-30 20 0-21 34c5 2 9 5 12 10 3 5 4 10 4 16 0 4-1 8-2 11-1 4-3 7-6 10-3 3-6 5-9 7-4 2-8 2-12 2l-40 0 0-90 18 0z m0 45l21 0c2 0 3 0 5-1 1-1 2-2 4-3 1-2 2-3 2-5 1-2 1-4 1-6 0-2 0-4 0-6-1-1-2-3-3-4-1-2-2-3-4-3-1-1-3-2-4-2l-22 0z"/>
<glyph glyph-name="cad" unicode="&#115;" d="M490 330l-70 0 0 71-118 111-280 0 0-512 398 0 0 70 70 0z m-43-217l-299 0 0 175 299 0z m-266 61c4-4 8-8 14-11 5-3 11-4 18-4 3 0 7 1 11 2 4 0 8 2 11 4 3 1 7 4 9 6 3 3 5 6 7 9l-15 9c-1-3-2-5-4-7-2-1-4-3-6-4-2-1-4-2-6-2-2-1-5-1-7-1-4 0-7 1-11 2-3 2-6 4-8 7-3 3-4 6-6 10-1 4-2 8-2 12 0 4 1 7 2 11 1 4 3 7 5 10 2 3 5 5 8 7 4 2 8 2 12 2 2 0 4 0 6 0 3-1 5-1 7-2 2-2 3-3 5-5 2-1 3-4 5-6l13 9c-3 6-7 11-14 15-6 3-13 5-21 5-8 0-14-1-20-4-5-2-10-6-14-10-4-5-7-9-9-15-2-5-3-11-3-17 0-5 1-11 4-17 2-5 5-11 9-15z m98 9l32 0 9-23 18 0-35 92-16 0-35-92 19 0z m16 48l13-36-26 0z m105-68c6 2 11 5 15 9 4 5 7 9 9 15 2 6 3 12 3 19 0 6-1 12-3 18-2 5-5 10-8 14-4 4-9 8-15 10-5 3-12 4-19 4l-34 0 0-92 34 0c7 0 13 1 18 3z m-34 73l16 0c4 0 8-1 11-2 4-2 7-4 9-6 2-3 4-6 5-10 1-4 2-8 2-12 0-4-1-8-2-12-1-4-3-7-5-10-2-2-5-5-9-6-3-2-7-2-11-2l-16 0z"/>
<glyph glyph-name="cab" unicode="&#116;" d="M491 334l-71 0 0 67-119 111-280 0 0-512 399 0 0 75 71 0z m-43-217l-299 0 0 175 299 0z m-260 62c4-4 8-8 13-10 6-3 11-4 18-4 3 0 7 0 11 1 3 1 7 2 10 4 4 2 7 4 9 6 3 3 5 6 6 9l-14 8c-1-2-2-4-4-6-2-2-3-3-5-4-2-1-4-2-7-2-2-1-4-1-6-1-4 0-7 1-10 2-4 2-6 4-9 7-2 3-4 6-5 10-1 3-2 7-2 11 0 3 1 7 2 10 1 4 3 7 5 10 2 3 4 5 8 7 3 2 7 2 11 2 2 0 4 0 6 0 2-1 4-1 6-2 2-1 4-3 5-5 2-1 4-3 5-6l13 9c-3 6-7 11-13 14-6 4-13 6-22 6-6 0-13-2-18-4-5-3-10-6-14-10-4-5-6-9-8-15-2-5-3-10-3-16 0-5 1-11 3-16 2-6 5-11 9-15z m95 8l31 0 8-22 18 0-34 89-15 0-34-89 18 0z m16 48l12-35-25 0z m105-68c3 1 6 2 9 4 3 2 5 4 6 7 2 3 2 6 2 10 0 6-1 11-4 15-3 4-7 6-12 8 4 2 7 5 9 8 2 4 4 8 4 13 0 2-1 5-2 8-1 2-2 5-4 7-2 2-4 4-6 5-3 1-6 2-9 2l-47 0 0-89 43 0c4 0 7 1 11 2z m-37 72l24 0c3 0 5-1 7-3 2-2 3-4 3-8 0-3-1-6-4-8-2-2-4-3-7-3l-23 0z m0-36l27 0c1 0 2 0 4-1 1 0 2-1 3-2 1-1 2-3 2-4 1-1 1-3 1-5 0-1 0-3-1-4-1-1-1-3-2-4-1-1-3-2-4-2-1-1-3-1-4-1l-26 0z"/>
<glyph glyph-name="bmp" unicode="&#117;" d="M491 331l-72 0 0 70-118 111-280 0 0-512 398 0 0 71 72 0z m-43-217l-298 0 0 174 298 0z m-217 51c3 1 6 2 9 4 2 2 4 4 6 7 1 3 2 6 2 10 0 5-2 10-4 13-3 4-7 7-12 8 4 2 7 5 9 8 2 4 3 8 3 12 0 2 0 5-1 8-1 2-2 5-4 7-2 2-4 3-6 5-2 1-5 1-8 1l-45 0 0-84 41 0c3 0 7 0 10 1z m-35 69l23 0c2 0 5-1 6-2 2-2 3-5 3-8 0-4-1-6-3-8-2-2-4-3-7-3l-22 0z m0-34l25 0c2 0 3 0 4-1 2-1 3-1 3-2 1-1 2-3 3-4 0-1 0-3 0-4 0-2 0-3-1-5 0-1-1-2-2-3-1-1-2-2-3-3-2 0-3 0-4 0l-25 0z m81 20l22-42 9 0 22 42 0-56 16 0 0 84-17 0-25-48-26 48-17 0 0-84 16 0z m104-28l20 0c4 0 7 1 10 2 4 2 7 4 9 7 2 2 4 5 5 9 1 3 2 7 2 10 0 4-1 7-2 10-1 4-3 7-6 10-2 2-5 4-8 6-3 2-7 2-11 2l-36 0 0-84 17 0z m0 42l18 0c1 0 3 0 4-1 2 0 3-1 4-3 1-1 2-2 2-4 1-2 1-4 1-6 0-4-1-7-3-10-2-2-4-3-7-3l-19 0z"/>
<glyph glyph-name="bin" unicode="&#118;" d="M491 335l-72 0 0 66-118 111-280 0 0-512 398 0 0 75 72 0z m-43-217l-299 0 0 175 299 0z m-196 48c3 1 7 3 9 5 3 2 5 4 7 7 1 3 2 6 2 10 0 6-1 12-4 16-4 4-8 6-13 8 4 2 8 5 10 9 2 4 3 8 3 13 0 3 0 5-1 8-1 3-3 6-4 8-2 2-5 4-7 5-3 2-6 2-9 2l-50 0 0-93 45 0c4 0 8 1 12 2z m-39 76l25 0c3 0 6-1 8-3 2-2 2-5 2-9 0-3-1-6-3-8-2-3-4-4-8-4l-24 0z m0-38l28 0c2 0 3 0 4-1 2 0 3-1 4-2 1-2 2-3 2-4 1-2 1-4 1-5 0-2 0-3-1-5-1-1-1-3-2-4-1-1-3-2-4-2-2-1-3-1-5-1l-27 0z m71 53l18 0 0-93-18 0z m56-33l48-60 14 0 0 93-18 0 0-61-48 61-14 0 0-93 18 0z"/>
<glyph glyph-name="bat" unicode="&#119;" d="M492 336l-74 0 0 65-118 111-280 0 0-512 398 0 0 76 74 0z m-43-217l-299 0 0 174 299 0z m-207 47c4 1 7 2 10 4 3 2 5 5 7 8 1 3 2 6 2 10 0 7-2 12-5 16-3 4-7 7-13 9 5 2 8 5 10 9 3 4 4 8 4 13 0 3-1 6-2 8-1 3-2 6-4 8-2 2-4 4-7 6-2 1-5 2-9 2l-51 0 0-95 46 0c5 0 8 0 12 2z m-39 77l25 0c3 0 6-1 8-3 2-2 3-5 3-9 0-4-1-6-4-9-2-2-4-3-7-3l-25 0z m0-38l28 0c2 0 3-1 5-1 1-1 2-2 3-3 1-1 2-3 3-4 0-2 0-3 0-5 0-2 0-3-1-5 0-1-1-3-2-4-1-1-2-2-4-2-1-1-3-1-5-1l-27 0z m89-17l33 0 9-24 19 0-36 95-17 0-36-95 19 0z m17 50l13-37-27 0z m67-74l19 0 0 79 30 0 0 16-79 0 0-16 30 0z"/>
<glyph glyph-name="avi" unicode="&#120;" d="M491 331l-71 0 0 70-119 111-280 0 0-512 399 0 0 72 71 0z m-43-217l-299 0 0 175 299 0z m-228 69l34 0 9-24 19 0-36 97-17 0-37-97 19 0z m17 51l14-38-28 0z m92-75l38 97-20 0-26-74-26 74-20 0 38-97z m48 97l19 0 0-97-19 0z"/>
<glyph glyph-name="asx" unicode="&#121;" d="M491 339l-71 0 0 62-119 111-280 0 0-512 399 0 0 80 71 0z m-43-217l-299 0 0 175 299 0z m-245 70l31 0 9-23 18 0-34 91-16 0-35-91 18 0z m16 48l12-35-25 0z m82-56c-3 0-6 1-10 2-3 0-6 1-9 3-3 1-5 2-7 3-2 2-3 3-4 3l-8-15c5-4 11-6 18-9 7-2 13-3 20-3 5 0 9 1 13 2 4 1 8 2 11 5 3 2 5 4 7 8 2 3 3 8 3 12 0 5-1 8-2 11-2 3-4 5-6 7-3 2-6 4-9 5-4 2-8 3-12 4-4 1-7 2-9 3-3 0-5 1-7 2-2 1-3 2-4 4-1 1-1 2-1 4 0 3 1 6 3 8 3 2 7 2 11 2 3 0 6 0 8-1 3 0 6-1 8-2 2-1 4-2 6-3 1-1 2-2 3-2l8 14c-4 3-9 5-14 7-6 2-12 3-18 3-5 0-9-1-13-2-4-1-8-3-11-5-3-3-5-6-7-9-1-4-2-8-2-13 0-3 0-6 1-9 1-2 3-4 5-6 2-2 5-4 8-5 3-2 7-3 11-4 4-1 7-2 10-3 3-1 6-2 8-3 2-1 3-2 4-3 1-2 2-3 2-5 0-7-5-10-15-10z m38-15l20 0 21 33 22-33 19 0-32 45 33 46-19 0-23-33-23 33-19 0 33-46z"/>
<glyph glyph-name="bak" unicode="&#122;" d="M491 330l-72 0 0 71-118 111-280 0 0-512 398 0 0 70 72 0z m-43-217l-298 0 0 174 298 0z m-213 49c3 1 6 2 9 4 3 2 5 5 6 7 2 3 3 7 3 11 0 5-2 10-5 14-3 4-7 7-12 9 4 2 7 4 9 8 3 4 4 8 4 13 0 3-1 5-2 8-1 3-2 5-4 8-2 2-4 4-6 5-3 1-6 2-9 2l-49 0 0-91 44 0c4 0 8 1 12 2z m-38 74l24 0c3 0 6-1 7-3 2-2 3-5 3-9 0-3-1-6-3-8-2-2-4-3-7-3l-24 0z m0-37l27 0c2 0 3 0 4-1 2-1 3-1 4-3 1-1 1-2 2-3 1-2 1-4 1-5 0-2-1-3-1-5-1-1-2-2-3-4-1-1-2-1-3-2-2-1-3-1-5-1l-26 0z m85-16l32 0 8-23 19 0-35 91-16 0-34-91 18 0z m16 48l13-36-26 0z m70-44l12 12 28-39 20 0-37 51 35 40-20 0-38-43 0 43-17 0 0-91 17 0z"/>
<glyph glyph-name="class" unicode="&#65;" d="M491 335l-72 0 0 66-118 111-280 0 0-512 398 0 0 75 72 0z m-42-218l-299 0 0 175 299 0z m-269 71c2-3 5-5 9-7 3-2 7-3 11-3 2 0 5 1 7 1 3 1 5 2 7 3 2 1 4 3 6 4 2 2 3 4 4 6l-9 5c-1-1-2-3-3-4-1-1-2-2-3-2-2-1-3-2-4-2-2 0-3-1-5-1-2 0-4 1-7 2-2 1-3 3-5 4-2 2-3 4-3 7-1 2-2 5-2 7 0 3 1 5 1 7 1 3 2 5 4 6 1 2 3 4 5 5 2 1 4 2 7 2 2 0 3 0 4-1 2 0 3-1 4-1 2-1 3-2 4-3 1-1 2-2 3-4l8 6c-2 4-5 7-8 9-4 3-9 4-14 4-5 0-9-1-13-3-3-1-6-4-9-6-2-3-4-6-5-10-2-3-2-7-2-10 0-4 0-8 2-11 1-4 3-7 6-10z m93 1l-30 0 0 48-11 0 0-58 41 0z m18 4l21 0 5-14 12 0-22 58-10 0-23-58 12 0z m11 31l8-23-17 0z m53-36c-2 0-4 1-7 1-2 1-4 1-5 2-2 1-4 2-5 3-1 0-2 1-3 2l-5-10c4-3 8-4 12-6 4-1 8-2 13-2 3 0 5 1 8 1 3 1 5 2 7 3 2 2 4 3 5 6 1 2 2 4 2 8 0 2-1 5-2 6-1 2-2 4-4 5-1 1-3 3-5 3-3 1-5 2-8 3-2 0-4 1-6 2-2 0-3 1-4 1-1 1-2 1-3 2 0 1-1 2-1 3 0 2 1 4 3 5 1 1 4 2 7 2 1 0 3 0 5-1 2 0 3-1 5-1 1-1 2-2 3-2 1-1 2-2 2-2l5 9c-2 2-5 4-9 5-3 1-7 2-11 2-3 0-6-1-8-1-3-1-5-2-7-4-2-1-4-3-5-6-1-2-1-5-1-8 0-2 0-4 1-5 0-2 1-3 3-5 1-1 3-2 5-3 2-1 4-2 7-2 3-1 5-2 6-2 2-1 4-1 5-2 2-1 3-1 3-2 1-1 1-2 1-4 0-4-3-6-9-6z m51 0c-3 0-5 1-7 1-2 1-4 1-6 2-2 1-3 2-4 3-2 0-3 1-3 2l-5-10c3-3 7-4 11-6 5-1 9-2 13-2 3 0 6 1 9 1 2 1 5 2 7 3 2 2 3 3 4 6 2 2 2 4 2 8 0 2 0 5-1 6-1 2-2 4-4 5-2 1-4 3-6 3-2 1-5 2-8 3-2 0-4 1-6 2-1 0-3 1-4 1-1 1-2 1-2 2-1 1-1 2-1 3 0 2 1 4 2 5 2 1 4 2 7 2 2 0 4 0 5-1 2 0 4-1 5-1 2-1 3-2 4-2 1-1 2-2 2-2l5 9c-3 2-6 4-9 5-4 1-7 2-11 2-3 0-6-1-9-1-2-1-5-2-7-4-2-1-3-3-4-6-1-2-2-5-2-8 0-2 1-4 1-5 1-2 2-3 3-5 2-1 3-2 5-3 3-1 5-2 8-2 2-1 4-2 6-2 2-1 4-1 5-2 1-1 2-1 3-2 1-1 1-2 1-4 0-4-3-6-9-6z"/>
<glyph glyph-name="cpl" unicode="&#66;" d="M490 336l-70 0 0 65-118 111-280 0 0-512 398 0 0 76 70 0 0 260z m-42-217l-299 0 0 174 299 0z m-259 60c5-5 9-9 15-12 6-2 12-4 19-4 3 0 7 1 11 2 4 1 8 2 12 4 3 2 6 4 9 7 3 3 5 6 7 9l-16 9c-1-3-2-5-4-7-2-2-4-3-6-4-2-1-4-2-6-3-3 0-5-1-7-1-4 0-8 1-11 3-4 2-7 4-9 7-2 3-4 7-6 10-1 4-2 8-2 13 0 3 1 7 2 11 1 4 3 7 5 10 2 3 5 5 9 7 3 2 7 3 12 3 2 0 4 0 6-1 3 0 5-1 7-2 2-1 4-2 6-4 1-2 3-4 4-7l14 10c-3 6-8 11-14 15-6 3-14 5-23 5-7 0-14-1-19-4-6-2-11-6-15-11-4-4-7-9-9-15-2-5-3-11-3-17 0-6 1-12 3-18 2-6 5-11 9-15z m103 17l23 0c4 0 8 1 12 2 4 2 7 5 9 8 3 2 5 6 6 10 2 3 2 7 2 11 0 4 0 8-2 12-1 4-3 7-6 10-3 3-6 5-10 7-3 2-7 3-12 3l-40 0 0-95 18 0z m0 47l21 0c2 0 3-1 5-1 1-1 3-2 4-3 1-2 2-3 3-5 0-2 1-4 1-7 0-4-1-8-4-11-2-3-5-4-8-4l-22 0z m132-63l-48 0 0 79-19 0 0-95 67 0z"/>
<glyph glyph-name="cpp" unicode="&#67;" d="M492 335l-73 0 0 66-119 111-280 0 0-512 399 0 0 75 73 0z m-43-217l-299 0 0 175 299 0z m-258 61c4-5 9-8 15-11 5-3 11-4 18-4 4 0 7 0 11 1 4 1 8 2 11 4 4 2 7 4 10 7 2 3 5 6 6 9l-15 9c-1-3-2-5-4-7-2-2-4-3-6-4-2-1-4-2-6-3-2 0-5 0-7 0-4 0-7 0-11 2-3 2-6 4-8 7-3 3-5 6-6 10-1 4-2 8-2 12 0 4 1 7 2 11 1 4 3 7 5 10 2 3 5 5 8 7 4 2 8 3 12 3 2 0 4 0 6-1 3 0 5-1 7-2 2-1 4-3 5-4 2-2 4-4 5-7l14 10c-3 6-8 10-14 14-6 4-14 6-22 6-8 0-14-2-20-4-5-3-10-6-14-11-4-4-7-9-9-15-2-5-3-11-3-16 0-6 1-12 3-18 2-6 5-11 9-15z m101 17l22 0c4 0 8 0 12 2 4 2 7 4 9 7 3 3 5 6 6 10 1 4 2 8 2 11 0 4-1 8-2 12-2 3-4 7-6 10-3 2-6 5-10 7-3 1-7 2-11 2l-40 0 0-93 18 0z m0 45l20 0c2 0 3 0 5-1 2 0 3-1 4-2 1-2 2-3 3-5 0-2 1-4 1-7 0-4-1-8-4-11-2-2-5-4-8-4l-21 0z m82-45l22 0c4 0 8 0 11 2 4 2 7 4 10 7 2 3 4 6 6 10 1 4 2 8 2 11 0 4-1 8-3 12-1 3-3 7-6 10-2 2-5 5-9 7-4 1-8 2-12 2l-39 0 0-93 18 0z m0 45l20 0c1 0 3 0 5-1 1 0 2-1 4-2 1-2 2-3 2-5 1-2 1-4 1-7 0-4-1-8-3-11-2-2-5-4-8-4l-21 0z"/>
<glyph glyph-name="crx" unicode="&#68;" d="M492 340l-74 0 0 61-118 111-280 0 0-512 398 0 0 80 74 0z m-43-217l-298 0 0 174 298 0z m-263 60c4-4 8-8 14-11 5-2 12-4 18-4 4 0 8 1 12 2 4 1 7 2 11 4 3 2 6 4 9 7 3 2 5 5 6 9l-14 8c-1-2-3-4-5-6-1-2-3-3-5-5-2-1-4-2-7-2-2-1-4-1-6-1-4 0-8 1-11 3-4 2-7 4-9 7-2 3-4 6-6 10-1 4-2 7-2 12 0 3 1 7 2 11 1 3 3 7 5 10 2 2 5 5 9 7 3 2 7 2 11 2 3 0 5 0 7 0 2-1 4-2 6-3 2-1 4-2 6-4 2-2 3-4 4-6l14 9c-3 6-8 11-14 15-6 4-13 5-22 5-7 0-14-1-19-4-6-2-11-6-15-10-4-5-7-10-9-15-2-6-3-11-3-17 0-6 1-12 4-17 2-6 5-11 9-16z m101 17l17 0 19-31 21 0-22 35c6 2 10 6 13 11 3 5 4 10 4 16 0 4-1 7-2 11-1 4-4 7-6 10-3 3-6 5-10 7-3 2-7 3-11 3l-41 0 0-93 18 0 0 31z m0 46l21 0c2 0 4 0 5-1 2-1 3-2 4-3 1-2 2-3 3-5 1-2 1-4 1-6 0-2 0-4-1-6-1-2-1-3-2-5-1-1-3-2-4-3-2-1-3-1-5-1l-22 0z m60-77l19 0 22 33 22-33 20 0-32 46 33 47-20 0-23-35-23 35-20 0 34-47z"/>
<glyph glyph-name="csr" unicode="&#69;" d="M489 335l-68 0 0 66-118 111-280 0 0-512 398 0 0 75 68 0z m-42-217l-299 0 0 174 299 0z m-259 61c4-5 8-8 14-11 5-3 11-4 18-4 3 0 7 1 11 1 4 1 7 3 11 5 3 1 6 4 9 6 2 3 4 6 6 9l-15 9c-1-3-2-5-4-7-1-2-3-3-5-4-2-1-4-2-7-3-2 0-4 0-6 0-4 0-7 1-11 2-3 2-6 4-8 7-3 3-4 6-6 10-1 4-2 7-2 11 0 4 1 8 2 11 1 4 3 7 5 10 2 3 5 5 8 7 4 2 7 3 12 3 2 0 4-1 6-1 2-1 4-1 6-2 2-1 4-3 6-4 1-2 3-4 4-7l14 9c-3 6-8 11-14 15-6 3-13 5-22 5-7 0-13-1-19-4-5-2-10-6-14-10-4-4-6-9-8-15-2-5-3-11-3-16 0-6 1-12 3-17 2-6 5-11 9-15z m113 1c-4 0-7 0-11 1-3 1-6 2-9 3-2 1-5 3-7 4-2 1-3 2-4 3l-8-15c5-4 11-7 18-9 7-2 14-3 20-3 5 0 9 0 13 1 4 1 8 3 11 5 3 2 5 5 7 8 2 4 3 8 3 13 0 4-1 8-2 10-1 3-3 6-6 8-2 2-5 4-9 5-4 1-8 3-12 4-4 1-7 1-9 2-3 1-5 2-7 3-1 1-3 2-4 3 0 1-1 3-1 5 0 3 1 5 4 7 2 2 6 3 11 3 2 0 5 0 8-1 2-1 5-2 7-3 2-1 4-2 6-3 1-1 2-1 3-2l8 14c-4 3-9 5-14 7-6 2-12 3-18 3-5 0-9 0-13-1-4-2-7-4-10-6-3-2-6-5-8-9-1-3-2-8-2-12 0-4 0-7 2-9 1-3 2-5 4-7 2-2 5-3 8-5 4-1 7-3 12-4 3-1 6-2 9-3 3 0 6-1 8-2 2-1 3-3 5-4 1-1 1-3 1-5 0-6-5-9-14-9z m64 15l17 0 19-30 20 0-21 34c5 2 9 6 12 10 3 5 4 11 4 17 0 3 0 7-2 10-1 4-3 7-6 10-2 3-5 5-9 7-3 2-7 3-12 3l-40 0 0-91 18 0z m0 45l21 0c2 0 3 0 5-1 1-1 3-2 4-3 1-1 2-3 3-5 0-1 1-3 1-5 0-3-1-4-1-6-1-2-2-4-3-5-1-1-2-2-3-3-2-1-3-1-5-1l-22 0z"/>
<glyph glyph-name="css" unicode="&#70;" d="M490 334l-70 0 0 67-118 111-280 0 0-512 398 0 0 74 70 0 0 260z m-43-217l-298 0 0 175 298 0z m-260 60c4-4 9-8 15-11 5-3 12-4 18-4 4 0 8 0 12 1 4 1 8 3 11 5 4 1 7 4 10 6 3 3 5 6 6 10l-15 9c-1-3-2-5-4-7-2-2-4-3-6-5-2-1-4-2-6-2-3-1-5-1-7-1-4 0-8 1-11 3-4 2-7 4-9 7-3 3-5 6-6 10-1 4-2 8-2 12 0 4 1 8 2 11 1 4 3 8 5 11 2 3 5 5 8 7 4 2 8 3 13 3 2 0 4-1 6-1 2-1 4-1 7-2 2-1 4-3 5-5 2-2 4-4 5-6l14 9c-3 6-8 11-14 15-7 4-14 6-23 6-7 0-14-1-20-4-5-3-10-7-14-11-4-4-7-9-10-15-2-6-3-12-3-17 0-6 1-12 4-18 2-6 5-11 9-16z m118 1c-4 0-7 1-11 1-3 1-6 2-9 4-3 1-6 2-8 4-2 1-3 2-4 3l-8-16c5-4 12-7 19-9 6-2 14-4 21-4 4 0 9 1 13 2 4 1 8 3 11 5 3 2 6 5 8 9 2 3 3 8 3 13 0 4-1 8-2 11-2 3-4 5-6 7-3 3-6 4-10 6-4 1-8 3-13 4-3 1-6 2-9 2-3 1-5 2-7 3-2 1-3 2-4 3-1 2-1 3-1 5 0 4 1 6 3 8 3 2 7 3 12 3 3 0 5 0 8-1 3-1 6-2 8-3 2-1 4-2 6-3 2-1 3-2 3-2l8 15c-4 2-9 5-14 7-6 2-12 3-19 3-4 0-9 0-13-2-4-1-8-3-11-5-3-3-6-6-8-10-1-4-2-8-2-13 0-3 0-6 1-9 1-3 3-5 5-7 3-2 5-4 9-5 3-2 7-3 12-4 3-1 7-2 10-3 3-1 5-2 7-3 3-1 4-3 5-4 2-1 2-3 2-5 0-7-5-10-15-10z m82 0c-4 0-7 1-11 1-3 1-6 2-9 4-3 1-6 2-8 4-2 1-3 2-4 3l-8-16c5-4 12-7 18-9 7-2 14-4 22-4 4 0 9 1 13 2 4 1 8 3 11 5 3 2 6 5 8 9 2 3 3 8 3 13 0 4-1 8-2 11-2 3-4 5-6 7-3 3-6 4-10 6-4 1-8 3-13 4-3 1-6 2-9 2-3 1-5 2-7 3-2 1-3 2-4 3-1 2-1 3-1 5 0 4 1 6 3 8 3 2 7 3 12 3 3 0 5 0 8-1 3-1 5-2 8-3 2-1 4-2 6-3 2-1 3-2 3-2l8 15c-4 2-9 5-14 7-6 2-12 3-19 3-5 0-9 0-13-2-4-1-8-3-11-5-3-3-6-6-8-10-1-4-2-8-2-13 0-3 0-6 1-9 1-3 3-5 5-7 3-2 5-4 9-5 3-2 7-3 12-4 3-1 7-2 10-3 3-1 5-2 7-3 3-1 4-3 5-4 2-1 2-3 2-5 0-7-5-10-15-10z"/>
<glyph glyph-name="csv" unicode="&#71;" d="M491 334l-72 0 0 67-118 111-280 0 0-512 398 0 0 75 72 0z m-43-217l-298 0 0 175 298 0z m-255 62c3-4 8-8 13-10 5-3 11-4 17-4 4 0 8 0 12 1 3 1 7 2 10 4 3 2 6 4 9 6 3 3 5 6 6 9l-14 8c-1-2-2-4-4-6-2-2-4-3-6-4-2-1-4-2-6-2-2-1-4-1-6-1-4 0-7 1-11 2-3 2-6 4-8 7-2 3-4 6-5 10-1 3-2 7-2 11 0 3 1 7 2 10 1 4 2 7 4 10 3 3 5 5 8 7 4 2 7 2 12 2 2 0 4 0 6 0 2-1 4-1 6-2 2-1 4-3 5-5 2-1 3-3 5-6l13 9c-3 6-8 11-14 14-6 4-13 6-21 6-7 0-13-2-18-4-6-3-10-6-14-10-4-5-7-9-9-15-2-5-3-10-3-16 0-5 2-11 4-16 2-6 5-11 9-15z m110 1c-4 0-7 0-10 1-4 1-7 2-9 3-3 1-5 3-7 4-2 1-3 2-4 3l-8-15c5-4 11-7 18-9 6-2 13-3 19-3 5 0 9 1 13 2 4 1 7 2 10 4 3 2 6 5 8 9 1 3 2 7 2 12 0 4 0 7-2 10-1 3-3 5-5 7-3 2-6 4-9 5-4 2-8 3-12 4-3 1-6 2-9 2-3 1-5 2-6 3-2 1-3 2-4 3-1 1-1 3-1 5 0 3 1 5 3 7 2 2 6 3 11 3 2 0 5-1 8-1 2-1 5-2 7-3 2-1 4-2 5-3 2-1 3-2 4-2l7 14c-4 3-8 5-14 7-5 2-11 3-17 3-4 0-8-1-12-2-4-1-8-3-11-5-3-3-5-6-7-9-1-4-2-8-2-12 0-4 0-6 1-9 1-2 3-5 5-6 2-2 5-4 8-5 3-2 7-3 11-4 3-1 7-2 9-3 3-1 6-2 8-3 2-1 3-2 4-3 1-1 2-3 2-5 0-6-5-9-14-9z m84-15l34 89-18 0-23-67-24 67-19 0 35-89z"/>
<glyph glyph-name="cue" unicode="&#72;" d="M490 335l-70 0 0 66-118 111-280 0 0-512 398 0 0 75 70 0z m-42-217l-299 0 0 175 299 0z m-266 61c4-5 9-8 14-11 6-3 12-4 18-4 4 0 8 0 12 1 4 1 7 2 11 4 3 2 6 4 9 7 3 3 5 6 6 9l-14 9c-1-3-3-5-5-7-1-2-3-3-5-4-2-1-4-2-7-3-2 0-4 0-6 0-4 0-8 0-11 2-4 2-7 4-9 7-2 3-4 6-6 10-1 4-1 8-1 12 0 4 0 7 1 11 1 4 3 7 5 10 2 3 5 5 9 7 3 2 7 3 11 3 3 0 5 0 7-1 2 0 4-1 6-2 2-1 4-3 6-4 2-2 3-4 4-7l14 10c-3 6-8 10-14 14-6 4-13 6-22 6-7 0-14-2-19-4-6-3-11-6-15-11-4-4-7-9-9-15-2-5-3-11-3-16 0-6 1-12 4-18 2-6 5-11 9-15z m90-1c4-4 8-8 13-10 5-3 12-4 19-4 7 0 13 1 18 3 6 3 10 6 13 10 3 5 6 9 7 15 2 6 3 12 3 18l0 47-18 0 0-47c0-4-1-8-1-11-1-4-2-7-4-10-2-3-4-5-7-7-3-1-7-2-11-2-4 0-8 1-11 2-3 2-5 4-7 7-2 3-3 6-4 10 0 3-1 7-1 11l0 47-18 0 0-47c0-6 1-12 2-17 2-6 4-11 7-15z m155 2l-46 0 0 24 39 0 0 15-39 0 0 22 45 0 0 16-63 0 0-93 64 0z"/>
<glyph glyph-name="cur" unicode="&#73;" d="M491 340l-72 0 0 61-118 111-280 0 0-512 398 0 0 80 72 0z m-42-217l-299 0 0 174 299 0z m-271 60c4-4 9-8 15-11 5-2 11-4 18-4 4 0 7 1 11 2 4 1 8 2 11 4 4 2 7 4 10 7 2 2 5 5 6 9l-15 8c-1-2-2-4-4-6-2-2-4-3-6-5-2-1-4-2-6-2-2-1-5-1-7-1-4 0-7 1-11 3-3 2-6 4-8 7-3 3-5 6-6 10-1 4-2 7-2 12 0 3 1 7 2 11 1 3 3 7 5 10 2 2 5 5 8 7 4 2 8 2 12 2 2 0 4 0 7 0 2-1 4-2 6-3 2-1 4-2 5-4 2-2 4-4 5-6l14 9c-3 6-8 11-14 15-6 4-14 5-22 5-8 0-14-1-20-4-5-2-10-6-14-10-4-5-7-10-9-15-2-6-3-11-3-17 0-6 1-12 3-17 2-6 6-11 9-16z m91-1c3-4 8-7 13-10 5-2 11-4 19-4 7 0 13 2 18 4 5 2 9 6 13 10 3 4 5 9 7 15 1 5 2 11 2 18l0 47-18 0 0-47c0-4 0-8-1-12-1-3-2-6-4-9-1-3-4-5-7-7-3-2-6-3-11-3-4 0-7 1-10 3-3 2-5 4-7 7-2 2-3 6-4 9-1 4-1 8-1 12l0 47-18 0 0-47c0-6 1-12 2-18 2-5 4-10 7-15z m108 18l18 0 19-31 20 0-21 35c5 2 10 6 13 11 3 5 4 10 4 16 0 4-1 7-2 11-2 4-4 7-6 10-3 3-6 5-10 7-3 2-7 3-12 3l-41 0 0-93 18 0z m0 46l22 0c2 0 3 0 5-1 1-1 3-2 4-3 1-2 2-3 3-5 0-2 1-4 1-6 0-2 0-4-1-6-1-2-2-3-3-5-1-1-2-2-3-3-2-1-3-1-5-1l-23 0z"/>
<glyph glyph-name="dat" unicode="&#74;" d="M491 335l-72 0 0 66-118 111-280 0 0-512 398 0 0 75 72 0z m-43-217l-298 0 0 174 298 0z m-211 50c6 2 11 5 15 9 4 4 7 9 9 15 2 5 3 12 3 19 0 6-1 12-3 18-2 5-5 10-8 14-4 5-9 8-15 10-6 3-12 4-20 4l-34 0 0-93 34 0c7 0 14 1 19 4z m-34 73l15 0c5 0 8 0 12-2 3-1 6-4 9-6 2-3 4-6 5-10 1-4 2-8 2-12 0-5-1-9-2-12-1-4-3-7-5-10-3-3-5-5-9-7-3-1-7-2-12-2l-15 0 0 61z m90-54l32 0 9-23 19 0-36 93-16 0-35-93 18 0z m16 50l13-37-26 0z m67-73l17 0 0 77 30 0 0 16-77 0 0-16 30 0z"/>
<glyph glyph-name="db" unicode="&#75;" d="M491 336l-72 0 0 65-118 111-280 0 0-512 398 0 0 76 72 0z m-43-217l-298 0 0 174 298 0z m-179 48c6 3 11 6 15 10 4 4 7 9 10 15 2 6 3 12 3 20 0 6-1 12-3 18-2 6-5 11-9 15-4 4-9 8-15 10-5 3-12 4-20 4l-34 0 0-95 34 0c7 0 14 1 19 3z m-35 76l16 0c4 0 8-1 12-3 4-1 6-3 9-6 2-3 4-6 5-10 2-4 2-8 2-12 0-5 0-9-2-13-1-4-3-7-5-10-2-3-5-5-9-6-3-2-7-3-12-3l-16 0z m135-77c4 1 7 2 10 4 3 2 5 5 6 8 2 3 3 6 3 10 0 7-2 12-5 16-3 4-7 7-13 9 5 2 8 5 10 9 3 4 4 8 4 13 0 3-1 6-2 8-1 3-2 6-4 8-2 2-4 4-7 6-3 1-6 2-9 2l-51 0 0-95 46 0c4 0 8 0 12 2z m-39 77l25 0c3 0 6-1 8-3 2-2 3-5 3-9 0-4-2-6-4-9-2-2-5-3-8-3l-24 0z m0-38l28 0c2 0 3-1 4-1 2-1 3-2 4-3 1-1 2-3 2-4 1-2 1-3 1-5 0-2 0-3-1-5 0-1-1-3-2-4-1-1-3-2-4-2-2-1-3-1-5-1l-27 0z"/>
<glyph glyph-name="dbf" unicode="&#76;" d="M492 335l-73 0 0 66-118 111-281 0 0-512 399 0 0 75 73 0 0 260z m-43-217l-299 0 0 174 299 0z m-213 50c5 2 10 5 14 9 4 4 7 9 9 15 2 5 3 12 3 18 0 7-1 13-3 18-1 6-4 10-8 14-4 5-8 8-14 10-6 3-12 4-20 4l-33 0 0-91 33 0c7 0 13 1 19 3z m-34 72l15 0c5 0 9 0 12-2 3-1 6-3 8-6 3-3 4-6 6-10 1-3 1-7 1-12 0-4 0-8-1-11-2-4-3-7-6-10-2-3-5-5-8-6-3-2-7-3-12-3l-15 0z m129-74c4 1 7 3 10 5 2 2 4 4 6 7 2 3 2 6 2 10 0 6-1 11-4 15-3 4-7 7-13 8 5 2 8 5 10 9 2 4 3 8 3 13 0 2 0 5-1 8-1 3-2 5-4 7-2 3-4 4-7 6-2 1-5 2-8 2l-49 0 0-91 44 0c4 0 8 0 11 1z m-37 75l24 0c3 0 5-1 7-3 2-2 3-5 3-9 0-3-1-6-3-8-2-2-5-3-8-3l-23 0z m0-37l27 0c1 0 3-1 4-1 1-1 2-2 3-3 1-1 2-2 3-4 0-1 0-3 0-4 0-2 0-4 0-5-1-1-2-3-3-4-1-1-2-2-3-2-2-1-3-1-5-1l-26 0z m87-2l36 0 0 15-36 0 0 23 43 0 0 16-61 0 0-91 18 0z"/>
<glyph glyph-name="exe" unicode="&#77;" d="M491 331l-71 0 0 70-119 111-280 0 0-512 399 0 0 71 71 0z m-43-217l-299 0 0 174 299 0z m-197 61l-48 0 0 25 40 0 0 15-40 0 0 23 47 0 0 16-65 0 0-95 66 0z m5-16l20 0 23 34 22-34 20 0-33 47 34 48-20 0-23-35-24 35-20 0 34-48z m162 16l-48 0 0 25 40 0 0 15-40 0 0 23 46 0 0 16-64 0 0-95 66 0z"/>
<glyph glyph-name="eps" unicode="&#78;" d="M491 331l-71 0 0 70-119 111-280 0 0-512 399 0 0 71 71 0z m-43-217l-299 0 0 174 299 0z m-195 62l-47 0 0 24 39 0 0 15-39 0 0 22 46 0 0 16-64 0 0-93 65 0z m32 15l22 0c4 0 8 1 12 3 3 2 6 4 9 7 2 3 4 6 6 10 1 3 2 7 2 11 0 4-1 8-2 11-2 4-4 7-7 10-2 3-5 6-9 7-4 2-8 3-12 3l-39 0 0-93 18 0 0 31z m0 46l20 0c2 0 3 0 5-1 1 0 3-1 4-3 1-1 2-3 2-5 1-1 1-4 1-6 0-5-1-8-3-11-2-3-5-4-8-4l-21 0z m96-62c-4 0-7 1-11 2-3 0-6 2-9 3-3 1-5 2-7 4-2 1-4 2-4 3l-8-16c5-4 11-7 18-9 7-2 14-3 21-3 4 0 8 1 13 2 4 1 7 2 11 4 3 3 5 5 7 9 2 3 3 8 3 13 0 4-1 8-2 10-2 3-4 6-6 8-3 2-6 4-10 5-3 2-7 3-12 4-3 1-6 2-9 3-3 0-5 1-7 2-1 1-3 2-4 4-1 1-1 2-1 4 0 4 1 6 4 8 2 2 6 3 11 3 2 0 5-1 8-1 3-1 5-2 7-3 3-1 5-2 6-3 2-1 3-2 4-2l8 14c-4 3-9 6-15 8-5 2-11 3-18 3-5 0-9-1-13-2-4-2-8-3-11-6-3-2-5-5-7-9-2-4-3-8-3-13 0-3 1-6 2-9 1-2 3-5 5-7 2-2 5-3 8-5 3-1 7-2 12-4 3-1 7-2 10-3 3 0 5-1 7-2 2-1 4-3 5-4 1-1 2-3 2-5 0-7-5-10-15-10z"/>
<glyph glyph-name="dds" unicode="&#79;" d="M491 334l-72 0 0 67-118 111-280 0 0-512 398 0 0 74 72 0z m-43-217l-299 0 0 175 299 0z m-218 51c6 2 10 5 14 9 4 4 7 9 9 14 2 6 3 12 3 19 0 6-1 11-3 17-1 5-4 10-8 14-3 4-8 7-14 9-5 3-11 4-19 4l-32 0 0-89 32 0c7 0 13 1 18 3z m-33 71l15 0c5 0 8-1 12-2 3-2 6-4 8-6 2-3 4-6 5-10 1-3 2-7 2-11 0-5-1-8-2-12-1-4-3-7-5-9-2-3-5-5-8-7-4-1-7-2-12-2l-15 0z m123-71c5 2 10 5 14 9 4 4 7 9 9 14 2 6 3 12 3 19 0 6-1 11-3 17-2 5-5 10-8 14-4 4-8 7-14 9-5 3-12 4-19 4l-32 0 0-89 32 0c7 0 13 1 18 3z m-33 71l15 0c4 0 8-1 11-2 3-2 6-4 9-6 2-3 3-6 5-10 1-3 1-7 1-11 0-5 0-8-1-12-2-4-3-7-5-9-3-3-5-5-9-7-3-1-7-2-11-2l-15 0z m103-59c-3 0-6 0-10 1-3 1-6 2-9 3-2 1-5 2-6 4-2 1-4 2-5 3l-7-15c5-4 11-7 17-9 7-2 13-3 20-3 4 0 9 1 13 2 4 0 7 2 10 4 3 2 6 5 7 8 2 4 3 8 3 13 0 4-1 7-2 10-1 3-3 5-6 7-2 2-5 4-9 5-3 1-7 3-12 4-3 1-6 1-8 2-3 1-5 2-7 3-1 1-3 2-3 3-1 1-2 3-2 4 0 4 1 6 4 8 2 2 6 2 10 2 3 0 6 0 8-1 3 0 5-1 7-2 3-1 5-2 6-3 2-1 3-2 3-2l8 14c-4 2-9 5-14 7-5 2-11 3-17 3-5 0-9-1-13-2-4-1-7-3-10-6-3-2-5-5-7-8-2-4-3-8-3-12 0-4 1-7 2-9 1-3 3-5 5-7 2-2 4-3 8-5 3-1 6-2 11-3 3-1 6-2 9-3 3-1 5-2 7-3 2-1 4-2 5-3 1-2 2-3 2-5 0-6-5-9-15-9z"/>
<glyph glyph-name="elf" unicode="&#80;" d="M491 336l-72 0 0 65-118 111-280 0 0-512 398 0 0 76 72 0z m-43-217l-298 0 0 175 298 0z m-190 61l-49 0 0 25 41 0 0 16-41 0 0 23 48 0 0 16-67 0 0-96 68 0z m83 0l-50 0 0 80-18 0 0-96 68 0z m30 24l39 0 0 15-39 0 0 25 46 0 0 16-65 0 0-96 19 0z"/>
<glyph glyph-name="dxf" unicode="&#81;" d="M490 336l-70 0 0 65-118 111-280 0 0-512 398 0 0 76 70 0 0 260z m-42-218l-299 0 0 175 299 0z m-212 49c6 2 11 6 15 10 4 4 7 9 10 15 2 6 3 12 3 19 0 7-1 13-3 19-2 5-5 10-9 15-4 4-9 7-15 10-5 2-12 4-20 4l-34 0 0-95 34 0c7 0 14 1 19 3z m-35 76l16 0c4 0 8-1 12-3 3-1 6-3 9-6 2-3 4-6 5-10 2-4 2-8 2-13 0-4 0-8-2-12-1-4-3-7-5-10-2-3-5-5-9-7-3-1-7-2-12-2l-16 0z m64-79l20 0 22 34 23-34 20 0-33 47 34 48-20 0-24-36-23 36-20 0 33-48z m114 39l37 0 0 15-37 0 0 25 45 0 0 16-64 0 0-95 19 0z"/>
<glyph glyph-name="dwg" unicode="&#82;" d="M491 330l-72 0 0 71-118 111-280 0 0-512 398 0 0 70 72 0z m-43-217l-298 0 0 174 298 0z m-234 54c5 2 9 5 13 9 3 3 6 7 8 12 2 5 2 11 2 17 0 6 0 11-2 16-2 5-4 9-8 12-3 4-7 7-12 9-5 2-11 3-17 3l-30 0 0-80 30 0c6 0 11 1 16 2z m-30 65l14 0c3 0 7-1 10-2 3-2 5-3 7-6 2-2 4-5 5-8 1-4 2-7 2-11 0-4-1-7-2-11-1-3-3-6-5-8-2-2-4-4-7-6-3-1-6-2-10-2l-14 0z m100-67l14 33 14-33 14 0 33 80-18 0-22-62-11 25 14 37-14 0-10-27-9 27-14 0 13-37-10-25-23 62-16 0 32-80z m86 11c4-4 8-7 12-9 5-2 10-3 15-3 9 0 17 3 23 10l0-9 13 0 0 41-29 0 0-11 16 0 0-6c-6-7-13-11-21-11-4 0-7 1-10 2-3 1-5 3-7 6-2 2-4 5-5 8-1 4-2 7-2 11 0 4 0 7 2 10 1 4 2 6 4 9 2 2 5 4 8 6 2 1 5 2 9 2 4 0 8-1 12-3 4-2 6-5 9-9l11 8c-3 6-7 10-12 13-5 3-12 5-20 5-5 0-10-1-15-3-5-3-9-5-13-9-3-4-6-8-8-13-2-5-3-10-3-16 0-5 1-11 3-16 2-5 5-9 8-13z"/>
<glyph glyph-name="dtd" unicode="&#83;" d="M490 335l-70 0 0 66-118 111-280 0 0-512 398 0 0 75 70 0z m-43-217l-298 0 0 175 298 0z m-219 50c6 2 11 5 15 9 4 4 7 9 9 15 2 6 3 12 3 19 0 6-1 12-3 18-1 6-4 11-8 15-4 4-9 7-15 10-5 2-12 3-19 3l-34 0 0-93 34 0c7 0 13 2 18 4z m-34 73l16 0c4 0 8 0 11-2 4-1 7-3 9-6 2-3 4-6 5-10 2-3 2-8 2-12 0-4 0-8-2-12-1-4-3-7-5-10-2-3-5-5-9-6-3-2-7-3-11-3l-16 0 0 61z m93-77l18 0 0 77 30 0 0 16-78 0 0-16 30 0z m112 4c5 2 10 5 14 9 4 4 7 9 9 15 3 6 4 12 4 19 0 6-1 12-3 18-2 6-5 11-9 15-4 4-8 7-14 10-6 2-13 3-20 3l-34 0 0-93 34 0c7 0 13 2 19 4z m-35 73l16 0c4 0 8 0 12-2 3-1 6-3 8-6 3-3 4-6 6-10 1-3 1-8 1-12 0-4 0-8-1-12-2-4-3-7-6-10-2-3-5-5-8-6-4-2-8-3-12-3l-16 0z"/>
<glyph glyph-name="drv" unicode="&#84;" d="M491 341l-72 0 0 60-118 111-280 0 0-512 398 0 0 81 72 0z m-42-217l-299 0 0 175 299 0z m-219 51c5 2 10 5 14 9 4 4 7 9 9 14 2 6 3 12 3 19 0 6-1 12-3 17-2 6-4 11-8 15-4 4-9 7-14 10-6 2-12 3-20 3l-33 0 0-91 33 0c7 0 13 1 19 4z m-34 72l15 0c5 0 8-1 12-2 3-2 6-4 8-7 3-2 4-5 6-9 1-4 1-8 1-12 0-4 0-8-1-12-2-4-3-7-6-10-2-2-5-4-8-6-3-1-7-2-12-2l-15 0z m92-45l17 0 19-31 19 0-20 35c5 2 9 5 12 10 3 5 4 10 4 16 0 4-1 7-2 11-2 4-4 7-6 10-3 3-6 5-9 7-4 1-8 2-12 2l-40 0 0-91 18 0z m0 45l21 0c2 0 3-1 5-1 1-1 2-2 3-3 2-2 3-3 3-5 1-2 1-4 1-6 0-2 0-4-1-6 0-2-1-3-2-4-1-2-2-3-4-4-1 0-3-1-4-1l-22 0z m106-76l36 91-19 0-24-69-25 69-18 0 35-91z"/>
<glyph glyph-name="docx" unicode="&#85;" d="M490 331l-70 0 0 70-118 111-280 0 0-512 398 0 0 71 70 0z m-43-217l-298 0 0 174 298 0z m-241 58c4 2 8 5 11 8 3 3 5 6 7 11 2 4 2 9 2 14 0 5 0 10-2 14-1 4-3 8-6 11-3 3-7 6-11 8-5 2-10 3-15 3l-26 0 0-71 26 0c5 0 10 1 14 2z m-26 57l12 0c3 0 6-1 8-2 3-1 5-3 7-5 2-2 3-4 4-7 1-3 2-6 2-10 0-3-1-6-2-9-1-3-2-5-4-7-2-2-4-4-6-5-3-1-6-2-9-2l-12 0z m62-49c3-3 7-6 11-8 4-2 9-3 14-3 5 0 10 1 14 3 4 2 8 5 11 8 3 3 6 7 7 12 2 4 3 8 3 13 0 4-1 9-3 13-1 4-4 8-7 12-3 3-6 6-10 8-5 2-9 3-14 3-5 0-10-1-14-3-4-2-8-4-11-8-3-3-6-7-7-11-2-5-3-9-3-14 0-4 1-9 2-13 2-4 4-8 7-12z m6 34c1 3 2 5 4 7 2 3 4 4 7 6 2 1 5 2 8 2 4 0 6-1 9-2 3-1 5-3 7-5 1-3 3-5 4-8 1-3 1-6 1-9 0-3 0-6-1-8-1-3-3-6-4-8-2-2-4-4-7-5-2-2-5-2-9-2-3 0-6 0-8 2-3 1-5 3-7 5-2 2-3 5-4 7-1 3-1 6-1 9 0 3 0 6 1 9z m70-33c3-4 6-6 11-9 4-2 8-3 13-3 3 0 6 1 9 1 3 1 6 2 9 4 2 1 5 3 7 5 2 2 3 4 4 7l-11 6c-1-2-2-3-3-5-1-1-3-2-4-3-2-1-4-2-5-2-2 0-4-1-5-1-3 0-6 1-9 2-2 2-4 4-6 6-2 2-3 4-4 7-1 3-2 6-2 9 0 3 1 6 1 9 1 3 3 5 4 7 2 3 4 4 7 6 2 1 5 2 9 2 1 0 3 0 4-1 2 0 4-1 5-1 2-1 3-2 5-4 1-1 2-3 3-5l10 8c-2 4-5 8-10 11-5 3-11 4-17 4-6 0-10-1-15-3-4-2-8-5-11-8-3-3-5-7-7-11-1-5-2-9-2-13 0-5 1-9 3-14 1-4 4-8 7-11z m55-11l15 0 17 25 17-25 15 0-25 35 25 36-14 0-18-27-18 27-14 0 25-36z"/>
<glyph glyph-name="doc" unicode="&#86;" d="M491 334l-71 0 0 67-119 111-280 0 0-512 399 0 0 75 71 0z m-43-217l-299 0 0 175 299 0z m-225 51c6 3 10 6 14 10 4 3 7 8 9 14 2 5 3 11 3 18 0 6-1 12-3 17-2 5-4 10-8 14-4 4-8 7-14 10-5 2-12 3-19 3l-32 0 0-89 32 0c7 0 13 1 18 3z m-33 71l15 0c4 0 8-1 11-2 4-2 6-4 9-6 2-3 4-6 5-9 1-4 2-8 2-12 0-4-1-8-2-12-1-3-3-6-5-9-2-3-5-5-8-6-4-2-8-3-12-3l-15 0 0 59z m79-60c4-5 8-8 14-11 5-2 11-3 17-3 7 0 12 1 18 3 5 3 10 6 14 10 3 4 6 9 9 15 2 5 3 11 3 16 0 6-1 12-3 17-2 5-5 10-9 15-4 4-8 7-14 10-5 2-11 4-17 4-6 0-12-1-18-4-5-2-10-6-13-10-4-4-7-9-10-14-2-6-3-11-3-17 0-6 1-11 3-17 2-5 5-10 9-14z m7 42c1 3 3 6 5 9 2 3 5 5 8 7 4 2 7 2 12 2 4 0 7 0 10-2 4-2 6-4 9-7 2-2 3-6 5-9 1-4 1-7 1-11 0-4 0-8-1-11-1-4-3-7-5-10-2-3-5-5-8-6-4-2-7-3-11-3-5 0-8 1-11 2-4 2-6 4-9 7-2 3-3 6-5 10-1 3-1 7-1 11 0 3 0 7 1 11z m88-42c4-4 8-8 13-10 6-3 11-4 18-4 3 0 7 0 11 1 4 1 7 2 10 4 4 2 7 4 9 6 3 3 5 6 6 9l-14 8c-1-2-2-4-4-6-1-2-3-3-5-4-2-1-4-2-6-2-3-1-5-1-7-1-4 0-7 1-10 2-3 2-6 4-9 7-2 3-4 6-5 10-1 3-2 7-2 11 0 3 1 7 2 10 1 4 3 7 5 10 2 3 5 5 8 7 3 2 7 2 11 2 2 0 4 0 6 0 2-1 4-1 6-2 2-1 4-3 6-5 1-1 3-3 4-6l13 9c-3 6-7 11-13 14-6 4-13 6-21 6-7 0-14-2-19-4-5-3-10-6-14-10-4-5-6-9-8-15-2-5-3-10-3-16 0-5 1-11 3-16 2-6 5-11 9-15z"/>
<glyph glyph-name="dmp" unicode="&#87;" d="M491 334l-71 0 0 67-119 111-280 0 0-512 399 0 0 75 71 0z m-43-217l-299 0 0 175 299 0z m-226 51c5 3 10 6 14 10 3 3 6 8 8 14 2 5 3 11 3 18 0 6 0 12-2 17-2 5-5 10-9 14-3 4-8 7-13 10-6 2-12 3-19 3l-33 0 0-89 33 0c6 0 12 1 18 3z m-33 71l15 0c4 0 8-1 11-2 3-2 6-4 8-6 2-3 4-6 5-9 2-4 2-8 2-12 0-4 0-8-2-12-1-3-3-6-5-9-2-3-5-5-8-6-3-2-7-3-11-3l-15 0z m89-15l23-44 10 0 22 44 0-59 18 0 0 89-19 0-26-50-26 50-19 0 0-89 17 0z m109-29l21 0c4 0 7 1 11 3 3 1 6 3 9 6 2 3 4 6 5 10 2 3 2 7 2 11 0 3 0 7-2 10-1 4-3 7-6 10-2 3-5 5-9 7-3 1-7 2-11 2l-38 0 0-89 18 0z m0 44l19 0c1 0 3 0 4-1 2-1 3-1 4-3 1-1 2-3 3-4 0-2 1-4 1-6 0-5-1-8-4-11-2-2-4-4-7-4l-20 0z"/>
<glyph glyph-name="dmg" unicode="&#88;" d="M491 338l-72 0 0 63-118 111-280 0 0-512 398 0 0 78 72 0z m-43-217l-298 0 0 174 298 0z m-228 54c5 2 9 4 13 8 4 4 6 8 8 13 2 5 3 11 3 17 0 6-1 11-3 16-1 5-4 10-7 13-4 4-8 7-13 9-5 2-11 3-18 3l-30 0 0-82 30 0c6 0 12 1 17 3z m-31 65l14 0c4 0 8 0 11-2 3-1 5-3 7-5 3-3 4-6 5-9 1-3 2-7 2-11 0-4-1-7-2-11-1-3-2-6-5-8-2-3-4-5-7-6-3-2-7-2-11-2l-14 0z m84-14l21-40 9 0 21 40 0-54 16 0 0 82-17 0-25-47-24 47-17 0 0-82 16 0z m91-43c4-3 8-6 13-9 4-2 9-3 15-3 9 0 16 3 23 10l0-9 13 0 0 42-30 0 0-12 17 0 0-5c-6-8-14-12-22-12-3 0-6 1-9 2-3 2-6 4-8 6-2 3-4 6-5 9-2 4-2 7-2 11 0 4 0 7 2 11 1 3 2 6 4 9 2 2 5 4 8 6 3 1 6 2 9 2 5 0 9-1 13-3 3-3 6-6 8-10l12 9c-2 5-6 10-12 13-6 3-12 5-20 5-6 0-11-1-16-3-5-2-9-5-13-9-3-4-6-8-8-13-2-5-3-11-3-16 0-6 1-12 3-17 2-5 5-10 8-14z"/>
<glyph glyph-name="dll" unicode="&#89;" d="M490 336l-70 0 0 65-118 111-280 0 0-512 398 0 0 76 70 0 0 260z m-42-217l-299 0 0 174 299 0z m-211 48c5 3 10 6 14 10 5 4 8 9 10 15 2 6 3 12 3 20 0 6-1 12-3 18-2 6-5 11-9 15-3 4-8 8-14 10-6 3-13 4-21 4l-34 0 0-95 34 0c8 0 14 1 20 3z m-36 76l16 0c5 0 9-1 12-3 4-1 7-3 9-6 3-3 4-6 6-10 1-4 2-8 2-12 0-5-1-9-2-13-2-4-3-7-6-10-2-3-5-5-9-6-3-2-7-3-12-3l-16 0z m144-63l-48 0 0 79-18 0 0-95 66 0z m79 0l-49 0 0 79-18 0 0-95 67 0z"/>
<glyph glyph-name="dem" unicode="&#90;" d="M491 335l-72 0 0 66-118 111-280 0 0-512 398 0 0 75 72 0z m-43-217l-298 0 0 175 298 0z m-229 50c5 2 10 5 14 9 4 4 7 9 9 15 2 6 3 12 3 19 0 6-1 12-2 18-2 6-5 11-9 15-4 4-9 7-14 10-6 2-13 3-20 3l-34 0 0-93 34 0c7 0 13 2 19 4z m-35 73l16 0c4 0 8 0 11-2 4-1 7-3 9-6 2-3 4-6 5-10 2-3 2-8 2-12 0-4 0-8-2-12-1-4-3-7-5-10-2-3-5-5-9-6-3-2-7-3-11-3l-16 0z m140-61l-46 0 0 24 39 0 0 15-39 0 0 22 45 0 0 16-63 0 0-93 64 0z m32 46l24-46 10 0 24 46 0-62 18 0 0 93-19 0-28-53-27 53-20 0 0-93 18 0z"/>
<glyph glyph-name="fla" unicode="&#48;" d="M491 336l-72 0 0 65-118 111-280 0 0-512 398 0 0 76 72 0z m-43-217l-298 0 0 174 298 0z m-243 84l38 0 0 15-38 0 0 25 46 0 0 16-64 0 0-95 18 0z m125-23l-48 0 0 79-18 0 0-95 66 0z m30 8l33 0 9-24 19 0-36 95-16 0-37-95 19 0z m17 50l13-37-27 0z"/>
<glyph glyph-name="flash" unicode="&#49;" d="M492 335l-73 0 0 66-119 111-280 0 0-512 399 0 0 75 73 0 0 260z m-43-218l-299 0 0 175 299 0z m-263 86l23 0 0 9-23 0 0 15 28 0 0 10-39 0 0-58 11 0z m77-14l-29 0 0 48-12 0 0-58 41 0z m19 4l20 0 6-14 11 0-22 58-10 0-22-58 11 0z m10 32l8-24-16 0z m53-37c-2 0-4 1-6 1-2 1-4 2-6 2-2 1-3 2-5 3-1 0-2 1-2 2l-5-10c3-3 7-4 11-6 4-1 9-2 13-2 3 0 6 1 8 1 3 1 5 2 7 3 2 2 4 3 5 6 1 2 2 4 2 8 0 2-1 5-1 6-1 2-3 4-4 5-2 1-4 3-6 3-3 1-5 2-8 3-2 1-4 1-6 2-1 0-3 1-4 1-1 1-2 1-2 2-1 1-1 2-1 3 0 2 0 4 2 5 1 1 4 2 7 2 2 0 3 0 5-1 2 0 3-1 5-1 1-1 3-2 4-2 1-1 1-2 2-2l5 9c-3 2-6 4-9 5-4 1-8 2-12 2-3 0-5-1-8-1-3-1-5-2-7-4-2-1-3-3-4-6-2-2-2-5-2-8 0-2 0-4 1-5 1-2 2-3 3-5 1-1 3-2 5-3 2-1 5-2 8-2 2-1 4-2 6-2 2-1 3-1 5-2 1-1 2-1 3-2 0-1 1-2 1-4 0-4-3-6-10-6z m42 16l26 0 0-25 12 0 0 58-12 0 0-23-26 0 0 23-12 0 0-58 12 0z"/>
<glyph glyph-name="flv" unicode="&#50;" d="M491 331l-71 0 0 70-119 111-280 0 0-512 399 0 0 72 71 0z m-43-217l-299 0 0 175 299 0z m-236 85l38 0 0 15-38 0 0 24 45 0 0 17-63 0 0-95 18 0z m125-23l-48 0 0 79-19 0 0-95 67 0z m40-16l37 95-20 0-25-72-26 72-19 0 37-95z"/>
<glyph glyph-name="fnt" unicode="&#51;" d="M491 335l-71 0 0 66-118 111-281 0 0-512 399 0 0 75 71 0z m-43-217l-299 0 0 175 299 0z m-249 85l37 0 0 15-37 0 0 23 45 0 0 16-63 0 0-93 18 0z m75 21l48-60 15 0 0 93-18 0 0-61-49 61-14 0 0-93 18 0z m104-60l18 0 0 77 30 0 0 16-78 0 0-16 30 0z"/>
<glyph glyph-name="fon" unicode="&#52;" d="M491 335l-72 0 0 66-118 111-280 0 0-512 398 0 0 75 72 0z m-43-217l-298 0 0 175 298 0z m-257 85l37 0 0 15-37 0 0 23 44 0 0 16-62 0 0-93 18 0z m62-25c4-4 8-8 14-10 6-3 12-4 19-4 6 0 12 1 18 4 5 2 10 6 14 10 4 4 7 9 10 15 2 5 3 11 3 18 0 5-1 11-3 17-3 6-6 11-9 15-4 4-9 8-15 11-5 3-11 4-18 4-7 0-13-1-18-4-6-2-11-6-15-10-4-5-7-10-9-15-3-6-4-12-4-18 0-6 1-12 4-18 2-5 5-10 9-15z m7 44c2 4 3 7 6 10 2 3 5 5 8 7 3 2 7 3 12 3 4 0 8-1 11-3 3-1 6-4 8-7 3-2 5-6 6-9 1-4 2-8 2-12 0-4-1-8-2-11-1-4-3-8-5-10-3-3-5-6-9-8-3-1-7-2-11-2-5 0-8 1-12 2-3 2-6 4-8 7-3 3-4 6-6 10-1 4-1 8-1 12 0 4 0 7 1 11z m103 2l48-60 14 0 0 93-18 0 0-61-48 61-14 0 0-93 18 0z"/>
<glyph glyph-name="gam" unicode="&#53;" d="M491 334l-72 0 0 67-118 111-280 0 0-512 398 0 0 74 72 0z m-43-218l-298 0 0 175 298 0 0-175z m-269 62c4-4 8-7 13-9 5-2 10-3 16-3 9 0 17 3 24 10l0-10 13 0 0 44-31 0 0-12 18 0 0-6c-7-8-15-12-23-12-3 0-7 1-10 2-3 2-5 4-8 6-2 3-4 6-5 9-1 4-2 8-2 12 0 3 1 7 2 10 1 4 3 7 5 10 2 2 4 4 7 6 3 1 7 2 10 2 5 0 9-1 13-3 4-3 7-6 9-10l12 9c-3 6-7 10-13 14-5 3-12 5-20 5-6 0-11-2-16-4-5-2-10-5-14-9-3-4-6-8-8-13-2-6-3-11-3-17 0-6 1-12 3-17 2-5 5-10 8-14z m97 9l29 0 8-21 17 0-32 85-15 0-32-85 17 0z m15 45l11-33-24 0z m65-10l22-41 9 0 22 41 0-56 16 0 0 85-17 0-26-48-25 48-17 0 0-85 16 0z"/>
<glyph glyph-name="gbr" unicode="&#54;" d="M490 339l-70 0 0 62-118 111-280 0 0-512 398 0 0 80 70 0z m-42-217l-299 0 0 175 299 0z m-265 60c4-4 8-7 13-10 6-2 11-3 17-3 10 0 18 3 26 11l0-11 14 0 0 47-33 0 0-13 19 0 0-6c-8-8-15-13-24-13-4 0-8 1-11 3-3 1-6 4-8 6-3 3-5 6-6 10-1 4-2 8-2 12 0 4 0 8 2 12 1 3 3 6 5 9 2 3 5 5 8 7 3 2 7 2 11 2 5 0 9-1 13-3 4-3 8-6 10-11l13 10c-3 6-8 11-14 15-6 3-13 5-22 5-6 0-12-1-17-4-6-2-10-5-14-10-4-4-7-9-10-14-2-6-3-11-3-18 0-6 1-12 3-18 3-6 6-11 10-15z m140-11c4 1 7 2 10 4 2 2 5 5 6 8 2 3 2 6 2 10 0 6-1 11-4 15-3 4-7 6-12 8 4 2 7 5 9 9 3 4 4 8 4 12 0 3-1 6-2 9-1 2-2 5-4 7-2 2-4 4-7 5-2 2-5 2-8 2l-49 0 0-91 44 0c4 0 8 1 11 2z m-37 74l24 0c3 0 5-1 7-3 2-2 3-5 3-8 0-4-1-7-3-9-2-2-5-3-8-3l-23 0z m0-37l27 0c2 0 3 0 4-1 2 0 3-1 4-2 1-1 1-3 2-4 0-2 1-3 1-5 0-1-1-3-1-4-1-2-2-3-3-4-1-1-2-2-3-3-2 0-3-1-5-1l-26 0z m87-8l17 0 19-31 20 0-21 35c5 2 9 5 12 10 3 5 4 10 4 16 0 4 0 7-2 11-1 4-3 7-6 10-2 3-5 5-9 7-3 1-7 2-12 2l-40 0 0-91 18 0 0 31z m0 45l21 0c2 0 3-1 5-1 1-1 3-2 4-3 1-2 2-3 3-5 0-2 1-4 1-6 0-2-1-4-1-6-1-1-2-3-3-4-1-2-2-3-3-3-2-1-3-2-5-2l-22 0z"/>
<glyph glyph-name="ged" unicode="&#55;" d="M491 335l-71 0 0 66-119 111-280 0 0-512 399 0 0 75 71 0z m-43-217l-299 0 0 174 299 0z m-263 60c4-5 8-8 13-10 6-3 11-4 17-4 10 0 18 4 26 11l0-10 14 0 0 47-33 0 0-13 19 0 0-7c-8-8-15-12-24-12-4 0-8 1-11 2-3 2-6 4-8 7-3 2-5 6-6 9-1 4-2 8-2 12 0 4 0 8 2 12 1 4 3 7 5 10 2 2 5 5 8 6 3 2 7 3 11 3 5 0 9-1 13-4 4-2 8-6 10-10l13 10c-3 6-8 10-14 14-6 4-13 5-22 5-6 0-12-1-17-3-6-3-10-6-14-10-4-4-7-9-10-15-2-5-3-11-3-17 0-7 1-13 3-19 3-5 6-10 10-14z m148 2l-45 0 0 24 38 0 0 14-38 0 0 22 44 0 0 16-62 0 0-91 63 0z m66-12c5 2 10 5 14 9 4 4 7 9 9 15 2 5 3 12 3 18 0 7-1 13-3 18-2 6-5 10-8 14-4 5-9 8-14 10-6 3-12 4-20 4l-33 0 0-91 33 0c7 0 13 1 19 3z m-34 72l15 0c4 0 8 0 12-2 3-1 6-3 8-6 2-3 4-6 5-10 2-3 2-7 2-12 0-4 0-8-2-11-1-4-3-7-5-10-2-3-5-5-8-6-4-2-7-3-12-3l-15 0z"/>
<glyph glyph-name="gif" unicode="&#56;" d="M489 331l-68 0 0 70-118 111-280 0 0-512 398 0 0 71 68 0z m-42-217l-299 0 0 174 299 0z m-240 57c4-4 9-8 15-10 5-3 11-4 18-4 10 0 20 4 27 12l0-12 16 0 0 51-35 0 0-14 19 0 0-7c-7-9-16-13-25-13-5 0-9 1-12 2-4 2-7 4-9 7-3 3-5 7-7 11-1 4-2 8-2 13 0 4 1 9 2 13 2 4 4 7 6 10 2 3 5 6 9 7 3 2 7 3 11 3 6 0 11-1 15-4 5-2 8-6 11-11l14 10c-3 7-8 12-15 16-7 4-15 6-24 6-7 0-13-1-19-4-6-3-11-6-15-11-5-4-8-9-10-15-3-6-4-13-4-20 0-7 1-13 4-20 2-6 5-11 10-16z m93 85l19 0 0-99-19 0z m59-58l39 0 0 16-39 0 0 26 47 0 0 16-66 0 0-99 19 0z"/>
<glyph glyph-name="gpx" unicode="&#57;" d="M491 336l-72 0 0 65-118 111-280 0 0-512 398 0 0 76 72 0z m-43-217l-298 0 0 174 298 0z m-264 58c4-4 9-7 14-10 6-2 11-4 18-4 10 0 19 4 26 12l0-11 15 0 0 49-34 0 0-14 19 0 0-6c-7-9-16-13-25-13-4 0-8 0-11 2-3 2-6 4-9 7-2 3-4 6-6 10-1 4-2 8-2 12 0 5 1 9 2 13 1 3 3 7 6 10 2 3 5 5 8 7 3 1 7 2 11 2 5 0 10-1 14-3 5-3 8-7 10-11l14 10c-3 6-8 11-14 15-7 4-14 6-23 6-7 0-13-2-19-4-5-3-10-6-14-11-4-4-8-9-10-15-2-5-3-12-3-18 0-7 1-13 3-19 2-6 6-11 10-16z m108 19l22 0c4 0 8 1 12 2 4 2 7 5 9 8 3 2 5 6 6 10 2 3 3 7 3 11 0 4-1 8-3 12-1 4-3 7-6 10-3 3-6 5-10 7-3 2-7 3-12 3l-40 0 0-95 19 0 0 32z m0 47l20 0c2 0 3-1 5-1 1-1 3-2 4-3 1-2 2-3 3-5 0-2 1-4 1-7 0-4-1-8-4-11-2-3-5-4-8-4l-21 0z m54-79l20 0 22 34 23-34 20 0-33 47 34 48-20 0-24-35-23 35-21 0 34-48z"/>
<glyph glyph-name="gz" unicode="&#33;" d="M491 340l-71 0 0 61-119 111-280 0 0-512 399 0 0 80 71 0z m-43-217l-299 0 0 175 299 0z m-222 59c4-4 9-8 14-10 6-3 11-4 18-4 10 0 19 4 26 11l0-10 15 0 0 48-34 0 0-13 19 0 0-7c-7-8-16-13-25-13-4 0-8 1-11 3-3 1-6 4-9 6-2 3-4 7-6 11-1 3-2 8-2 12 0 4 1 8 2 12 1 4 3 7 6 10 2 3 5 6 8 7 3 2 7 3 11 3 5 0 10-1 14-4 5-2 8-6 10-11l14 10c-3 7-8 12-14 16-7 3-14 5-23 5-7 0-13-1-18-4-6-2-11-6-15-10-4-4-8-9-10-15-2-6-3-12-3-18 0-7 1-14 3-20 2-6 6-11 10-15z m158 3l-52 0 52 65 0 13-73 0 0-16 52 0-54-65 0-13 75 0z"/>
<glyph glyph-name="gzip" unicode="&#34;" d="M491 334l-71 0 0 67-119 111-280 0 0-512 399 0 0 74 71 0z m-43-218l-299 0 0 175 299 0z m-267 62c3-4 7-7 12-9 5-2 10-3 16-3 9 0 17 3 24 10l0-10 13 0 0 44-30 0 0-12 17 0 0-6c-7-8-14-12-23-12-3 0-6 1-10 2-3 2-5 4-7 6-3 3-4 6-6 9-1 4-2 8-2 12 0 3 1 7 2 10 1 4 3 7 5 10 2 2 5 4 8 6 3 1 6 2 9 2 5 0 9-1 13-3 4-3 7-6 9-10l12 9c-2 6-7 10-12 14-6 3-13 5-21 5-6 0-11-2-16-4-5-2-10-5-13-9-4-4-7-8-9-13-2-6-3-11-3-17 0-6 1-12 3-17 2-5 5-10 9-14z m141 3l-46 0 46 58 0 12-66 0 0-14 47 0-48-58 0-13 67 0z m13 70l17 0 0-85-17 0z m51-56l20 0c4 0 7 0 11 2 3 2 6 4 8 6 2 3 4 6 5 9 2 4 2 7 2 11 0 3 0 7-2 10-1 3-3 6-5 9-3 3-5 5-9 7-3 1-7 2-11 2l-36 0 0-85 17 0z m0 42l18 0c2 0 3-1 5-1 1-1 2-2 3-3 1-1 2-3 3-4 0-2 1-4 1-6 0-4-1-8-3-10-2-3-5-4-8-4l-19 0z"/>
<glyph glyph-name="hqz" unicode="&#35;" d="M491 339l-72 0 0 62-118 111-280 0 0-512 398 0 0 80 72 0z m-43-217l-298 0 0 175 298 0z m-257 86l42 0 0-39 17 0 0 91-17 0 0-36-42 0 0 36-17 0 0-91 17 0z m85-25c4-4 8-8 14-10 5-3 11-4 18-4 4 0 8 0 12 2 4 1 8 2 11 4l5-6 17 0-13 14c4 5 7 9 9 15 2 5 3 11 3 17 0 5-1 11-3 17-2 5-5 10-9 14-4 5-8 8-14 11-5 3-11 4-18 4-6 0-12-1-18-4-5-2-10-6-14-10-4-4-7-9-9-15-2-5-3-11-3-17 0-6 1-12 3-17 2-6 5-11 9-15z m7 43c1 4 3 7 5 10 3 3 5 5 9 7 3 1 7 2 11 2 4 0 8-1 11-2 3-2 6-4 8-7 3-3 4-6 6-10 1-3 2-7 2-11 0-3-1-7-2-10-1-3-2-6-4-9l-6 7-17 0 14-16c-2 0-4-1-6-2-2 0-4-1-6-1-4 0-8 1-11 3-3 2-6 4-8 7-3 3-4 6-6 9-1 4-1 8-1 12 0 4 0 7 1 11z m146-41l-50 0 50 62 0 13-70 0 0-15 50 0-52-62 0-14 72 0z"/>
<glyph glyph-name="kml" unicode="&#36;" d="M491 334l-72 0 0 67-118 111-280 0 0-512 398 0 0 74 72 0z m-42-217l-299 0 0 174 299 0z m-253 75l11 11 27-37 19 0-35 48 33 39-18 0-37-42 0 41-17 0 0-86 17 0z m82 31l22-43 10 0 22 43 0-57 17 0 0 87-18 0-26-50-26 50-18 0 0-87 17 0z m150-42l-44 0 0 72-17 0 0-87 61 0z"/>
<glyph glyph-name="key" unicode="&#37;" d="M491 335l-72 0 0 66-118 111-280 0 0-512 398 0 0 75 72 0z m-42-217l-299 0 0 174 299 0z m-246 74l12 12 28-39 20 0-37 50 35 41-20 0-38-44 0 44-18 0 0-91 18 0z m131-12l-45 0 0 24 38 0 0 14-38 0 0 22 44 0 0 16-62 0 0-91 63 0z m38-15l18 0 0 32 33 59-20 0-22-44-23 44-19 0 33-59z"/>
<glyph glyph-name="jsp" unicode="&#38;" d="M491 336l-72 0 0 65-118 111-280 0 0-512 398 0 0 76 72 0z m-43-217l-298 0 0 174 298 0z m-223 47c5 2 8 6 11 10 2 4 4 9 5 15 0 6 1 12 1 20l0 48-19 0 0-48c0-6 0-10 0-14 0-4-1-8-2-10-2-3-3-5-5-6-3-2-6-2-9-2-4 0-8 0-11 1-3 1-5 2-6 3l-4-15c6-4 13-6 21-6 7 0 14 2 18 4z m69 13c-4 0-7 1-11 2-3 1-7 2-9 3-3 1-6 3-8 4-2 1-3 2-4 3l-8-16c5-4 11-7 18-9 7-2 14-3 21-3 5 0 10 0 14 1 4 1 8 3 11 5 3 3 6 5 8 9 2 4 3 8 3 13 0 4-1 8-3 11-1 3-3 6-6 8-2 2-5 4-9 5-4 2-8 3-13 4-3 1-7 2-9 3-3 1-5 1-7 2-2 1-3 3-4 4-1 1-2 3-2 5 0 3 2 6 4 8 3 1 7 2 12 2 2 0 5 0 8-1 3 0 5-1 8-2 2-1 4-2 6-3 1-2 2-2 3-3l8 15c-4 3-9 5-14 7-6 3-12 4-19 4-5 0-9-1-13-2-5-2-8-4-11-6-4-3-6-6-8-9-2-4-3-8-3-13 0-4 1-7 2-10 1-2 3-5 5-7 2-2 5-3 9-5 3-1 7-3 11-4 4-1 7-2 11-3 3-1 5-2 7-3 2-1 4-2 5-4 1-1 2-3 2-5 0-6-5-10-15-10z m67 17l22 0c5 0 9 1 12 2 4 2 7 5 10 8 2 2 4 6 6 10 1 3 2 7 2 11 0 4-1 8-2 12-2 4-4 7-7 10-2 3-5 5-9 7-4 2-8 3-12 3l-40 0 0-95 18 0z m0 47l21 0c1 0 3-1 4-1 2-1 3-2 4-3 2-2 2-3 3-5 1-2 1-4 1-7 0-4-1-8-3-11-2-3-5-4-9-4l-21 0z"/>
<glyph glyph-name="jpg" unicode="&#39;" d="M490 334l-70 0 0 67-118 111-280 0 0-512 398 0 0 74 70 0z m-43-217l-298 0 0 175 298 0z m-233 47c4 2 8 5 10 10 3 4 5 9 5 15 1 6 2 13 2 20l0 49-19 0 0-49c0-5 0-10-1-14 0-4-1-8-2-10-1-3-3-5-5-6-3-2-6-2-10-2-3 0-7 0-10 1-3 1-5 2-6 3l-5-15c6-4 13-6 21-6 9 0 15 1 20 4z m54 30l23 0c5 0 9 1 13 3 3 2 7 4 9 7 3 3 5 6 6 10 2 4 3 8 3 12 0 4-1 8-3 12-1 4-3 7-6 10-3 3-6 6-10 8-4 2-8 2-12 2l-41 0 0-96 18 0z m0 48l22 0c1 0 3 0 4-1 2-1 3-2 5-3 1-1 2-3 2-5 1-2 1-4 1-7 0-5-1-8-3-11-2-3-5-4-9-4l-22 0z m74-67c5-4 9-8 15-10 6-3 12-4 18-4 10 0 19 4 27 11l0-10 16 0 0 49-36 0 0-13 20 0 0-7c-8-9-16-13-25-13-4 0-8 0-12 2-3 2-6 4-9 7-2 3-4 6-6 10-1 4-2 8-2 13 0 4 1 9 2 12 1 4 3 8 6 11 2 3 5 5 8 7 4 2 7 3 12 3 5 0 10-2 14-4 4-3 8-7 10-11l14 10c-3 6-8 12-14 15-7 4-15 6-24 6-7 0-13-1-18-4-6-2-11-6-15-10-5-5-8-10-10-16-3-6-4-12-4-18 0-7 1-14 4-20 2-6 5-11 9-16z"/>
<glyph glyph-name="jar" unicode="&#40;" d="M491 331l-72 0 0 70-118 111-280 0 0-512 398 0 0 71 72 0z m-42-218l-299 0 0 175 299 0z m-227 49c4 3 8 6 10 10 2 4 4 9 5 14 0 6 1 12 1 19l0 46-18 0 0-46c0-5 0-9 0-13-1-4-1-7-3-10-1-2-2-4-4-5-3-2-5-2-9-2-4 0-7 0-10 1-3 1-5 2-6 3l-4-14c6-4 12-6 20-6 8 0 13 1 18 3z m49 21l32 0 9-22 18 0-35 90-15 0-35-90 18 0z m16 48l13-35-26 0z m70-40l18 0 18-30 20 0-20 34c5 2 9 5 12 10 2 5 4 10 4 16 0 4-1 8-2 11-2 4-4 7-6 10-3 3-6 5-9 7-4 2-8 2-12 2l-40 0 0-90 17 0z m0 45l22 0c1 0 3 0 4-1 2-1 3-2 4-3 2-2 2-3 3-5 1-2 1-4 1-6 0-2 0-4-1-6 0-1-1-3-2-4-1-2-2-3-4-3-1-1-3-2-4-2l-23 0z"/>
<glyph glyph-name="iso" unicode="&#41;" d="M492 331l-73 0 0 70-118 111-281 0 0-512 399 0 0 71 73 0z m-43-218l-299 0 0 175 299 0z m-248 140l18 0 0-93-18 0z m70-78c-4 0-7 0-11 1-3 1-6 2-9 3-3 2-5 3-7 4-2 1-4 2-4 3l-8-15c5-4 11-7 18-9 7-2 14-3 21-3 4 0 8 0 13 1 4 1 7 3 11 5 3 2 5 5 7 8 2 4 3 8 3 13 0 4-1 8-2 11-2 3-4 5-6 8-3 2-6 3-10 5-3 1-7 2-12 4-3 1-6 1-9 2-3 1-5 2-7 3-1 1-3 2-4 3-1 1-1 3-1 5 0 3 1 6 4 8 2 1 6 2 11 2 2 0 5 0 8-1 3 0 5-1 7-2 3-1 5-2 6-3 2-1 3-2 4-3l8 15c-4 3-9 5-15 7-5 2-11 3-18 3-4 0-9 0-13-2-4-1-8-3-11-5-3-3-5-6-7-9-2-4-3-8-3-13 0-4 1-7 2-9 1-3 3-5 5-7 2-2 5-4 8-5 3-2 7-3 12-4 3-1 7-2 10-3 3-1 5-2 7-3 2-1 4-2 5-4 1-1 2-3 2-5 0-6-5-9-15-9z m54-1c4-5 9-8 15-11 5-3 11-4 18-4 7 0 13 1 18 4 6 2 11 6 15 10 4 5 7 9 9 15 2 6 4 12 4 18 0 6-1 11-4 17-2 6-5 11-9 15-4 5-8 8-14 11-6 3-12 4-18 4-7 0-13-1-19-4-5-2-10-6-14-10-4-4-7-9-10-15-2-6-3-12-3-18 0-6 1-12 3-17 2-6 5-11 9-15z m8 43c1 4 3 7 5 10 2 3 5 6 9 7 3 2 7 3 11 3 5 0 8-1 12-2 3-2 6-4 8-7 2-3 4-7 6-10 1-4 1-8 1-12 0-4 0-8-1-11-2-4-3-7-6-10-2-3-5-6-8-7-3-2-7-3-12-3-4 0-8 1-11 3-3 1-6 4-9 7-2 2-4 6-5 9-1 4-2 8-2 12 0 4 1 8 2 11z"/>
<glyph glyph-name="indd" unicode="&#42;" d="M491 339l-72 0 0 62-118 111-280 0 0-512 398 0 0 79 72 0z m-43-218l-298 0 0 175 298 0z m-275 131l15 0 0-77-15 0z m46-28l39-49 12 0 0 77-15 0 0-51-40 51-11 0 0-77 15 0z m111-46c4 1 8 4 12 7 3 4 6 8 7 13 2 4 3 10 3 15 0 6-1 11-2 15-2 5-4 9-8 12-3 4-7 7-11 9-5 2-11 3-17 3l-28 0 0-77 28 0c6 0 11 1 16 3z m-29 61l13 0c4 0 7-1 10-2 3-2 5-3 7-5 2-3 3-5 4-8 1-4 2-7 2-11 0-3-1-7-2-10-1-3-2-5-4-8-2-2-4-4-7-5-3-1-6-2-10-2l-13 0z m106-61c5 1 9 4 12 7 3 4 6 8 8 13 1 4 2 10 2 15 0 6 0 11-2 15-2 5-4 9-7 12-3 4-7 7-12 9-5 2-10 3-16 3l-28 0 0-77 28 0c5 0 11 1 15 3z m-28 61l13 0c3 0 6-1 9-2 3-2 5-3 7-5 2-3 4-5 5-8 1-4 1-7 1-11 0-3 0-7-1-10-1-3-3-5-5-8-1-2-4-4-7-5-3-1-6-2-9-2l-13 0z"/>
<glyph glyph-name="iff" unicode="&#43;" d="M491 336l-72 0 0 65-118 111-280 0 0-512 398 0 0 76 72 0z m-43-217l-298 0 0 174 298 0z m-234 140l19 0 0-95-19 0z m57-56l38 0 0 15-38 0 0 25 45 0 0 16-63 0 0-95 18 0z m77 0l38 0 0 15-38 0 0 25 45 0 0 16-64 0 0-95 19 0z"/>
<glyph glyph-name="ics" unicode="&#44;" d="M491 331l-71 0 0 70-119 111-280 0 0-512 399 0 0 71 71 0z m-43-217l-299 0 0 174 299 0z m-247 141l18 0 0-97-18 0z m46-82c4-4 9-8 15-11 5-3 12-5 19-5 4 0 8 1 12 2 4 1 8 2 11 4 4 2 7 5 10 7 3 3 5 6 7 10l-16 9c-1-3-2-5-4-7-2-2-4-3-6-4-2-2-5-2-7-3-2-1-5-1-7-1-4 0-8 1-11 3-4 2-7 4-9 7-3 3-5 7-6 11-1 4-2 8-2 12 0 4 0 8 2 11 1 4 3 8 5 11 2 3 5 5 9 7 3 2 7 3 12 3 2 0 4 0 7-1 2 0 4-1 6-2 2-1 4-3 6-4 2-2 3-5 5-7l14 10c-3 6-8 11-14 15-7 4-15 6-23 6-8 0-15-2-21-4-6-3-11-7-15-11-4-5-7-10-9-16-2-6-3-12-3-18 0-6 1-12 3-18 3-6 6-11 10-16z m120 1c-4 0-7 1-11 2-3 0-7 2-9 3-3 1-6 3-8 4-2 1-4 2-4 3l-9-16c6-4 12-7 19-10 7-2 15-3 22-3 5 0 9 1 13 2 5 1 9 2 12 5 3 2 6 5 8 9 2 3 3 8 3 13 0 4-1 8-2 11-2 3-4 6-7 8-2 2-6 4-9 6-4 1-9 2-13 4-4 1-7 1-10 2-3 1-5 2-7 3-2 1-3 2-4 4-1 1-1 2-1 4 0 4 1 7 3 9 3 1 7 2 12 2 3 0 6 0 9-1 2 0 5-1 7-2 3-1 5-2 7-4 1-1 2-2 3-2l8 15c-4 3-9 6-15 8-5 2-12 3-18 3-5 0-10-1-14-2-5-1-8-3-12-6-3-2-5-6-7-9-2-4-3-9-3-14 0-3 1-6 2-9 1-3 3-5 5-7 2-2 5-4 8-6 4-1 8-2 13-4 3-1 7-2 10-3 3-1 6-2 8-3 2-1 4-2 5-4 1-1 2-3 2-5 0-7-5-10-16-10z"/>
<glyph glyph-name="ico" unicode="&#45;" d="M491 331l-71 0 0 70-118 111-281 0 0-512 399 0 0 71 71 0z m-43-217l-299 0 0 174 299 0z m-252 139l18 0 0-93-18 0z m44-79c4-4 9-8 14-11 6-2 12-4 19-4 3 0 7 1 11 2 4 1 8 2 11 4 4 2 7 4 9 7 3 2 5 5 7 9l-15 8c-1-2-2-4-4-6-2-2-4-3-6-4-2-2-4-2-6-3-3 0-5-1-7-1-4 0-8 1-11 3-3 2-6 4-9 7-2 3-4 6-5 10-2 4-2 8-2 12 0 3 0 7 2 11 1 3 2 7 5 10 2 3 5 5 8 7 3 2 7 3 12 3 2 0 4-1 6-1 2-1 4-1 6-2 2-2 4-3 6-5 2-1 3-4 5-6l13 9c-3 6-7 11-14 15-6 4-13 6-22 6-7 0-13-2-19-5-6-2-11-6-14-10-4-4-7-9-9-15-2-6-3-11-3-17 0-6 1-12 3-17 2-6 5-11 9-16z m89 0c4-4 9-8 14-11 6-2 12-4 19-4 6 0 12 2 18 4 5 3 10 6 14 11 4 4 7 9 10 15 2 5 3 11 3 17 0 6-1 12-3 18-2 5-5 10-9 15-4 4-9 8-15 11-5 2-11 4-18 4-7 0-13-2-18-4-6-3-11-6-15-11-4-4-7-9-9-15-2-5-4-11-4-17 0-6 1-12 4-18 2-6 5-11 9-15z m7 44c2 4 3 7 6 10 2 3 5 5 8 7 4 2 7 3 12 3 4 0 8-1 11-3 3-2 6-4 9-7 2-3 4-6 5-10 1-4 2-7 2-11 0-4-1-8-2-12-1-3-3-7-5-10-2-3-5-5-9-7-3-2-7-3-11-3-5 0-8 1-12 3-3 2-6 4-8 7-3 3-4 6-5 10-2 4-2 8-2 12 0 3 0 7 1 11z"/>
<glyph glyph-name="icns" unicode="&#46;" d="M491 333l-72 0 0 68-118 111-280 0 0-512 398 0 0 73 72 0z m-43-218l-298 0 0 175 298 0z m-274 133l16 0 0-81-16 0z m38-68c4-4 8-8 13-10 5-2 10-4 16-4 3 0 6 1 10 2 3 0 6 2 9 3 3 2 6 4 8 6 3 2 5 5 6 8l-13 8c-1-3-2-5-4-6-1-2-3-3-5-4-1-1-3-2-5-2-2 0-4-1-6-1-3 0-7 1-10 3-2 1-5 3-7 6-2 2-4 5-5 8-1 4-2 7-2 11 0 3 1 6 2 9 1 3 2 6 4 9 2 2 5 4 8 6 2 2 6 2 10 2 2 0 4 0 5 0 2-1 4-1 6-2 2-1 3-2 5-4 1-1 3-3 4-6l12 9c-3 5-7 9-12 12-6 4-12 5-20 5-6 0-12-1-17-3-4-3-9-6-12-9-3-4-6-9-8-13-2-5-3-10-3-15 0-5 1-10 3-15 2-5 5-10 8-13z m88 39l42-52 12 0 0 81-15 0 0-53-42 53-13 0 0-81 16 0z m99-39c-3 0-6 1-9 1-3 1-5 2-8 3-2 1-4 2-6 4-2 1-3 1-4 2l-7-13c5-4 10-6 16-8 6-2 12-3 18-3 4 0 8 1 12 1 3 1 6 3 9 5 3 2 5 4 7 7 1 3 2 7 2 11 0 4 0 7-2 10-1 2-3 4-5 6-2 2-5 3-8 5-3 1-7 2-11 3-3 1-6 2-8 2-2 1-4 2-6 3-1 0-2 1-3 2-1 2-1 3-1 5 0 2 1 5 3 6 2 2 5 3 10 3 2 0 4-1 7-1 2-1 4-2 6-2 2-1 4-2 5-3 2-1 3-2 3-2l7 12c-3 3-7 5-12 7-5 2-10 2-16 2-4 0-8 0-11-1-4-1-7-3-10-5-3-2-5-5-6-8-2-3-2-7-2-11 0-3 0-6 1-8 1-2 2-4 4-6 2-2 5-3 7-4 3-2 7-3 10-4 4-1 7-2 9-2 3-1 5-2 7-3 2-1 3-2 4-3 1-1 1-3 1-4 0-6-4-9-13-9z"/>
<glyph glyph-name="ibooks" unicode="&#47;" d="M491 333l-71 0 0 68-118 111-281 0 0-512 399 0 0 73 71 0z m-43-217l-299 0 0 174 299 0z m-278 115l10 0 0-50-10 0z m51-49c2 0 4 1 5 2 2 1 3 2 4 4 1 2 1 4 1 6 0 3-1 6-2 8-2 2-4 4-7 5 2 1 4 2 5 4 1 3 2 5 2 7 0 2 0 3-1 5 0 1-1 3-2 4-1 1-2 2-4 3-1 1-3 1-5 1l-27 0 0-50 25 0c2 0 4 0 6 1z m-21 41l14 0c1 0 3-1 4-2 1-1 1-3 1-5 0-2 0-3-1-4-2-1-3-2-5-2l-13 0z m0-21l15 0c1 0 2 0 3 0 0-1 1-1 2-2 0 0 0-1 1-2 0-1 0-2 0-2 0-1 0-2 0-3-1-1-1-2-2-2 0-1-1-1-2-2 0 0-1 0-2 0l-15 0z m43-14c2-2 4-4 7-6 3-1 7-2 10-2 4 0 7 1 10 2 3 2 6 4 8 6 2 2 4 5 5 8 1 3 2 6 2 10 0 3-1 6-2 9-1 3-3 6-5 8-2 3-4 5-7 6-3 2-7 3-10 3-4 0-7-1-10-3-3-1-6-3-8-5-2-3-4-5-5-8-2-4-2-7-2-10 0-3 0-6 2-10 1-3 2-5 5-8z m4 24c0 2 1 4 2 5 2 2 3 3 5 4 2 1 4 2 6 2 3 0 5-1 7-2 1-1 3-2 4-3 1-2 2-4 3-6 1-2 1-4 1-6 0-2 0-4-1-6 0-2-1-4-3-6-1-1-2-3-4-4-2-1-4-1-7-1-2 0-4 0-6 1-2 1-3 3-4 4-2 2-3 4-3 6-1 2-1 4-1 6 0 2 0 4 1 6z m49-24c2-2 5-4 8-6 3-1 6-2 10-2 4 0 7 1 10 2 3 2 6 4 8 6 2 2 4 5 5 8 1 3 2 6 2 10 0 3-1 6-2 9-1 3-3 6-5 8-2 3-5 5-8 6-3 2-6 3-10 3-3 0-7-1-10-3-3-1-5-3-7-5-3-3-4-5-6-8-1-4-1-7-1-10 0-3 0-6 1-10 1-3 3-5 5-8z m4 24c1 2 2 4 3 5 1 2 3 3 5 4 2 1 4 2 6 2 2 0 5-1 6-2 2-1 4-2 5-3 1-2 2-4 3-6 1-2 1-4 1-6 0-2 0-4-1-6-1-2-2-4-3-6-1-1-3-3-5-4-1-1-3-1-6-1-2 0-4 0-6 1-2 1-3 3-5 4-1 2-2 4-3 6 0 2-1 4-1 6 0 2 1 4 1 6z m56-16l7 6 15-21 11 0-20 28 19 22-11 0-21-24 0 24-10 0 0-50 10 0z m56-7c-2 0-4 0-6 1-2 0-4 1-5 1-2 1-3 2-4 2-1 1-2 2-2 2l-5-8c3-2 6-4 10-5 4-1 8-2 11-2 3 0 5 0 7 1 3 0 5 1 6 3 2 1 4 2 5 4 1 2 1 4 1 7 0 2 0 4-1 6-1 2-2 3-3 4-2 1-3 2-5 3-2 1-5 1-7 2-2 1-4 1-5 1-2 1-3 1-4 2-1 0-1 1-2 2 0 0-1 1-1 2 0 2 1 3 2 4 2 1 4 2 6 2 2 0 3 0 5-1 1 0 3-1 4-1 1-1 2-1 3-2 1 0 2-1 2-1l4 8c-2 1-5 3-8 4-3 1-6 2-9 2-3 0-5-1-8-2-2 0-4-1-5-3-2-1-3-3-4-5-1-2-2-4-2-6 0-2 1-4 1-5 1-2 2-3 3-4 1-1 2-2 4-3 2-1 4-1 7-2 2-1 3-1 5-2 2 0 3-1 4-1 1-1 2-1 3-2 0-1 1-2 1-3 0-3-3-5-8-5z"/>
<glyph glyph-name="html" unicode="&#58;" d="M490 338l-70 0 0 63-118 111-280 0 0-512 398 0 0 78 70 0z m-43-217l-298 0 0 174 298 0z m-267 86l32 0 0-30 13 0 0 71-13 0 0-29-32 0 0 29-14 0 0-71 14 0z m77-30l13 0 0 59 23 0 0 12-59 0 0-12 23 0z m58 47l19-35 7 0 18 35 0-47 14 0 0 71-15 0-21-41-21 41-14 0 0-71 13 0z m123-35l-37 0 0 59-13 0 0-71 50 0z"/>
<glyph glyph-name="kmz" unicode="&#59;" d="M491 335l-72 0 0 66-118 111-280 0 0-512 398 0 0 75 72 0z m-43-217l-298 0 0 174 298 0z m-260 74l11 12 29-39 20 0-37 50 34 41-19 0-38-44 0 44-18 0 0-91 18 0z m85 33l24-45 9 0 24 45 0-60 18 0 0 91-19 0-27-52-27 52-19 0 0-91 17 0z m160-45l-50 0 50 62 0 14-71 0 0-16 50 0-51-62 0-13 72 0z"/>
<glyph glyph-name="lnk" unicode="&#60;" d="M491 331l-72 0 0 70-118 111-280 0 0-512 398 0 0 71 72 0z m-43-218l-298 0 0 175 298 0z m-205 63l-46 0 0 75-18 0 0-90 64 0z m28 43l47-58 14 0 0 90-17 0 0-59-48 59-13 0 0-90 17 0z m98-31l12 12 28-39 20 0-37 50 35 40-20 0-38-43 0 43-18 0 0-90 18 0z"/>
<glyph glyph-name="log" unicode="&#61;" d="M490 332l-69 0 0 69-118 111-281 0 0-512 399 0 0 72 69 0z m-43-217l-299 0 0 174 299 0z m-204 63l-45 0 0 74-18 0 0-89 63 0z m11-2c4-4 9-8 14-10 5-3 11-4 18-4 6 0 12 1 17 4 6 2 10 6 14 10 4 4 7 9 9 14 2 5 3 11 3 17 0 5-1 11-3 16-2 6-5 11-9 15-3 4-8 8-13 10-5 3-11 4-18 4-6 0-12-1-17-3-6-3-10-6-14-10-4-5-7-9-9-15-2-5-3-11-3-17 0-6 1-11 3-17 2-5 5-10 8-14z m8 42c1 4 3 7 5 9 2 3 5 6 8 7 3 2 7 3 11 3 4 0 8-1 11-3 3-1 6-3 8-6 2-3 4-6 5-10 1-3 2-7 2-11 0-4-1-7-2-11-1-3-3-6-5-9-2-3-5-5-8-7-3-2-7-3-11-3-4 0-8 1-11 3-3 2-6 4-8 6-2 3-4 6-5 10-1 4-2 7-2 11 0 4 1 7 2 11z m88-43c3-4 8-7 13-9 5-3 11-4 16-4 10 0 18 4 25 11l0-10 15 0 0 45-33 0 0-12 18 0 0-7c-7-8-14-12-23-12-4 0-7 1-10 3-4 1-6 3-9 6-2 3-4 6-5 9-2 4-2 8-2 12 0 4 0 8 2 12 1 3 2 6 5 9 2 3 5 5 8 7 3 1 6 2 10 2 5 0 9-1 13-4 4-2 7-5 10-10l13 10c-3 6-8 10-14 14-6 3-13 5-21 5-7 0-12-1-18-3-5-3-9-6-13-10-4-4-7-9-9-14-3-6-4-11-4-17 0-7 1-13 4-18 2-6 5-11 9-15z"/>
<glyph glyph-name="lua" unicode="&#62;" d="M490 335l-70 0 0 66-118 111-280 0 0-512 398 0 0 75 70 0z m-42-217l-299 0 0 174 299 0z m-201 62l-47 0 0 77-18 0 0-93 65 0z m14-2c3-5 7-8 12-11 5-2 12-3 19-3 7 0 13 1 19 3 5 3 9 6 12 10 3 4 6 9 7 15 2 5 3 11 3 18l0 47-18 0 0-47c0-4-1-8-1-11-1-4-2-7-4-10-2-3-4-5-7-7-3-2-7-2-11-2-4 0-8 0-11 2-3 2-5 4-7 7-1 3-3 6-3 9-1 4-2 8-2 12l0 47-18 0 0-47c0-6 1-12 3-18 1-5 3-10 7-14z m104 9l32 0 9-23 19 0-36 93-16 0-35-93 18 0z m16 50l13-37-26 0z"/>
<glyph glyph-name="m3u" unicode="&#63;" d="M492 333l-73 0 0 68-118 111-281 0 0-512 399 0 0 73 73 0z m-43-217l-299 0 0 175 299 0z m-254 101l21-42 9 0 22 42 0-56 17 0 0 85-18 0-25-49-25 49-18 0 0-85 17 0z m119-39c-2-2-6-3-11-3-4 0-8 0-11 2-2 1-5 3-7 6l-9-11c3-4 7-7 12-9 4-2 10-3 16-3 4 0 9 1 13 2 3 1 7 3 9 5 3 2 5 4 6 7 2 3 3 7 3 11 0 5-2 10-5 14-3 4-7 6-12 7 2 0 4 1 6 2 2 1 4 3 5 5 1 1 2 3 3 5 1 3 1 5 1 7 0 3 0 6-2 9-1 3-3 5-5 7-3 1-6 3-9 4-3 1-7 1-11 1-3 0-6 0-9 0-3-1-6-2-8-3-3-1-5-2-7-4-2-1-4-3-5-5l10-11c2 3 4 5 7 7 3 2 6 3 10 3 4 0 7-1 9-3 2-1 3-4 3-7 0-4-1-6-4-9-3-2-6-3-11-3l-4 0 0-12 3 0c6 0 11-1 14-3 3-2 4-6 4-10 0-4-1-7-4-8z m41-5c3-3 7-7 12-9 4-2 10-3 17-3 7 0 12 1 17 3 5 2 8 5 11 9 3 4 6 8 7 13 1 5 2 11 2 17l0 43-16 0 0-43c0-4-1-7-1-11-1-3-2-6-4-8-1-3-4-5-6-7-3-1-6-2-10-2-4 0-7 1-10 2-2 2-5 4-6 7-2 2-3 5-4 8 0 4-1 7-1 11l0 43-16 0 0-43c0-6 1-11 2-16 1-5 3-10 6-14z"/>
<glyph glyph-name="m4a" unicode="&#64;" d="M492 334l-74 0 0 67-118 111-280 0 0-512 398 0 0 74 74 0z m-43-218l-298 0 0 175 298 0z m-256 102l22-43 9 0 23 43 0-58 17 0 0 87-18 0-26-49-26 49-18 0 0-87 17 0z m118-57l16 0 0 18 11 0 0 15-11 0 0 52-11 0-41-52 0-15 36 0z m-19 33l21 28 0-28z m76-12l31 0 8-22 17 0-33 87-15 0-33-87 18 0z m16 46l12-34-25 0z"/>
<glyph glyph-name="m4v" unicode="&#91;" d="M491 334l-72 0 0 67-118 111-280 0 0-512 398 0 0 75 72 0z m-42-217l-299 0 0 175 299 0z m-253 108l23-44 9 0 23 44 0-59 18 0 0 89-19 0-26-51-27 51-18 0 0-89 17 0z m121-58l17 0 0 19 11 0 0 15-11 0 0 53-12 0-42-54 0-14 37 0z m-20 34l22 28 0-28z m97-35l35 89-18 0-24-67-24 67-18 0 35-89z"/>
<glyph glyph-name="mach-o" unicode="&#93;" d="M492 341l-73 0 0 60-119 111-280 0 0-512 399 0 0 81 73 0z m-43-217l-299 0 0 175 299 0z m-273 98l13-24 5 0 12 24 0-32 9 0 0 48-10 0-14-27-14 27-10 0 0-48 9 0z m58-20l17 0 4-12 10 0-18 48-9 0-18-48 10 0z m8 25l7-18-13 0z m30-29c2-3 4-4 7-6 3-1 6-2 9-2 2 0 4 0 6 1 2 0 4 1 6 2 2 1 3 2 4 3 2 2 3 3 4 5l-8 4c0-1-1-2-2-3-1-1-2-2-3-2-1-1-2-1-3-1-1-1-2-1-4-1-2 0-3 1-5 2-2 0-3 2-5 3-1 2-2 3-2 5-1 2-1 4-1 6 0 2 0 4 0 6 1 2 2 4 3 5 1 1 3 3 4 4 2 1 4 1 6 1 1 0 3 0 4 0 1-1 2-1 3-1 1-1 2-2 3-3 1-1 1-2 2-3l7 5c-1 3-4 5-7 7-3 2-7 3-11 3-4 0-7 0-10-2-3-1-6-3-8-5-2-3-3-5-4-8-1-3-2-6-2-8 0-3 1-6 2-9 1-3 3-6 5-8z m51 13l22 0 0-21 9 0 0 48-9 0 0-19-22 0 0 19-9 0 0-48 9 0z m40 2l20 0 0-8-20 0z m32-15c2-3 5-4 7-6 3-1 6-2 10-2 3 0 6 1 9 2 3 1 6 3 8 5 2 3 3 5 4 8 2 3 2 6 2 9 0 3 0 6-2 9-1 3-2 5-4 8-2 2-5 4-7 5-3 2-6 2-10 2-3 0-6 0-9-2-3-1-5-3-8-5-2-2-3-5-4-8-2-3-2-6-2-9 0-3 0-6 1-9 2-3 3-5 5-7z m4 22c1 2 2 4 3 5 1 2 2 3 4 4 2 1 4 1 6 1 2 0 4 0 6-1 2-1 3-2 4-4 1-1 2-3 3-5 1-2 1-4 1-6 0-2 0-4-1-6-1-1-2-3-3-5-1-1-2-2-4-3-2-1-4-2-6-2-2 0-4 1-6 2-2 1-3 2-4 3-1 2-2 3-3 5-1 2-1 4-1 6 0 2 0 4 1 6z"/>
<glyph glyph-name="max" unicode="&#94;" d="M492 333l-73 0 0 68-118 111-281 0 0-512 399 0 0 73 73 0z m-43-217l-299 0 0 175 299 0z m-255 106l22-42 9 0 22 42 0-56 17 0 0 85-18 0-25-48-25 48-18 0 0-85 16 0z m104-35l29 0 8-21 17 0-32 85-15 0-32-85 17 0z m15 45l11-33-24 0z m40-66l18 0 20 30 20-30 18 0-29 42 30 43-18 0-21-32-21 32-18 0 31-43z"/>
<glyph glyph-name="mdb" unicode="&#95;" d="M491 330l-71 0 0 71-119 111-280 0 0-512 399 0 0 70 71 0z m-43-218l-299 0 0 175 299 0z m-262 107l23-43 9 0 22 43 0-58 17 0 0 87-18 0-26-49-25 49-19 0 0-87 17 0z m138-54c6 2 10 5 14 8 4 4 7 9 9 14 2 5 3 11 3 18 0 6-1 12-3 17-2 5-5 10-8 14-4 3-8 7-14 9-5 2-11 3-18 3l-32 0 0-87 32 0c6 0 12 1 17 4z m-32 68l15 0c4 0 8 0 11-2 3-1 6-3 8-5 2-3 4-6 5-10 1-3 2-7 2-11 0-4-1-8-2-11-1-4-3-7-5-10-2-2-5-4-8-6-3-1-7-2-11-2l-15 0z m124-70c3 1 6 2 9 4 2 2 4 4 6 7 1 3 2 6 2 10 0 6-2 10-5 14-2 4-6 6-11 8 4 2 7 4 9 8 2 4 3 8 3 12 0 3 0 5-1 8-1 3-3 5-4 7-2 2-4 4-7 5-2 2-5 2-8 2l-46 0 0-87 42 0c4 0 7 1 11 2z m-36 71l23 0c3 0 5-1 7-3 2-2 2-5 2-8 0-3-1-6-3-8-2-2-4-3-7-3l-22 0z m0-35l26 0c1 0 2-1 4-1 1-1 2-2 3-3 1-1 1-2 2-4 1-1 1-2 1-4 0-2-1-3-1-4-1-2-1-3-2-4-1-1-3-2-4-2-1-1-3-1-4-1l-25 0 0 23z"/>
<glyph glyph-name="mdf" unicode="&#96;" d="M490 334l-70 0 0 67-118 111-280 0 0-512 398 0 0 75 70 0z m-42-217l-299 0 0 175 299 0z m-256 107l22-44 10 0 23 44 0-59 17 0 0 89-18 0-27-50-26 50-19 0 0-89 18 0z m141-56c5 3 10 6 14 10 4 3 7 8 9 14 2 5 3 11 3 18 0 6-1 12-3 17-2 5-5 10-8 14-4 4-9 7-14 10-6 2-12 3-19 3l-32 0 0-89 32 0c6 0 13 1 18 3z m-33 71l15 0c4 0 8-1 11-2 3-2 6-4 8-6 3-3 4-6 5-9 2-4 2-8 2-12 0-4 0-8-2-12-1-3-2-6-5-9-2-3-5-5-8-6-3-2-7-3-11-3l-15 0z m89-37l36 0 0 14-36 0 0 23 43 0 0 15-60 0 0-89 17 0z"/>
<glyph glyph-name="mid" unicode="&#123;" d="M490 336l-70 0 0 65-118 111-280 0 0-512 398 0 0 76 70 0z m-43-217l-298 0 0 174 298 0z m-245 108l24-47 10 0 25 47 0-63 18 0 0 95-20 0-28-54-28 54-20 0 0-95 19 0z m97 32l18 0 0-95-18 0z m92-92c6 3 10 6 15 10 4 4 7 9 9 15 2 6 3 12 3 20 0 6-1 12-3 18-2 6-5 11-8 15-4 4-9 8-15 10-6 3-13 4-21 4l-34 0 0-95 34 0c8 0 14 1 20 3z m-36 76l16 0c5 0 9-1 12-3 4-1 7-3 9-6 3-3 5-6 6-10 1-4 2-8 2-12 0-5-1-9-2-13-1-4-3-7-6-10-2-3-5-5-8-6-4-2-8-3-13-3l-16 0z"/>
<glyph glyph-name="mim" unicode="&#124;" d="M492 340l-74 0 0 61-118 111-280 0 0-512 398 0 0 80 74 0z m-43-217l-298 0 0 174 298 0z m-253 107l24-45 10 0 23 45 0-61 19 0 0 93-20 0-27-53-28 53-19 0 0-93 18 0z m95 32l18 0 0-93-18 0z m55-32l24-45 10 0 24 45 0-61 18 0 0 93-19 0-28-53-27 53-20 0 0-93 18 0z"/>
<glyph glyph-name="mov" unicode="&#125;" d="M491 331l-71 0 0 70-119 111-280 0 0-512 399 0 0 71 71 0z m-43-217l-299 0 0 174 299 0z m-260 106l22-42 9 0 22 42 0-56 17 0 0 84-18 0-25-48-25 48-18 0 0-84 16 0z m94-44c3-4 8-7 13-9 5-3 10-4 17-4 5 0 11 1 16 4 5 2 10 5 13 9 4 4 7 9 9 14 2 5 3 10 3 16 0 5-1 10-3 16-2 5-5 9-8 13-4 5-8 8-13 10-5 3-11 4-17 4-6 0-12-1-17-3-5-3-9-6-13-10-4-4-7-9-9-14-2-5-3-10-3-16 0-5 1-11 3-16 2-5 5-10 9-14z m7 40c1 4 2 7 4 9 2 3 5 5 8 7 3 2 7 2 11 2 3 0 7 0 10-2 3-2 6-4 8-6 2-3 3-6 5-9 1-4 1-7 1-11 0-3 0-7-1-10-1-4-3-7-5-9-2-3-5-5-8-7-3-2-6-2-10-2-4 0-8 0-11 2-3 2-5 4-8 6-2 3-3 6-4 9-2 4-2 7-2 11 0 4 0 7 2 10z m112-52l33 84-17 0-23-64-23 64-17 0 33-84z"/>
<glyph glyph-name="mp3" unicode="&#126;" d="M491 332l-71 0 0 69-118 111-281 0 0-512 399 0 0 73 71 0z m-43-217l-299 0 0 175 299 0z m-253 108l23-44 9 0 23 44 0-59 17 0 0 89-18 0-27-51-26 51-18 0 0-89 17 0z m108-29l21 0c4 0 8 1 11 2 4 2 7 4 9 7 3 3 4 6 6 9 1 4 2 8 2 11 0 4-1 7-2 11-2 4-4 7-6 9-3 3-6 6-9 7-4 2-7 3-12 3l-37 0 0-89 17 0z m0 44l19 0c2 0 3-1 5-1 1-1 3-2 4-3 1-1 2-3 2-5 1-1 1-3 1-6 0-4-1-8-3-10-2-3-5-4-8-4l-20 0z m95-57c-2-2-6-3-11-3-5 0-9 1-12 3-3 1-5 3-7 6l-10-12c3-4 7-7 12-9 5-2 11-3 17-3 5 0 10 1 14 2 4 1 7 3 10 5 3 2 5 5 6 8 2 3 3 7 3 11 0 6-2 11-5 15-3 4-8 6-13 7 3 0 5 1 7 3 2 1 3 2 5 4 1 2 2 4 3 6 1 3 1 5 1 7 0 4-1 7-2 10-1 2-3 5-6 6-2 2-5 4-9 5-3 1-7 2-12 2-3 0-6-1-9-1-3-1-6-2-9-3-2-1-5-2-7-4-2-2-3-3-5-5l11-12c2 3 4 6 7 7 3 2 7 3 11 3 3 0 6-1 9-2 2-2 3-5 3-8 0-4-1-7-4-9-3-2-7-3-12-3l-4 0 0-13 4 0c6 0 10-1 14-3 3-3 4-6 4-10 0-5-1-8-4-10z"/>
<glyph glyph-name="mp4" unicode="&#92;" d="M492 334l-74 0 0 67-118 111-280 0 0-512 398 0 0 74 74 0z m-42-217l-299 0 0 174 299 0z m-254 101l23-44 9 0 23 44 0-59 17 0 0 89-18 0-27-50-26 50-19 0 0-89 18 0z m108-29l21 0c4 0 8 1 11 3 4 1 7 4 9 6 2 3 4 6 6 10 1 3 2 7 2 11 0 3-1 7-3 10-1 4-3 7-5 10-3 3-6 5-9 7-4 1-8 2-12 2l-37 0 0-89 17 0z m0 44l19 0c2 0 3 0 5-1 1 0 2-1 3-3 1-1 2-2 3-4 1-2 1-4 1-6 0-5-1-8-3-11-2-2-5-4-8-4l-20 0 0 29z m90-73l17 0 0 19 11 0 0 15-11 0 0 54-11 0-42-54 0-15 36 0z m-19 34l21 28 0-28z"/>
<glyph glyph-name="mpa" unicode="&#57344;" d="M491 339l-72 0 0 62-118 111-280 0 0-512 398 0 0 80 72 0z m-43-217l-298 0 0 175 298 0z m-257 108l24-45 9 0 24 45 0-61 17 0 0 91-19 0-27-51-27 51-19 0 0-91 18 0z m111-30l21 0c5 0 8 1 12 2 3 2 6 4 9 7 2 3 4 6 6 10 1 4 2 7 2 11 0 4-1 7-3 11-1 4-3 7-6 10-2 3-5 5-9 7-3 1-7 2-11 2l-39 0 0-91 18 0z m0 45l20 0c1 0 3 0 4-1 2-1 3-2 4-3 1-1 2-3 3-5 0-2 1-4 1-6 0-4-1-8-4-11-2-2-4-4-8-4l-20 0z m66-76l8 23 32 0 8-23 18 0-34 91-16 0-35-91z m24 71l12-35-25 0z"/>
<glyph glyph-name="mpg" unicode="&#57345;" d="M491 331l-72 0 0 70-118 111-280 0 0-512 398 0 0 71 72 0z m-43-217l-298 0 0 174 298 0z m-256 106l22-42 9 0 22 42 0-56 16 0 0 84-17 0-26-48-25 48-17 0 0-84 16 0z m103-28l20 0c4 0 8 1 11 2 3 2 6 4 9 7 2 2 4 5 5 9 1 3 2 7 2 10 0 4-1 7-2 10-2 4-3 7-6 10-2 2-5 4-8 6-4 2-7 2-11 2l-36 0 0-84 16 0z m0 42l19 0c1 0 3 0 4-1 1 0 3-1 4-3 1-1 2-2 2-4 1-2 1-4 1-6 0-4-1-7-3-10-2-2-4-3-7-3l-20 0z m65-58c4-4 8-7 13-10 5-2 10-3 16-3 9 0 16 3 23 10l0-9 14 0 0 43-31 0 0-12 17 0 0-6c-6-8-14-11-22-11-4 0-7 0-10 2-3 1-6 3-8 6-2 2-4 5-5 9-1 3-2 7-2 11 0 4 1 8 2 11 1 3 2 6 5 9 2 3 4 5 7 6 3 2 6 3 10 3 5 0 9-2 13-4 4-2 7-5 9-10l12 10c-3 5-7 10-13 13-6 3-12 5-20 5-6 0-12-1-17-3-5-3-9-6-13-10-3-3-6-8-9-13-2-5-3-11-3-16 0-7 1-12 3-18 3-5 5-9 9-13z"/>
<glyph glyph-name="msg" unicode="&#57346;" d="M491 334l-72 0 0 67-118 111-280 0 0-512 398 0 0 74 72 0z m-43-217l-299 0 0 174 299 0z m-258 106l22-43 10 0 22 43 0-57 17 0 0 87-18 0-26-50-26 50-18 0 0-87 17 0z m119-43c-3 0-6 0-10 1-3 1-6 2-8 3-3 1-5 3-7 4-2 1-3 2-4 3l-7-15c5-4 10-6 17-8 6-2 12-3 19-3 4 0 8 0 12 1 4 1 7 3 10 5 3 2 6 4 8 8 1 3 2 7 2 12 0 4 0 7-2 10-1 2-3 5-5 7-3 2-6 3-9 5-4 1-7 2-12 3-3 1-6 2-8 3-3 0-5 1-7 2-1 1-2 2-3 3-1 1-2 3-2 5 0 3 2 5 4 7 2 2 6 2 10 2 3 0 5 0 8-1 3 0 5-1 7-2 2-1 4-2 6-3 1-1 2-2 3-2l7 14c-4 2-8 4-13 6-5 2-11 3-17 3-5 0-9 0-13-2-3-1-7-2-10-5-3-2-5-5-6-8-2-4-3-8-3-12 0-3 1-6 2-9 1-2 2-4 4-6 2-2 5-3 8-5 3-1 7-2 11-4 3-1 6-1 9-2 3-1 5-2 7-3 2-1 4-2 5-3 1-2 1-3 1-5 0-6-4-9-14-9z m52-2c4-4 8-7 13-9 5-3 10-4 16-4 9 0 17 4 24 11l0-10 14 0 0 44-31 0 0-12 17 0 0-6c-7-8-14-12-23-12-3 0-7 1-10 2-3 2-6 4-8 6-2 3-4 6-5 10-2 3-2 7-2 11 0 4 0 8 2 11 1 4 2 7 5 10 2 2 4 4 7 6 3 2 7 2 10 2 5 0 9-1 13-3 4-2 7-6 10-10l12 9c-3 6-7 11-13 14-6 3-13 5-21 5-6 0-12-1-17-3-5-3-9-6-13-10-4-4-7-8-9-14-2-5-3-10-3-16 0-7 1-12 3-18 2-5 5-10 9-14z"/>
<glyph glyph-name="msi" unicode="&#57347;" d="M491 336l-72 0 0 65-118 111-280 0 0-512 398 0 0 76 72 0z m-43-217l-298 0 0 174 298 0z m-239 108l25-47 10 0 24 47 0-63 19 0 0 95-20 0-28-54-28 54-20 0 0-95 18 0z m131-48c-4 0-7 1-11 2-3 1-7 2-9 3-3 1-6 3-8 4-2 1-3 2-4 3l-8-16c5-4 11-7 18-9 7-2 14-3 21-3 5 0 10 0 14 1 4 1 8 3 11 5 3 3 6 5 8 9 2 4 3 8 3 13 0 4-1 8-3 11-1 3-3 6-6 8-2 2-5 4-9 5-4 2-8 3-13 4-3 1-7 2-9 3-3 1-5 1-7 2-2 1-3 3-4 4-1 1-2 3-2 5 0 3 2 6 4 8 3 1 7 2 12 2 2 0 5 0 8-1 3 0 5-1 8-2 2-1 4-2 6-3 1-2 3-2 3-3l8 15c-4 3-9 5-14 7-6 3-12 4-19 4-5 0-9-1-13-2-5-2-8-4-11-6-4-3-6-6-8-9-2-4-2-8-2-13 0-4 0-7 1-10 1-2 3-5 5-7 2-2 5-3 9-5 3-1 7-3 11-4 4-1 8-2 11-3 3-1 5-2 7-3 2-1 4-2 5-4 1-1 2-3 2-5 0-6-5-10-15-10z m49 80l18 0 0-95-18 0z"/>
<glyph glyph-name="nes" unicode="&#57348;" d="M491 335l-72 0 0 66-118 111-280 0 0-512 398 0 0 75 72 0z m-43-217l-298 0 0 175 298 0z m-250 106l48-60 15 0 0 93-18 0 0-61-49 61-14 0 0-93 18 0z m147-44l-47 0 0 24 39 0 0 15-39 0 0 22 45 0 0 16-63 0 0-93 65 0z m44 0c-3 0-7 0-10 1-4 1-7 2-10 3-2 1-5 3-7 4-2 1-3 2-4 3l-8-16c5-3 11-6 18-8 7-3 14-4 21-4 4 0 9 1 13 2 4 1 8 2 11 5 3 2 6 5 8 8 1 4 2 8 2 13 0 4 0 8-2 11-1 3-3 5-6 7-2 2-5 4-9 6-4 1-8 2-12 3-4 1-7 2-10 3-2 1-5 2-6 3-2 1-3 2-4 3-1 1-2 3-2 5 0 3 2 6 4 7 2 2 6 3 11 3 3 0 6 0 8-1 3-1 6-1 8-2 2-1 4-2 6-4 1-1 2-1 3-2l8 15c-4 2-9 5-14 7-6 2-12 3-18 3-5 0-9-1-14-2-4-1-7-3-10-5-3-3-6-6-8-10-1-3-2-8-2-12 0-4 0-7 1-9 1-3 3-5 5-7 2-2 5-4 8-5 4-2 8-3 12-4 4-1 7-2 10-3 3-1 5-2 8-3 2-1 3-2 4-4 2-1 2-3 2-5 0-6-5-9-15-9z"/>
<glyph glyph-name="obj" unicode="&#57349;" d="M491 336l-71 0 0 65-119 111-280 0 0-512 399 0 0 76 71 0z m-43-217l-299 0 0 174 299 0z m-261 59c4-4 9-8 14-11 6-2 12-4 19-4 7 0 13 2 19 4 6 3 10 6 15 11 4 4 7 9 9 15 2 6 4 12 4 18 0 6-1 12-4 18-2 6-5 11-9 15-4 5-9 9-15 11-5 3-11 5-18 5-7 0-13-2-19-4-6-3-11-7-15-11-4-4-7-10-9-15-3-6-4-12-4-19 0-6 1-12 3-17 3-6 6-11 10-16z m8 45c1 4 2 7 5 10 2 3 5 6 8 7 4 2 8 3 12 3 5 0 9-1 12-2 3-2 6-5 9-8 2-2 4-6 5-10 1-4 2-7 2-12 0-3-1-7-2-11-1-4-3-7-5-10-2-3-5-6-9-8-3-1-7-2-12-2-4 0-8 0-11 2-4 2-7 4-9 7-2 3-4 7-5 11-2 3-2 7-2 11 0 4 0 8 2 12z m144-57c3 1 6 2 9 4 3 2 5 5 7 8 1 3 2 6 2 10 0 7-1 12-4 16-4 4-8 7-13 9 4 2 7 5 10 9 2 4 3 8 3 13 0 3 0 6-1 8-1 3-3 6-5 8-1 2-4 4-6 6-3 1-6 2-9 2l-51 0 0-95 46 0c4 0 8 0 12 2z m-40 77l26 0c3 0 5-1 7-3 2-2 3-5 3-9 0-4-1-6-3-9-2-2-5-3-8-3l-25 0z m0-38l29 0c1 0 3-1 4-1 1-1 3-2 3-3 1-1 2-3 3-4 0-2 1-3 1-5 0-2-1-3-1-5-1-1-2-3-3-4-1-1-2-2-4-2-1-1-3-1-4-1l-28 0z m103-39c5 2 8 6 11 10 2 4 4 9 5 15 0 6 1 12 1 20l0 48-19 0 0-48c0-6 0-10 0-14-1-4-1-8-3-10-1-3-2-5-5-6-2-2-5-2-9-2-3 0-7 0-10 1-3 1-5 2-6 3l-4-15c5-4 12-6 20-6 8 0 14 2 19 4z"/>
<glyph glyph-name="odb" unicode="&#57350;" d="M491 339l-72 0 0 62-118 111-280 0 0-512 398 0 0 79 72 0z m-43-217l-298 0 0 174 298 0z m-268 61c4-4 9-7 14-10 5-2 11-4 18-4 6 0 12 1 17 4 5 2 10 6 14 10 4 4 7 9 9 14 2 5 3 11 3 17 0 6-1 11-3 17-2 5-5 10-9 14-4 4-8 8-14 10-5 3-11 4-17 4-6 0-12-1-18-3-5-3-9-6-13-10-4-4-7-9-9-15-3-5-4-11-4-17 0-5 1-11 3-16 2-6 5-11 9-15z m7 42c2 4 3 7 5 10 3 2 5 5 8 6 4 2 7 3 12 3 4 0 7-1 10-2 4-2 6-4 9-7 2-3 4-6 5-10 1-3 2-7 2-11 0-3-1-7-2-11-1-3-3-6-5-9-2-3-5-5-8-7-4-2-7-2-11-2-4 0-8 0-11 2-4 2-6 4-8 7-3 2-4 6-6 9-1 4-1 7-1 11 0 4 0 8 1 11z m132-52c5 2 10 5 13 9 4 4 7 9 9 14 2 6 3 12 3 18 0 7-1 12-2 18-2 5-5 10-9 14-3 4-8 7-13 9-6 3-12 4-20 4l-32 0 0-89 32 0c7 0 13 1 19 3z m-34 71l15 0c5 0 8-1 12-3 3-1 6-3 8-6 2-2 4-5 5-9 1-3 2-7 2-12 0-4-1-8-2-11-1-4-3-7-5-10-2-2-5-4-8-6-3-1-7-2-12-2l-15 0z m127-73c3 1 6 3 9 5 3 2 5 4 6 7 2 3 2 6 2 10 0 6-1 10-4 14-3 4-7 7-12 8 4 2 7 5 9 9 3 4 4 8 4 12 0 3-1 6-2 8-1 3-2 5-4 8-2 2-4 3-6 5-3 1-6 2-9 2l-47 0 0-89 43 0c4 0 7 0 11 1z m-37 73l24 0c3 0 5-1 7-3 2-2 3-5 3-8 0-4-1-6-3-8-2-2-5-3-8-3l-23 0z m0-36l27 0c1 0 2 0 4-1 1-1 2-1 3-3 1-1 2-2 2-3 1-2 1-3 1-5 0-2 0-3-1-4 0-2-1-3-2-4-1-1-2-2-4-3-1 0-3 0-4 0l-26 0z"/>
<glyph glyph-name="odc" unicode="&#57351;" d="M491 339l-71 0 0 62-119 111-280 0 0-512 399 0 0 79 71 0z m-43-218l-299 0 0 175 299 0z m-266 62c4-4 8-7 14-10 5-2 10-3 17-3 6 0 12 1 17 3 5 3 10 6 13 10 4 4 7 9 9 14 2 5 3 11 3 16 0 6-1 11-3 17-2 5-5 10-8 14-4 4-8 7-14 10-5 2-11 4-17 4-6 0-12-1-17-4-5-2-10-5-13-10-4-4-7-8-9-14-2-5-4-10-4-16 0-6 2-11 4-17 2-5 4-10 8-14z m7 41c1 4 3 7 5 10 2 2 5 5 8 6 3 2 7 3 11 3 4 0 7-1 11-3 3-1 5-3 7-6 3-3 4-6 5-9 2-4 2-8 2-11 0-4 0-7-1-11-2-3-3-6-5-9-2-3-5-5-8-7-3-2-7-2-11-2-4 0-8 0-11 2-3 2-6 4-8 7-2 2-4 5-5 9-1 3-1 7-1 11 0 3 0 7 1 10z m128-51c6 3 10 5 14 9 4 4 7 9 9 14 2 5 3 11 3 18 0 6-1 11-3 17-2 5-5 10-8 13-4 4-8 7-14 10-5 2-11 3-18 3l-32 0 0-87 32 0c6 0 12 1 17 3z m-32 69l15 0c4 0 7 0 11-2 3-1 6-3 8-6 2-2 4-5 5-9 1-3 2-7 2-11 0-4-1-8-2-12-1-3-3-6-5-9-2-2-5-4-8-6-3-1-7-2-11-2l-15 0z m77-58c4-4 8-8 14-10 5-3 10-4 17-4 3 0 7 0 10 1 4 1 7 2 11 4 3 2 6 4 8 6 3 3 5 6 6 9l-14 8c0-3-2-5-3-6-2-2-4-3-6-4-2-1-4-2-6-3-2 0-4 0-6 0-4 0-7 0-10 2-3 2-6 4-8 6-3 3-4 6-6 10-1 3-1 7-1 11 0 3 0 7 1 10 1 4 3 7 5 9 2 3 5 5 8 7 3 2 7 3 11 3 2 0 4 0 6-1 2 0 4-1 6-2 2-1 3-2 5-4 2-2 3-4 4-6l13 9c-3 5-7 10-13 13-6 4-13 6-21 6-6 0-12-2-18-4-5-3-10-6-13-10-4-4-7-9-9-14-2-5-2-10-2-16 0-5 1-11 3-16 2-5 5-10 8-14z"/>
<glyph glyph-name="odf" unicode="&#57352;" d="M490 335l-70 0 0 66-118 111-280 0 0-512 398 0 0 75 70 0z m-42-217l-299 0 0 175 299 0z m-266 60c4-4 9-8 15-10 5-3 11-4 18-4 7 0 13 1 18 4 6 2 11 6 15 10 4 4 7 9 9 15 2 5 4 11 4 18 0 5-2 11-4 17-2 6-5 11-9 15-4 4-9 8-14 11-6 3-12 4-18 4-7 0-13-1-19-4-5-2-10-6-14-10-4-5-7-10-10-15-2-6-3-12-3-18 0-6 1-12 3-18 2-5 5-10 9-15z m8 44c1 4 3 7 5 10 2 3 5 5 9 7 3 2 7 3 11 3 4 0 8-1 12-3 3-1 6-4 8-7 2-2 4-6 5-9 2-4 2-8 2-12 0-4 0-8-1-11-2-4-3-8-6-10-2-3-5-6-8-8-4-1-7-2-12-2-4 0-8 1-11 2-4 2-6 4-9 7-2 3-4 6-5 10-1 4-2 8-2 12 0 4 1 7 2 11z m137-54c6 2 11 5 15 9 4 4 7 9 9 15 2 6 3 12 3 19 0 6-1 12-3 18-2 6-5 11-9 15-3 4-8 7-14 10-6 2-12 3-20 3l-34 0 0-93 34 0c7 0 13 2 19 4z m-35 73l16 0c5 0 8 0 12-2 3-1 6-3 9-6 2-3 4-6 5-10 1-3 2-8 2-12 0-4-1-8-2-12-1-4-3-7-5-10-3-3-6-5-9-6-3-2-7-3-12-3l-16 0z m94-38l37 0 0 15-37 0 0 23 44 0 0 16-62 0 0-93 18 0z"/>
<glyph glyph-name="odg" unicode="&#57353;" d="M491 334l-71 0 0 67-119 111-280 0 0-512 399 0 0 74 71 0 0 260z m-43-217l-299 0 0 174 299 0z m-268 62c4-4 8-8 13-10 5-3 11-4 17-4 7 0 12 1 17 4 6 2 10 5 14 9 4 4 7 9 9 14 2 6 3 11 3 17 0 5-1 11-3 16-2 5-5 10-9 14-3 4-8 8-13 10-5 3-11 4-17 4-6 0-12-1-17-3-5-3-10-6-14-10-3-4-6-9-9-14-2-6-3-11-3-17 0-5 1-11 3-16 2-5 5-10 9-14z m7 41c1 3 3 6 5 9 2 3 5 5 8 7 3 1 6 2 11 2 3 0 7-1 10-2 3-2 6-4 8-7 2-2 4-5 5-9 1-3 2-7 2-11 0-3-1-7-2-10-1-4-2-7-5-10-2-3-4-5-8-6-3-2-6-3-10-3-4 0-8 1-11 3-3 1-6 3-8 6-2 3-4 6-5 9-1 4-2 7-2 11 0 4 1 7 2 11z m128-51c5 2 10 5 14 9 3 3 6 8 8 13 2 6 3 12 3 18 0 6-1 12-2 17-2 5-5 10-9 14-3 4-8 7-13 9-5 2-11 4-19 4l-31 0 0-87 31 0c7 0 13 1 18 3z m-32 69l14 0c4 0 8-1 11-2 4-2 6-4 8-6 3-3 4-6 6-9 1-4 1-8 1-12 0-4 0-8-1-11-2-4-3-7-5-9-3-3-5-5-9-6-3-2-6-2-11-2l-14 0z m77-60c4-4 8-7 13-9 5-3 11-4 17-4 9 0 17 4 24 11l0-10 14 0 0 44-32 0 0-12 18 0 0-6c-7-8-15-12-23-12-4 0-7 1-10 2-3 2-6 4-8 6-3 3-4 6-6 10-1 3-2 7-2 11 0 4 1 8 2 11 1 4 3 7 5 10 2 2 5 4 8 6 3 2 6 2 10 2 5 0 9-1 13-3 4-2 7-6 9-10l13 9c-3 6-8 11-13 14-6 3-13 5-21 5-6 0-12-1-17-3-5-3-10-6-14-10-3-4-6-8-8-14-3-5-4-10-4-16 0-7 1-12 4-18 2-5 5-10 8-14z"/>
<glyph glyph-name="odi" unicode="&#57354;" d="M491 335l-71 0 0 66-119 111-280 0 0-512 399 0 0 75 71 0z m-43-217l-299 0 0 174 299 0z m-248 60c4-4 9-8 14-10 6-3 12-4 19-4 7 0 13 1 18 3 6 3 11 6 15 11 4 4 7 9 9 15 2 5 3 11 3 17 0 6-1 12-3 18-2 5-5 10-9 15-4 4-9 8-14 11-6 2-12 4-19 4-6 0-12-2-18-4-5-3-10-6-14-11-4-4-8-9-10-15-2-5-3-11-3-17 0-6 1-12 3-18 2-5 5-10 9-15z m8 44c1 4 3 7 5 10 2 3 5 5 8 7 4 2 8 3 12 3 4 0 8-1 11-3 4-2 7-4 9-7 2-3 4-6 5-10 2-3 2-7 2-11 0-4 0-8-2-12-1-3-2-7-5-10-2-3-5-5-8-7-4-2-8-2-12-2-4 0-8 0-11 2-4 2-7 4-9 7-2 3-4 6-5 10-1 4-2 8-2 12 0 3 1 7 2 11z m137-54c6 2 10 5 14 9 4 4 7 9 10 15 2 5 3 12 3 19 0 6-1 12-3 18-2 5-5 10-9 14-4 5-8 8-14 10-6 3-12 4-20 4l-34 0 0-93 34 0c7 0 13 1 19 4z m-35 73l16 0c4 0 8 0 12-2 3-1 6-4 8-6 3-3 5-6 6-10 1-4 2-8 2-12 0-5-1-9-2-12-1-4-3-7-6-10-2-3-5-5-8-7-4-1-8-2-12-2l-16 0z m76 16l18 0 0-93-18 0z"/>
<glyph glyph-name="odp" unicode="&#57355;" d="M491 335l-72 0 0 66-118 111-280 0 0-512 398 0 0 75 72 0z m-43-217l-298 0 0 175 298 0z m-268 60c4-4 9-8 14-10 6-3 12-4 19-4 6 0 12 1 18 4 5 2 10 6 14 10 4 4 7 9 10 15 2 5 3 11 3 18 0 5-1 11-3 17-2 6-5 11-9 15-4 4-9 8-15 11-5 3-11 4-18 4-6 0-12-1-18-4-6-2-10-6-15-10-4-5-7-10-9-15-2-6-4-12-4-18 0-6 2-12 4-18 2-5 5-10 9-15z m8 44c1 4 2 7 5 10 2 3 5 5 8 7 4 2 7 3 12 3 4 0 8-1 11-3 4-1 6-4 9-7 2-2 4-6 5-9 1-4 2-8 2-12 0-4-1-8-2-11-1-4-3-8-5-10-2-3-5-6-9-8-3-1-7-2-11-2-4 0-8 1-12 2-3 2-6 4-8 7-2 3-4 6-5 10-2 4-2 8-2 12 0 4 0 7 2 11z m137-54c5 2 10 5 14 9 4 4 7 9 9 15 2 6 4 12 4 19 0 6-1 12-3 18-2 6-5 11-9 15-4 4-9 7-14 10-6 2-13 3-20 3l-34 0 0-93 34 0c7 0 13 2 19 4z m-35 73l16 0c4 0 8 0 11-2 4-1 7-3 9-6 3-3 4-6 6-10 1-3 1-8 1-12 0-4 0-8-1-12-2-4-3-7-6-10-2-3-5-5-8-6-4-2-8-3-12-3l-16 0z m94-45l22 0c4 0 8 0 11 2 4 2 7 4 10 7 2 3 4 6 6 10 1 4 2 8 2 11 0 4-1 8-3 12-1 3-3 7-6 10-2 2-5 5-9 7-4 1-8 2-12 2l-39 0 0-93 18 0z m0 45l20 0c1 0 3 0 5-1 1 0 2-1 4-2 1-2 2-3 2-5 1-2 1-4 1-7 0-4-1-8-3-11-2-2-5-4-8-4l-21 0z"/>
<glyph glyph-name="ods" unicode="&#57356;" d="M491 335l-72 0 0 66-118 111-280 0 0-512 398 0 0 75 72 0z m-43-217l-298 0 0 174 298 0z m-266 60c4-4 8-7 14-10 5-2 11-4 18-4 6 0 12 1 18 4 5 3 10 6 14 10 4 4 7 9 9 15 2 5 3 11 3 17 0 6-1 11-3 17-2 5-5 10-9 15-4 4-8 8-14 10-5 3-11 4-18 4-6 0-12-1-18-3-5-3-10-6-14-11-4-4-7-9-9-14-2-6-4-12-4-18 0-6 2-11 4-17 2-5 5-10 9-15z m7 43c1 4 3 7 5 10 2 3 5 5 9 7 3 2 7 3 11 3 4 0 8-1 11-3 3-2 6-4 8-7 3-2 4-6 6-9 1-4 1-8 1-12 0-3 0-7-1-11-1-3-3-7-5-10-3-2-5-5-9-7-3-1-7-2-11-2-4 0-8 1-11 2-4 2-6 4-9 7-2 3-4 6-5 10-1 4-2 7-2 11 0 4 1 8 2 11z m134-53c6 2 11 5 14 9 4 4 7 9 9 15 3 5 4 12 4 18 0 7-1 13-3 18-2 6-5 10-9 14-3 5-8 8-14 10-5 3-12 4-19 4l-33 0 0-91 33 0c7 0 13 1 18 3z m-34 72l16 0c4 0 8 0 11-2 4-1 6-3 9-6 2-3 4-6 5-10 1-3 2-7 2-12 0-4-1-8-2-11-1-4-3-7-5-10-2-3-5-5-9-6-3-2-7-3-11-3l-16 0z m106-60c-3 0-7 0-10 1-3 1-6 2-9 3-3 1-5 3-7 4-2 1-4 2-4 3l-8-15c5-4 11-7 18-9 6-2 13-3 20-3 4 0 9 0 13 1 4 1 7 3 10 5 3 2 6 5 8 8 2 4 3 8 3 13 0 4-1 8-2 10-2 3-4 6-6 8-3 2-6 4-10 5-3 1-7 3-12 4-3 1-6 1-9 2-2 1-4 2-6 3-2 1-3 2-4 3-1 1-1 3-1 5 0 3 1 5 3 7 3 2 6 3 11 3 3 0 6 0 8-1 3-1 5-2 8-3 2-1 4-2 5-3 2-1 3-1 4-2l7 14c-4 3-8 5-14 7-5 2-11 3-17 3-5 0-9 0-13-1-4-2-8-4-11-6-3-2-5-5-7-9-2-3-3-8-3-12 0-4 1-7 2-9 1-3 3-5 5-7 2-2 5-3 8-5 3-1 7-3 11-4 4-1 7-2 10-3 3 0 5-1 7-2 2-1 4-3 5-4 1-1 2-3 2-5 0-6-5-9-15-9z"/>
<glyph glyph-name="odt" unicode="&#57357;" d="M491 334l-71 0 0 67-119 111-280 0 0-512 399 0 0 75 71 0z m-43-217l-299 0 0 175 299 0z m-261 62c3-5 8-8 13-11 6-2 11-3 18-3 6 0 12 1 17 3 6 3 10 6 14 10 4 4 7 9 9 15 2 5 3 11 3 16 0 6-1 12-3 17-2 5-5 10-9 15-3 4-8 7-13 10-5 2-11 4-18 4-6 0-12-1-17-4-5-2-10-6-14-10-4-4-7-9-9-14-2-6-3-11-3-17 0-6 1-11 3-17 2-5 5-10 9-14z m7 42c1 3 3 6 5 9 2 3 5 5 8 7 3 2 7 2 11 2 4 0 8 0 11-2 3-2 6-4 8-7 2-2 4-6 5-9 1-4 2-7 2-11 0-4-1-8-2-11-1-4-3-7-5-10-2-3-5-5-8-6-3-2-7-3-11-3-4 0-8 1-11 2-3 2-6 4-8 7-2 3-4 6-5 10-1 3-2 7-2 11 0 3 1 7 2 11z m131-53c5 3 10 6 14 10 4 3 7 8 9 14 2 5 3 11 3 18 0 6-1 12-3 17-2 5-5 10-8 14-4 4-9 7-14 10-5 2-12 3-19 3l-32 0 0-89 32 0c7 0 13 1 18 3z m-33 71l15 0c4 0 8-1 11-2 3-2 6-4 8-6 3-3 4-6 6-9 1-4 1-8 1-12 0-4 0-8-1-12-2-3-3-6-5-9-3-3-5-5-9-6-3-2-7-3-11-3l-15 0 0 59z m89-74l17 0 0 74 29 0 0 15-74 0 0-15 28 0z"/>
<glyph glyph-name="odt-1" unicode="&#57358;" d="M492 335l-73 0 0 66-119 111-280 0 0-512 399 0 0 75 73 0z m-43-218l-299 0 0 175 299 0z m-264 61c4-4 9-7 14-10 5-3 11-4 18-4 7 0 12 1 18 4 5 2 10 6 14 10 4 4 7 9 9 14 2 6 4 12 4 18 0 6-2 11-4 17-2 5-5 10-9 15-3 4-8 7-14 10-5 3-11 4-18 4-6 0-12-1-17-4-6-2-10-6-14-10-4-4-8-9-10-15-2-5-3-11-3-17 0-6 1-11 3-17 2-5 5-10 9-15z m7 43c2 4 3 7 6 10 2 3 5 5 8 7 3 2 7 2 11 2 4 0 8 0 11-2 4-2 6-4 9-7 2-3 4-6 5-10 1-3 2-7 2-11 0-4-1-7-2-11-1-4-3-7-5-10-2-3-5-5-8-7-4-2-8-2-12-2-4 0-8 0-11 2-3 2-6 4-8 7-3 3-4 6-5 10-2 3-2 7-2 11 0 4 0 8 1 11z m135-53c5 2 10 5 14 9 4 4 7 9 9 14 2 6 3 12 3 19 0 6-1 12-3 18-2 5-5 10-8 14-4 4-9 8-14 10-6 2-12 4-20 4l-33 0 0-91 33 0c7 0 13 1 19 3z m-34 72l15 0c4 0 8-1 12-2 3-2 6-4 8-6 2-3 4-6 5-10 2-3 2-7 2-12 0-4 0-8-2-12-1-3-3-7-5-9-2-3-5-5-8-7-4-1-8-2-12-2l-15 0z m91-75l17 0 0 75 29 0 0 16-75 0 0-16 29 0z"/>
<glyph glyph-name="odx" unicode="&#57359;" d="M491 334l-72 0 0 67-118 111-280 0 0-512 398 0 0 75 72 0z m-42-217l-299 0 0 175 299 0z m-264 62c3-5 8-8 13-11 6-2 11-3 18-3 6 0 12 1 17 3 6 3 10 6 14 10 4 4 7 9 9 15 2 5 3 11 3 16 0 6-1 12-3 17-2 5-5 10-9 15-3 4-8 7-13 10-5 2-11 4-18 4-6 0-12-1-17-4-5-2-10-6-14-10-4-4-7-9-9-14-2-6-3-11-3-17 0-6 1-11 3-17 2-5 5-10 9-14z m7 42c1 3 3 6 5 9 2 3 5 5 8 7 3 2 7 2 11 2 4 0 8 0 11-2 3-2 6-4 8-7 2-2 4-6 5-9 1-4 2-7 2-11 0-4-1-8-2-11-1-4-2-7-5-10-2-3-5-5-8-6-3-2-7-3-11-3-4 0-8 1-11 2-3 2-6 4-8 7-2 3-4 6-5 10-1 3-2 7-2 11 0 3 1 7 2 11z m131-53c5 3 10 6 14 10 4 3 7 8 9 14 2 5 3 11 3 18 0 6-1 12-3 17-2 5-5 10-8 14-4 4-9 7-14 10-5 2-12 3-19 3l-32 0 0-89 32 0c7 0 13 1 18 3z m-33 71l15 0c4 0 8-1 11-2 3-2 6-4 8-6 3-3 4-6 6-9 1-4 1-8 1-12 0-4 0-8-1-12-2-3-3-6-5-9-3-3-5-5-9-6-3-2-7-3-11-3l-15 0z m60-74l18 0 22 32 21-32 18 0-30 44 31 45-18 0-22-33-23 33-18 0 31-45z"/>
<glyph glyph-name="ogg" unicode="&#57360;" d="M492 338l-74 0 0 63-118 111-280 0 0-512 398 0 0 78 74 0z m-43-217l-298 0 0 174 298 0z m-266 62c4-4 8-7 13-9 5-3 11-4 17-4 6 0 12 1 17 4 5 2 9 5 13 9 4 4 6 9 9 14 2 5 3 10 3 16 0 5-1 11-3 16-2 5-5 10-9 14-3 4-8 7-13 9-5 3-10 4-16 4-6 0-12-1-17-3-5-3-10-6-13-10-4-4-7-8-9-14-2-5-3-10-3-16 0-5 1-11 3-16 2-5 5-9 8-14z m7 41c1 3 3 6 5 9 2 2 5 4 8 6 3 2 6 2 10 2 4 0 8 0 11-2 3-1 5-3 7-6 2-3 4-6 5-9 1-4 2-7 2-11 0-3-1-7-2-10-1-4-2-7-4-9-2-3-5-5-8-7-3-1-7-2-11-2-4 0-7 1-10 2-3 2-6 4-8 6-2 3-4 6-5 10-1 3-1 7-1 10 0 4 0 7 1 11z m84-41c4-4 8-7 13-9 5-3 10-4 16-4 9 0 16 4 23 10l0-9 14 0 0 43-31 0 0-12 17 0 0-6c-6-7-14-11-22-11-4 0-7 0-10 2-3 1-6 3-8 6-2 3-4 6-5 9-1 3-2 7-2 11 0 4 0 8 2 11 1 3 2 7 5 9 2 3 4 5 7 6 3 2 6 3 10 3 5 0 9-2 13-4 3-2 6-5 9-9l12 9c-3 5-7 10-13 13-6 4-12 5-20 5-6 0-12-1-17-3-5-2-9-6-13-9-4-4-6-9-9-14-2-5-3-11-3-16 0-6 1-12 3-17 3-6 5-10 9-14z m87 0c3-4 8-7 12-9 5-3 11-4 16-4 9 0 17 4 24 10l0-9 13 0 0 43-30 0 0-12 17 0 0-6c-7-7-14-11-22-11-4 0-7 0-10 2-3 1-6 3-8 6-3 3-4 6-6 9-1 3-2 7-2 11 0 4 1 8 2 11 1 3 3 7 5 9 2 3 5 5 8 6 3 2 6 3 10 3 4 0 8-2 12-4 4-2 7-5 9-9l13 9c-3 5-8 10-13 13-6 4-13 5-21 5-6 0-11-1-16-3-5-2-10-6-13-9-4-4-7-9-9-14-2-5-3-11-3-16 0-6 1-12 3-17 2-6 5-10 9-14z"/>
<glyph glyph-name="otf" unicode="&#57361;" d="M420 336l0 65-118 111-281 0 0-512 399 0 0 76 71 0 0 260z m28-217l-299 0 0 174 299 0z m-259 59c4-4 9-8 14-11 6-2 12-4 19-4 7 0 13 2 19 4 6 3 11 6 15 11 4 4 7 9 9 15 3 6 4 12 4 18 0 6-1 12-4 18-2 6-5 11-9 15-4 5-9 9-14 11-6 3-12 5-19 5-7 0-13-2-19-4-5-3-10-7-15-11-4-4-7-10-9-15-3-6-4-12-4-19 0-6 1-12 3-17 3-6 6-11 10-16z m8 45c1 4 3 7 5 10 2 3 5 6 9 7 3 2 7 3 12 3 4 0 8-1 11-2 4-2 6-5 9-8 2-2 4-6 5-10 2-4 2-7 2-12 0-3 0-7-2-11-1-4-3-7-5-10-2-3-5-6-9-8-3-1-7-2-11-2-5 0-9 0-12 2-4 2-6 4-9 7-2 3-4 7-5 11-2 3-2 7-2 11 0 4 0 8 2 12z m104-59l18 0 0 79 31 0 0 16-79 0 0-16 30 0z m79 39l37 0 0 15-37 0 0 25 45 0 0 16-64 0 0-95 19 0z"/>
<glyph glyph-name="otf-1" unicode="&#57362;" d="M491 336l-71 0 0 65-118 111-281 0 0-512 399 0 0 76 71 0z m-43-217l-299 0 0 174 299 0z m-259 59c4-4 9-8 14-11 6-2 12-4 19-4 7 0 13 2 19 4 6 3 11 6 15 11 4 4 7 9 9 15 3 6 4 12 4 18 0 6-1 12-4 18-2 6-5 11-9 15-4 5-9 9-14 11-6 3-12 5-19 5-7 0-13-2-19-4-5-3-10-7-15-11-4-4-7-10-9-15-3-6-4-12-4-19 0-6 1-12 3-17 3-6 6-11 10-16z m8 45c1 4 3 7 5 10 2 3 5 6 9 7 3 2 7 3 12 3 4 0 8-1 11-2 4-2 6-5 9-8 2-2 4-6 5-10 2-4 2-7 2-12 0-3 0-7-2-11-1-4-3-7-5-10-2-3-5-6-9-8-3-1-7-2-11-2-5 0-9 0-12 2-4 2-6 4-9 7-2 3-4 7-5 11-2 3-2 7-2 11 0 4 0 8 2 12z m104-59l18 0 0 79 31 0 0 16-79 0 0-16 30 0z m79 39l37 0 0 15-37 0 0 25 45 0 0 16-64 0 0-95 19 0z"/>
<glyph glyph-name="pages" unicode="&#57363;" d="M491 335l-72 0 0 66-118 111-280 0 0-512 398 0 0 75 72 0z m-42-218l-299 0 0 175 299 0z m-262 82l14 0c2 0 5 0 7 1 2 1 4 3 6 5 2 1 3 3 4 6 1 2 1 5 1 7 0 2 0 5-1 7-1 2-3 4-4 6-2 2-4 4-6 5-2 1-5 1-8 1l-24 0 0-58 11 0z m0 28l13 0c1 0 2 0 3 0 1-1 1-1 2-2 1-1 1-2 2-3 0-1 0-3 0-4 0-3 0-5-2-7-1-2-3-3-5-3l-13 0z m42-48l6 14 20 0 6-14 11 0-22 58-10 0-22-58z m16 46l8-24-17 0z m36-38c3-3 6-5 9-6 3-2 7-3 11-3 6 0 11 3 16 7l0-6 10 0 0 30-22 0 0-8 12 0 0-4c-4-6-10-8-15-8-3 0-5 0-7 1-2 1-4 2-6 4-1 2-2 4-3 6-1 3-1 5-1 8 0 3 0 5 1 8 1 2 2 4 3 6 2 2 3 3 5 4 2 1 5 2 7 2 3 0 6-1 9-3 3-1 5-3 6-6l9 6c-2 4-5 7-9 9-4 3-9 4-14 4-4 0-8-1-12-2-3-2-6-4-9-7-2-3-4-6-6-9-1-4-2-7-2-12 0-4 1-8 2-11 2-4 4-7 6-10z m96 2l-29 0 0 15 24 0 0 9-24 0 0 14 28 0 0 10-40 0 0-58 41 0z m28-1c-2 0-4 1-6 1-3 1-5 2-6 2-2 1-4 2-5 3-1 0-2 1-3 2l-5-10c4-3 8-4 12-6 4-1 9-2 13-2 3 0 6 1 8 1 3 1 5 2 7 3 2 2 4 3 5 6 1 2 2 4 2 8 0 2-1 5-2 6-1 2-2 4-3 5-2 1-4 3-6 3-3 1-5 2-8 3-2 1-4 1-6 2-2 0-3 1-4 1-1 1-2 1-3 2 0 1-1 2-1 3 0 2 1 4 3 5 1 1 4 2 7 2 2 0 3 0 5-1 2 0 3-1 5-1 1-1 2-2 3-2 1-1 2-2 3-2l5 9c-3 2-6 4-10 5-3 1-7 2-11 2-3 0-6-1-8-1-3-1-5-2-7-4-2-1-4-3-5-6-1-2-1-5-1-8 0-2 0-4 1-5 0-2 1-3 3-5 1-1 3-2 5-3 2-1 5-2 7-2 3-1 5-2 7-2 1-1 3-1 4-2 2-1 3-1 3-2 1-1 2-2 2-4 0-4-4-6-10-6z"/>
<glyph glyph-name="pct" unicode="&#57364;" d="M491 340l-72 0 0 61-118 111-280 0 0-512 398 0 0 80 72 0z m-42-217l-299 0 0 174 299 0z m-247 77l22 0c4 0 8 1 12 3 4 1 7 4 9 7 3 3 5 6 6 10 1 3 2 7 2 11 0 4-1 7-2 11-2 4-4 7-6 10-3 3-6 5-10 7-3 2-7 3-11 3l-40 0 0-93 18 0 0 31z m0 46l20 0c2 0 3 0 5-1 2-1 3-2 4-3 1-1 2-3 3-5 0-2 1-4 1-6 0-5-1-8-4-11-2-3-5-4-8-4l-21 0z m71-63c4-4 8-8 14-11 5-2 11-4 18-4 4 0 8 1 12 2 4 1 7 2 11 4 3 2 6 4 9 7 3 2 5 5 6 9l-15 8c-1-2-2-4-4-6-1-2-3-3-5-5-2-1-5-2-7-2-2-1-4-1-6-1-4 0-8 1-11 3-4 2-7 4-9 7-3 3-4 6-6 10-1 4-2 7-2 12 0 3 1 7 2 11 1 3 3 7 5 10 2 2 5 5 8 7 4 2 8 2 12 2 2 0 5 0 7 0 2-1 4-2 6-3 2-1 4-2 6-4 1-2 3-4 4-6l14 9c-3 6-8 11-14 15-6 4-14 5-22 5-7 0-14-1-20-4-5-2-10-6-14-10-4-5-7-10-9-15-2-6-3-11-3-17 0-6 1-12 3-17 3-6 6-11 10-16z m103-14l18 0 0 77 30 0 0 16-77 0 0-16 29 0z"/>
<glyph glyph-name="pdb" unicode="&#57365;" d="M490 335l-70 0 0 66-118 111-280 0 0-512 398 0 0 75 70 0z m-43-217l-298 0 0 175 298 0z m-253 78l22 0c4 0 8 0 12 2 3 2 6 4 9 7 2 3 4 6 6 10 1 4 2 8 2 11 0 4-1 8-3 12-1 3-3 7-6 10-2 2-5 5-9 7-4 1-8 2-12 2l-39 0 0-93 18 0z m0 45l20 0c2 0 3 0 5-1 1 0 2-1 4-2 1-2 2-3 2-5 1-2 1-4 1-7 0-4-1-8-3-11-2-2-5-4-8-4l-21 0z m116-73c6 2 10 5 14 9 4 4 7 9 10 15 2 6 3 12 3 19 0 6-1 12-3 18-2 6-5 11-9 15-4 4-8 7-14 10-6 2-12 3-20 3l-34 0 0-93 34 0c7 0 13 2 19 4z m-35 73l16 0c4 0 8 0 12-2 3-1 6-3 8-6 3-3 5-6 6-10 1-3 2-8 2-12 0-4-1-8-2-12-1-4-3-7-6-10-2-3-5-5-8-6-4-2-8-3-12-3l-16 0z m132-75c4 1 7 3 10 5 3 2 5 4 6 7 2 3 3 6 3 10 0 6-2 12-5 16-3 4-7 6-13 8 5 2 8 5 10 9 3 4 4 8 4 13 0 3-1 5-2 8-1 3-2 6-4 8-2 2-4 4-7 5-2 2-5 2-8 2l-50 0 0-93 45 0c4 0 8 1 11 2z m-38 76l25 0c3 0 5-1 7-3 2-2 3-5 3-9 0-3-1-6-3-8-2-3-5-4-8-4l-24 0 0 24z m0-38l28 0c1 0 3 0 4-1 1 0 2-1 3-2 1-2 2-3 3-4 0-2 1-4 1-5 0-2-1-3-1-5-1-1-2-3-3-4-1-1-2-2-4-2-1-1-3-1-4-1l-27 0z"/>
<glyph glyph-name="pdf" unicode="&#57366;" d="M491 335l-71 0 0 66-119 111-280 0 0-512 399 0 0 75 71 0z m-43-217l-299 0 0 174 299 0z m-249 79l22 0c5 0 9 1 13 2 3 2 6 4 9 7 2 3 4 7 6 11 1 3 2 7 2 11 0 4-1 8-2 12-2 3-4 7-7 10-2 3-5 5-9 7-4 2-8 3-12 3l-40 0 0-95 18 0z m0 47l21 0c1 0 3-1 4-1 2-1 3-2 4-3 2-2 3-3 3-5 1-2 1-4 1-7 0-5-1-8-3-11-2-3-5-4-9-4l-21 0z m119-76c5 3 10 6 14 10 5 4 8 9 10 15 2 6 3 12 3 19 0 7-1 13-3 19-2 6-5 11-9 15-4 4-8 8-14 10-6 3-13 4-21 4l-34 0 0-95 34 0c7 0 14 1 20 3z m-36 76l16 0c5 0 9-1 12-3 4-1 7-3 9-6 3-3 4-6 6-10 1-4 2-8 2-13 0-4-1-8-2-12-2-4-3-7-6-10-2-3-5-5-9-7-3-1-7-2-12-2l-16 0z m96-40l38 0 0 15-38 0 0 25 45 0 0 16-63 0 0-95 18 0z"/>
<glyph glyph-name="pif" unicode="&#57367;" d="M490 336l-70 0 0 65-118 111-280 0 0-512 398 0 0 76 70 0z m-42-217l-299 0 0 174 299 0z m-219 77l23 0c4 0 8 1 12 2 3 2 6 5 9 8 3 2 5 6 6 10 1 3 2 7 2 11 0 4-1 8-2 12-2 4-4 7-6 10-3 3-6 5-10 7-4 2-8 3-12 3l-40 0 0-95 18 0z m0 47l21 0c1 0 3-1 5-1 1-1 2-2 4-3 1-2 2-3 2-5 1-2 1-4 1-7 0-4-1-8-3-11-2-3-5-4-8-4l-22 0z m65 16l18 0 0-95-18 0z m57-56l37 0 0 15-37 0 0 25 45 0 0 16-64 0 0-95 19 0z"/>
<glyph glyph-name="pkg" unicode="&#57368;" d="M491 335l-72 0 0 66-118 111-280 0 0-512 398 0 0 75 72 0 0 260z m-42-217l-299 0 0 175 299 0z m-251 78l22 0c4 0 8 0 11 2 4 2 7 4 10 7 2 3 4 6 5 10 2 4 2 8 2 11 0 4 0 8-2 12-1 3-3 7-6 10-2 2-6 5-9 7-4 1-8 2-12 2l-39 0 0-93 18 0 0 32z m0 45l20 0c1 0 3 0 4-1 2 0 3-1 4-2 2-2 2-3 3-5 1-2 1-4 1-7 0-4-1-8-3-11-2-2-5-4-8-4l-21 0z m81-49l12 13 29-41 20 0-38 52 36 41-20 0-39-44 0 44-18 0 0-93 18 0z m72-15c4-4 9-7 14-10 5-2 11-3 17-3 10 0 19 3 26 11l0-11 15 0 0 48-34 0 0-13 19 0 0-7c-7-8-15-12-24-12-4 0-8 1-11 2-3 2-6 4-9 7-2 3-4 6-6 10-1 3-2 7-2 12 0 4 1 8 2 12 1 4 3 7 6 10 2 3 5 5 8 7 3 1 7 2 11 2 5 0 9-1 14-4 4-2 7-6 9-10l14 10c-3 6-8 11-14 14-6 4-14 6-23 6-6 0-12-1-18-4-5-2-10-6-14-10-4-4-7-9-9-15-3-5-4-11-4-18 0-6 1-13 4-18 2-6 5-11 9-16z"/>
<glyph glyph-name="pl" unicode="&#57369;" d="M491 336l-71 0 0 65-119 111-280 0 0-512 399 0 0 76 71 0z m-43-217l-299 0 0 175 299 0z m-202 77l23 0c4 0 8 1 12 3 4 2 7 4 10 7 2 3 4 6 6 10 1 4 2 8 2 12 0 4-1 8-2 12-2 4-4 7-7 10-2 3-6 6-9 8-4 2-8 2-13 2l-41 0 0-96 19 0z m0 48l21 0c2 0 3 0 5-1 1-1 3-2 4-3 1-2 2-3 3-5 1-2 1-4 1-7 0-5-1-8-4-11-2-3-5-4-8-4l-22 0z m134-64l-49 0 0 80-19 0 0-96 68 0z"/>
<glyph glyph-name="png" unicode="&#57370;" d="M490 331l-70 0 0 70-118 111-280 0 0-512 398 0 0 72 70 0z m-42-217l-299 0 0 175 299 0z m-253 78l21 0c4 0 7 1 11 3 3 1 6 4 8 6 3 3 4 6 6 9 1 4 2 7 2 11 0 4-1 7-2 11-2 3-4 6-6 9-3 3-6 5-9 6-3 2-7 3-11 3l-37 0 0-87 17 0z m0 43l19 0c1 0 3 0 4-1 2 0 3-1 4-2 1-2 2-3 3-5 0-2 1-4 1-6 0-4-1-8-4-10-2-3-4-4-7-4l-20 0z m76-16l45-56 14 0 0 87-17 0 0-57-46 57-13 0 0-87 17 0z m84-44c3-4 8-7 13-9 5-2 10-3 16-3 9 0 17 3 24 10l0-10 14 0 0 45-31 0 0-13 17 0 0-6c-7-8-14-12-23-12-3 0-7 1-10 3-3 1-6 3-8 6-2 3-4 6-5 9-2 4-2 8-2 12 0 3 0 7 1 11 2 3 3 6 5 9 3 3 5 5 8 6 3 2 7 3 10 3 5 0 9-1 13-4 4-2 7-5 9-10l13 10c-3 5-7 10-13 13-6 4-13 6-21 6-6 0-12-2-17-4-5-2-9-5-13-9-4-4-7-9-9-14-2-5-3-11-3-17 0-6 1-12 3-17 2-6 5-11 9-15z"/>
<glyph glyph-name="pps" unicode="&#57371;" d="M489 331l-68 0 0 70-118 111-280 0 0-512 398 0 0 71 68 0z m-42-217l-299 0 0 174 299 0z m-246 77l23 0c4 0 8 1 12 3 4 1 7 4 9 7 3 3 5 6 6 10 2 4 2 8 2 12 0 3 0 7-2 11-1 4-3 7-6 10-3 3-6 6-10 7-3 2-7 3-12 3l-40 0 0-95 18 0 0 32z m0 47l21 0c2 0 3 0 5-1 1-1 3-2 4-3 1-1 2-3 3-5 0-2 1-4 1-6 0-5-1-9-4-12-2-2-5-4-8-4l-22 0z m84-47l22 0c5 0 9 1 12 3 4 1 7 4 10 7 2 3 4 6 6 10 1 4 2 8 2 12 0 3-1 7-3 11-1 4-3 7-6 10-3 3-6 6-9 7-4 2-8 3-12 3l-41 0 0-95 19 0 0 32z m0 47l20 0c2 0 3 0 5-1 2-1 3-2 4-3 1-1 2-3 3-5 1-2 1-4 1-6 0-5-1-9-3-12-3-2-5-4-9-4l-21 0z m98-63c-4 0-8 0-11 1-3 1-7 2-9 3-3 2-6 3-8 4-2 1-3 3-4 3l-8-16c5-3 11-7 18-9 7-2 14-3 21-3 5 0 10 1 14 2 4 1 8 2 11 5 3 2 6 5 8 8 2 4 3 8 3 13 0 5-1 8-3 11-1 3-3 6-6 8-2 2-5 4-9 5-4 2-8 3-13 4-3 1-7 2-9 3-3 1-5 2-7 3-2 1-3 2-4 3-1 1-2 3-2 5 0 3 2 6 4 8 3 2 6 3 12 3 2 0 5-1 8-1 3-1 5-2 8-3 2-1 4-2 6-3 1-1 2-2 3-3l8 15c-4 3-9 6-14 8-6 2-12 3-19 3-5 0-9-1-13-2-5-1-8-3-11-6-4-2-6-5-8-9-2-4-3-8-3-13 0-4 1-7 2-9 1-3 3-5 5-7 2-2 5-4 9-6 3-1 7-2 11-4 4-1 7-2 11-3 3-1 5-1 7-3 2-1 4-2 5-3 1-2 2-3 2-6 0-6-5-9-15-9z"/>
<glyph glyph-name="ppt" unicode="&#57372;" d="M489 335l-68 0 0 66-118 111-280 0 0-512 398 0 0 75 68 0z m-43-217l-298 0 0 175 298 0z m-242 78l22 0c4 0 8 0 11 2 4 2 7 4 10 7 2 3 4 6 5 10 2 4 2 8 2 11 0 4 0 8-2 12-1 3-3 7-6 10-3 2-6 5-9 7-4 1-8 2-12 2l-39 0 0-93 18 0z m0 45l20 0c1 0 3 0 4-1 2 0 3-1 4-2 2-2 2-3 3-5 1-2 1-4 1-7 0-4-1-8-3-11-2-2-5-4-8-4l-21 0z m81-45l22 0c4 0 8 0 12 2 3 2 6 4 9 7 3 3 5 6 6 10 1 4 2 8 2 11 0 4-1 8-2 12-2 3-4 7-6 10-3 2-6 5-10 7-3 1-7 2-12 2l-39 0 0-93 18 0 0 32z m0 45l20 0c2 0 3 0 5-1 1 0 3-1 4-2 1-2 2-3 3-5 0-2 1-4 1-7 0-4-1-8-4-11-2-2-5-4-8-4l-21 0z m85-77l18 0 0 77 30 0 0 16-77 0 0-16 29 0z"/>
<glyph glyph-name="pptx" unicode="&#57373;" d="M491 331l-71 0 0 70-119 111-280 0 0-512 399 0 0 71 71 0z m-43-217l-299 0 0 174 299 0z m-259 79l17 0c4 0 7 1 10 2 3 2 5 4 7 6 2 2 4 5 5 8 1 3 2 6 2 9 0 3-1 6-2 9-1 3-3 6-5 8-2 2-5 4-8 6-3 1-6 2-9 2l-32 0 0-75 15 0z m0 37l16 0c1 0 2 0 4-1 1 0 2-1 3-2 1-1 1-2 2-4 1-1 1-3 1-5 0-4-1-7-3-9-2-2-4-3-6-3l-17 0z m65-37l18 0c3 0 7 1 9 2 3 2 6 4 8 6 2 2 3 5 5 8 1 3 1 6 1 9 0 3 0 6-2 9-1 3-2 6-5 8-2 2-4 4-7 6-3 1-6 2-10 2l-31 0 0-75 14 0z m0 37l16 0c2 0 3 0 4-1 1 0 2-1 3-2 1-1 2-2 3-4 0-1 0-3 0-5 0-4 0-7-2-9-2-2-4-3-7-3l-17 0z m69-62l14 0 0 62 24 0 0 13-62 0 0-13 24 0z m40 0l16 0 18 27 17-27 16 0-26 37 27 38-16 0-18-28-19 28-16 0 27-38z"/>
<glyph glyph-name="ps" unicode="&#57374;" d="M490 331l-70 0 0 70-118 111-280 0 0-512 398 0 0 71 70 0z m-42-217l-299 0 0 174 299 0z m-205 77l23 0c4 0 8 1 12 3 4 1 7 4 10 7 2 3 4 6 6 10 1 4 2 8 2 12 0 4-1 8-2 12-2 4-4 7-7 10-2 3-6 6-9 7-4 2-8 3-13 3l-41 0 0-97 19 0z m0 48l21 0c2 0 3-1 5-1 1-1 3-2 4-3 1-2 2-3 3-5 1-2 1-5 1-7 0-5-1-9-3-11-3-3-6-5-9-5l-22 0z m100-65c-4 0-7 1-11 2-3 0-7 2-10 3-2 1-5 3-7 4-2 1-4 2-5 3l-8-16c6-4 12-7 19-10 7-2 15-3 22-3 5 0 9 1 13 2 5 1 9 2 12 5 3 2 6 5 8 9 2 3 3 8 3 13 0 4-1 8-2 11-2 3-4 6-7 8-2 2-6 4-10 6-3 1-8 2-12 4-4 1-7 1-10 2-3 1-5 2-7 3-2 1-3 2-4 4-1 1-2 2-2 4 0 4 2 7 4 9 3 1 7 2 12 2 3 0 6 0 8-1 3 0 6-1 8-2 3-1 5-2 6-4 2-1 3-2 4-2l8 15c-4 3-9 6-15 8-5 2-12 3-19 3-4 0-9-1-13-2-5-1-8-3-12-6-3-2-5-6-7-9-2-4-3-9-3-14 0-3 1-6 2-9 1-3 3-5 5-7 2-2 5-4 8-6 4-1 8-2 13-4 3-1 7-2 10-3 3-1 6-2 8-3 2-1 4-2 5-4 1-1 2-3 2-5 0-7-6-10-16-10z"/>
<glyph glyph-name="psd" unicode="&#57375;" d="M490 332l-69 0 0 69-118 111-281 0 0-512 399 0 0 72 69 0z m-43-217l-299 0 0 175 299 0z m-247 78l21 0c4 0 8 1 12 2 3 2 6 4 9 7 2 3 4 6 6 10 1 3 2 7 2 11 0 4-1 7-3 11-1 4-3 7-6 10-2 2-5 5-9 7-3 1-7 2-11 2l-39 0 0-91 18 0z m0 45l19 0c2 0 4-1 5-1 2-1 3-2 4-3 1-1 2-3 3-5 0-2 1-4 1-6 0-5-1-8-4-11-2-2-5-4-8-4l-20 0z m94-61c-4 0-7 1-11 1-3 1-6 2-9 4-2 1-5 2-7 3-2 1-3 2-4 3l-8-15c5-4 11-7 18-9 7-2 14-3 20-3 5 0 9 1 13 2 4 1 8 2 11 4 3 3 5 5 7 9 2 3 3 7 3 12 0 4-1 8-2 11-1 3-3 5-6 7-2 2-5 4-9 5-4 2-8 3-12 4-4 1-7 2-9 3-3 0-5 1-7 2-1 1-3 2-4 3 0 2-1 3-1 5 0 3 1 6 4 8 2 1 6 2 11 2 2 0 5 0 8-1 2 0 5-1 7-2 2-1 4-2 6-3 1-1 2-2 3-3l8 15c-4 2-9 5-14 7-6 2-12 3-18 3-5 0-9-1-13-2-4-1-7-3-10-6-3-2-6-5-8-8-1-4-2-8-2-13 0-3 0-6 2-9 1-2 2-5 4-6 2-2 5-4 8-5 4-2 7-3 12-4 3-1 6-2 9-3 3-1 6-2 8-3 2-1 3-2 5-4 1-1 1-3 1-5 0-6-5-9-14-9z m98-11c5 2 10 5 14 9 4 4 7 8 9 14 2 6 3 12 3 19 0 6-1 12-3 17-2 6-4 11-8 15-4 4-9 7-14 10-6 2-12 3-20 3l-33 0 0-91 33 0c7 0 13 1 19 4z m-34 72l15 0c5 0 8-1 12-3 3-1 6-3 8-6 3-2 4-5 6-9 1-4 1-8 1-12 0-4 0-8-1-12-2-4-3-7-6-10-2-2-5-4-8-6-3-1-7-2-12-2l-15 0z"/>
</font>
</defs>
</svg>
